<?xml version="1.0"?>
<svg width="25.7" height="32.3" xmlns="http://www.w3.org/2000/svg" xmlns:svg="http://www.w3.org/2000/svg" xmlns:xlink="http://www.w3.org/1999/xlink">
 <defs>
  <g id="shape0" transform="matrix(1.0, 0.0, 0.0, 1.0, 10.2, 15.25)">
   <path d="m6.5,-8.9l1.8,1.4l0.45,0.6l-1.05,3.55l-0.65,2.55l-1,2.65l-2.5,2.5l-0.55,0.5l-0.25,-0.5l-0.5,-0.85l0.2,-0.2q2.3,-2.3 3,-3.75q0.65,-1.3 0.65,-3.45q0,-2.85 -0.9,-5.05l1.3,0.05m-2.55,-2.75l1,1.35l0.85,0.8q-3.7,-0.65 -5.6,-2.55q-1.55,-1.55 -2.6,-1.95l1.25,-0.35q1.8,-0.25 3.95,1.35l1.15,1.35m-9.4,20.65l0.3,-0.1l0.1,0.55l0.25,0.65l-0.35,0.2l-0.1,-0.4l-0.2,-0.9m3.85,-2.3l0.3,-0.25l0.6,1.1l-0.55,0.4q-0.1,-0.65 -0.35,-1.25" fill="#2e2e2e" fill-rule="evenodd" id="svg_1"/>
   <path d="m7.15,-9.3l-0.1,0.2l1.6,0.95q0.7,0.4 0.9,1.4l0.05,1.5q0,2.45 -0.8,5.65l-0.6,2.85l-0.6,1.5l-0.5,1.3l-0.6,5.6q-0.15,0.65 -1.25,1.15q-1.95,0.9 -2.15,1.05l-1.15,1.4q-0.8,0.95 -2.05,0.95q-1.6,0 -3.15,-0.7q-1.4,-0.65 -1.75,-1.35l-1.1,-2.35q-0.75,-0.5 -1.2,-1.9l-0.35,-1.7q0,-1.1 1,-1.55l0.25,-0.1l0,-0.8q0,-4.5 -1.9,-6.7q-1.9,-2.15 -1.9,-4.3l0.25,-2.4l1.5,-2.6l2.25,-2.7q1.75,-1.95 2.2,-1.95l0.6,0.2l0.4,0.2l2.15,-0.7q1.9,-0.3 3.9,1.65l2.5,2.9l1.2,1.3l0.4,0.05m-0.65,0.4l-1.3,-0.05q0.9,2.2 0.9,5.05q0,2.15 -0.65,3.45q-0.7,1.45 -3,3.75l-0.2,0.2l0.5,0.85l0.25,0.5l0.55,-0.5l2.5,-2.5l1,-2.65l0.65,-2.55l1.05,-3.55l-0.45,-0.6l-1.8,-1.4m-1.05,5.4q-0.2,1 -1,1.9l-1.1,1.85q-0.95,1.55 -1.9,1.55q-0.8,0 -3.9,-1.35q-1.95,-0.5 -2.7,-1.6l-1,-2l-0.65,-2.15q0,-1.05 1.4,-2.8l2.25,-2.65q1,-1.15 2,-0.75l1.6,1.1q0.55,0.7 2.05,1.2l2.25,0.4l0.15,0.05l0.05,-0.25q-2.4,-0.3 -3.8,-1.5l-3.9,-3.35l-0.1,0.05l-0.1,0l-2.6,3.1q-2.65,3.5 -2.65,6.55q0,1.55 2.2,3.15q2.15,1.55 2,3.8l1.3,0.3l0.4,-0.55q0.4,-0.55 1.45,-0.55q0.8,0 0.95,0.3l0,0.05q0.65,-0.25 1.3,0.3l0.5,0.35q3.35,-3.3 3.65,-6.5l0,-0.55l-0.05,-1.05l-0.05,1.6m-5,-6.45q-2.05,-1.35 -3.05,-0.5q-0.75,0.55 -2.1,2.4q-1.5,2 -1.5,2.8l0.7,1.75l0.95,2.05q0.5,0.85 6,2.6q0.5,0 1.35,-1.3l1.15,-1.9q0.75,-1.1 0.9,-1.75l0.05,-1.45l0,-1.15l-0.3,-1.65q-1.45,-0.15 -4.15,-1.9m3.5,-1.7l-1.15,-1.35q-2.15,-1.6 -3.95,-1.35l-1.25,0.35q1.05,0.4 2.6,1.95q1.9,1.9 5.6,2.55l-0.85,-0.8l-1,-1.35m4.25,9.75l-0.9,2.7l0.15,0.05l0.55,0.35l0.2,-1.05q0.8,-2.8 0.8,-5.4l-0.8,3.35m-0.55,4.8l0,-0.05l0.25,-1q-0.45,-0.05 -0.7,-0.3l-0.1,-0.15l-0.95,1.55l-2.75,2.45l-0.15,0.15l0.15,0.75l-1.3,1.3q-1.3,1 -1.55,1l-0.8,-0.45l-0.9,0.65l0.15,1.15l-0.1,0.65l-0.15,0.15l1.45,0l1,0q0.7,0.15 0.7,0.65l-0.2,1.15l-0.15,1.25l0,0.85l0.15,-0.2l1.05,-1.1l-0.1,-1.05q0,-2.35 0.75,-4.5q1.05,-3.05 3.15,-2.65l0.4,-0.95l0.7,-1.3m-1.15,2.65l0,-0.05q-2.35,0.75 -3.05,4.05l-0.5,3.6l0,0.05l0.05,-0.05l2.25,-1q0.9,-0.55 0.75,-1.2l0.25,-2.7l0.25,-2.7m-4.15,-0.85l-0.75,-0.8l-0.35,-0.3l0.1,-0.05l-0.2,-0.3l-0.35,-0.4l-1.3,1.2l-0.2,0.2l-0.6,0.7l-0.05,0.15l0.25,0.45l0.45,0.8l0.4,0.65l0.1,0.15l0,0.05l0.45,0.6l-0.05,0l0.15,0.2l2.45,-1.7l-0.05,-0.25l0,-0.1l-0.45,-1.25m-1.3,6.65l-3.75,-0.05q-0.4,0.05 -0.85,0.9l-0.45,1.15q0,0.3 3.05,1.9l1.35,0l0.55,-1.7l0.4,-1.65q0.05,-0.5 -0.3,-0.55m-5.9,-23.9l1.6,-1.35l-0.2,-0.1l-0.5,-0.25l-0.05,0l-0.5,0.5l-1,1.1l-2.05,2.35l-0.5,0.55q-1,1.3 -1.3,2.35l-0.25,2.2q0,1.25 0.95,2.7l-0.15,-1.7l0.15,-1.4q0.3,-1.9 1.4,-3.85q1,-1.75 2.4,-3.1m-2.9,11.25l-0.05,-0.05l0.05,0.05q1,1.15 1.5,2.35q0.4,1 0.45,2.1l0,0.3l0,0.5l0,2.3l0,0.25q0.3,0 0.45,0.3l-0.25,0.95l0.05,0.6l0.3,-0.15l-0.05,-0.4q0,-0.9 0.6,-1.5l1.9,-1.7l0.2,0.1l0,-0.05l0.05,0.05l0.1,0.2l0.05,0.05l0.55,1.1l0.3,-0.2l-0.35,-0.85l0.6,-1.15l0.85,-1.15l-0.4,-0.05q-0.9,0 -1.2,0.6q-0.25,0.55 -0.45,0.55q-2.25,0 -2.25,-1.35q-0.05,-1.9 -1.25,-2.6l-1.75,-1.15m5.2,7.25l-0.1,-0.3l-0.1,-0.3l-1.25,1.1q-0.65,0.65 -0.7,1.25l0,0.05l-0.1,0.6l0.15,0.65l0.55,1.05l0.05,0l0.4,0.2l0.1,0l0.15,0l0.8,0.05l0.75,-0.05l0.2,-0.1l0.05,-0.65l0,-0.2l0.05,-0.5l-0.15,-0.8l-0.35,-0.85l-0.4,-0.8l-0.1,-0.4m-3.65,2.15q-0.05,-0.85 -0.3,-0.75q-0.4,0.05 -0.55,0.35l-0.05,0.5l0.05,0.25l-0.05,0.3l0.75,1.95l0.6,0.7l0.1,0l0.15,-0.05l0.05,-0.25l-0.3,-0.75l-0.25,-0.45l-0.2,-1.45l0,-0.35m0.75,0.9l0.2,0.9l0.1,0.4l0.35,-0.2l-0.25,-0.65l-0.1,-0.55l-0.3,0.1m3.85,-2.3q0.25,0.6 0.35,1.25l0.55,-0.4l-0.6,-1.1l-0.3,0.25m-2.6,4.3l-0.2,-0.2l-0.55,0.15l0.05,0.3q0,0.35 -0.15,0.55l-0.2,0l0.65,1.35q0.3,-1.55 0.8,-2.15l-0.4,0" fill="#000000" fill-rule="evenodd" id="svg_2"/>
   <path d="m5.55,-3.5q-0.3,3.2 -3.65,6.5l-0.5,-0.35q-0.65,-0.55 -1.3,-0.3l0,-0.05q-0.15,-0.3 -0.95,-0.3q-1.05,0 -1.45,0.55l-0.4,0.55l-1.3,-0.3q0.15,-2.25 -2,-3.8q-2.2,-1.6 -2.2,-3.15q0,-3.05 2.65,-6.55l2.6,-3.1l0.1,0l0.1,-0.05l3.9,3.35q1.4,1.2 3.8,1.5l-0.05,0.25l-0.15,-0.05l-2.25,-0.4q-1.5,-0.5 -2.05,-1.2l-1.6,-1.1q-1,-0.4 -2,0.75l-2.25,2.65q-1.4,1.75 -1.4,2.8l0.65,2.15l1,2q0.75,1.1 2.7,1.6q3.1,1.35 3.9,1.35q0.95,0 1.9,-1.55l1.1,-1.85q0.8,-0.9 1,-1.9l0.1,0" fill="#4a4a4a" fill-rule="evenodd" id="svg_3"/>
   <path d="m0.45,-9.95q2.7,1.75 4.15,1.9l0.3,1.65l0,1.15l-0.05,1.45q-0.15,0.65 -0.9,1.75l-1.15,1.9q-0.85,1.3 -1.35,1.3q-5.5,-1.75 -6,-2.6l-0.95,-2.05l-0.7,-1.75q0,-0.8 1.5,-2.8q1.35,-1.85 2.1,-2.4q1,-0.85 3.05,0.5m7.75,8.05l0.8,-3.35q0,2.6 -0.8,5.4l-0.2,1.05l-0.55,-0.35l-0.15,-0.05l0.9,-2.7m-1.7,7.4l0,0.05l-0.25,2.7l-0.25,2.7q0.15,0.65 -0.75,1.2l-2.25,1l-0.05,0l0.5,-3.6q0.7,-3.3 3.05,-4.05m-5.45,5.85q0.35,0.05 0.3,0.55l-0.4,1.65l-0.55,1.7l-1.35,0q-3.05,-1.6 -3.05,-1.9l0.45,-1.15q0.45,-0.85 0.85,-0.9l3.75,0.05" fill="#171717" fill-rule="evenodd" id="svg_4"/>
   <path d="m3.4,5.4l-0.15,0.15l0.15,-0.15m-3.2,5.35l0.65,-1.2l1.2,-1.4l1.75,-1.5l1.25,-1.55l1.55,-1.4l1.05,-0.8l-0.7,1.3l-0.4,0.95q-2.1,-0.4 -3.15,2.65q-0.75,2.15 -0.75,4.5l0.1,1.05l-1.05,1.1l-0.15,0.2l0,-0.85l0.15,-1.25l0.2,-1.15q0,-0.5 -0.7,-0.65l-1,0m-5.7,-23.4l0.35,-0.15l0.3,0.25q-1.4,1.35 -2.4,3.1q-1.1,1.95 -1.4,3.85l-0.1,-0.9q0,-1.35 1,-3.45l0.2,-0.35l2.05,-2.35m-0.75,13.7l0.05,0.05q0.75,0.7 0.75,1.1q0,0.4 -0.35,1.25l0,-0.3q-0.05,-1.1 -0.45,-2.1m0.45,2.9l0.15,0.1l0.2,0.4q0,0.5 -0.35,1.8l0,-2.3m3.4,1l0.3,-0.6l0.8,-0.5l-0.6,1.15l0.35,0.85l-0.3,0.2l-0.55,-1.1m-1.8,6.05l0.4,0q-0.5,0.6 -0.8,2.15l-0.65,-1.35l0.2,0q0.15,-0.2 0.15,-0.55l-0.05,-0.3l0.55,-0.15l0.2,0.2" fill="#517048" fill-rule="evenodd" id="svg_5"/>
   <path d="m2.35,4.7l-1.3,1.3l-1.3,1l-0.4,-0.65l-0.45,-0.8l2.25,-2.3l0.2,0.3l-0.1,0.05l0.35,0.3l0.75,0.8m-7.05,3.05l-0.05,0.35l2.2,-2.15l0.1,0.4l0.4,0.8l0.35,0.85l-1.7,0.15q-1.05,0.05 -1.05,0.5l0.1,0.3l-0.3,0.05l-0.15,-0.65l0.1,-0.6m-2.4,1l0.05,0.05l0.7,-0.55l0.15,-0.15l0,0.35l0.2,1.45l0.25,0.45q-0.4,0.15 -0.6,0.35l-0.75,-1.95m1.6,2.6l-0.15,0.05l-0.1,0l0.25,-0.05" fill="#919191" fill-rule="evenodd" id="svg_6"/>
   <path d="m3.4,5.4l2.75,-2.45l0.95,-1.55l0.1,0.15q0.25,0.25 0.7,0.3l-0.25,1l0,0.05l-1.05,0.8l-1.55,1.4l-1.25,1.55l-1.75,1.5l-1.2,1.4l-0.65,1.2l-1.45,0l0.15,-0.15l0.1,-0.65l-0.15,-1.15l0.9,-0.65l0.8,0.45q0.25,0 1.55,-1l1.3,-1.3l-0.15,-0.75l0.15,-0.15m-8.25,-17.95l-0.3,-0.25l-0.35,0.15l1,-1.1l0.5,-0.5l0.05,0l0.5,0.25l0.2,0.1l-1.6,1.35m-2.7,2.25l-0.2,0.35q-1,2.1 -1,3.45l0.1,0.9l-0.15,1.4l0.15,1.7q-0.95,-1.45 -0.95,-2.7l0.25,-2.2q0.3,-1.05 1.3,-2.35l0.5,-0.55m1.3,11.35q-0.5,-1.2 -1.5,-2.35l1.75,1.15q1.2,0.7 1.25,2.6q0,1.35 2.25,1.35q0.2,0 0.45,-0.55q0.3,-0.6 1.2,-0.6l0.4,0.05l-0.85,1.15l-0.8,0.5l-0.3,0.6l-0.05,-0.05l-0.1,-0.2l-0.05,-0.05l0,0.05l-0.2,-0.1l-1.9,1.7q-0.6,0.6 -0.6,1.5l0.05,0.4l-0.3,0.15l-0.05,-0.6l0.25,-0.95q-0.15,-0.3 -0.45,-0.3l0,-0.25q0.35,-1.3 0.35,-1.8l-0.2,-0.4l-0.15,-0.1l0,-0.5q0.35,-0.85 0.35,-1.25q0,-0.4 -0.75,-1.1l-0.05,-0.05" fill="#34462f" fill-rule="evenodd" id="svg_7"/>
   <path d="m-0.25,7l1.3,-1l1.3,-1.3l0.45,1.25l0,0.1l0.05,0.25l-2.45,1.7l-0.15,-0.2l0.05,0l-0.45,-0.6l0,-0.05l-0.1,-0.15m1.4,-3.75l-2.25,2.3l-0.25,-0.45l0.05,-0.15l0.6,-0.7l0.2,-0.2l1.3,-1.2l0.35,0.4m-5.85,4.5l0,-0.05q0.05,-0.6 0.7,-1.25l1.25,-1.1l0.1,0.3l0.1,0.3l-2.2,2.15l0.05,-0.35m3,0.25l0.15,0.8l-0.05,0.5l0,0.2l-0.05,0.65l-0.2,0.1l-0.75,0.05l-0.8,-0.05l-0.15,0l-0.1,0l-0.4,-0.2l-0.05,0l-0.55,-1.05l0.3,-0.05l-0.1,-0.3q0,-0.45 1.05,-0.5l1.7,-0.15m-5.4,0.75l0.05,-0.3l-0.05,-0.25l0.05,-0.5q0.15,-0.3 0.55,-0.35q0.25,-0.1 0.3,0.75l-0.15,0.15l-0.7,0.55l-0.05,-0.05m1.35,1.6l0.3,0.75l-0.05,0.25l-0.25,0.05l-0.6,-0.7q0.2,-0.2 0.6,-0.35" fill="#4d4d4d" fill-rule="evenodd" id="svg_8"/>
  </g>
 </defs>
 <g class="layer">
  <title>Layer 1</title>
  <g id="svg_9" transform="matrix(1.0, 0.0, 0.0, 1.0, 13.6, 15.25)">
   <use height="31.45" id="svg_10" transform="matrix(1.0, 0.0, 0.0, 1.0, -10.2, -15.25)" width="19.8" xlink:href="#shape0"/>
  </g>
 </g>
</svg>