<?xml version="1.0"?>
<svg width="17.65" height="9.3" xmlns="http://www.w3.org/2000/svg" xmlns:svg="http://www.w3.org/2000/svg" xmlns:xlink="http://www.w3.org/1999/xlink">
 <defs>
  <g id="shape0" transform="matrix(1.0, 0.0, 0.0, 1.0, 8.15, 4.5)">
   <path d="m2.85,-1.8q2.55,1 3.5,1.6q1.2,0.75 1.55,1.65q0.35,0.85 0.25,2.5l0,0.5l-0.35,0.1l-1.9,-0.15l0.05,0.1l-3.45,-0.2l-0.15,0.05l-8.05,-0.25q-1.4,0.4 -2.05,-0.9l-0.4,-1.55l2.05,-6.15l0.3,0l0.15,1.05l0.55,-0.35l0.55,-0.4l1.25,0l4,1.6l0.15,-0.15l0.4,0.25l-0.05,0.05l1.65,0.65m-0.7,1.35l-0.8,2l0.2,0.05l1.5,-0.25l0.5,-0.3l1.25,0q0.45,0.4 0.8,0.4l0.95,-0.25l0.2,-0.1l-0.9,-0.9q-1.55,-0.85 -3.25,-1.4l-0.45,0.75m-1.65,-1.35l-0.9,1.65q-0.7,1.7 -1.45,2.2l-2.8,-0.05q-0.65,-0.5 -0.85,-1.45l0,-1.45l0.25,-1.6l-0.9,0.9q-1.05,1.4 -1.45,3.35l0.35,0.8l0.5,0.75l9.05,0.3l0.6,-0.45q0.1,-0.2 0.6,-0.3l2.1,0.1l0.3,0.25l0.6,0.35l0.9,0.05l-0.35,-1.8l-0.05,-0.2l-0.25,0.1l-1.15,0.3l-1,-0.45l-1.5,0.2l-0.9,0.35l-0.85,0l-0.35,-0.3l-0.05,-0.35l0.4,-1.8l0.6,-1.05l-1.45,-0.4m-5.4,0.9l0,1.1l0.5,1.15l2.6,0l0.6,-1.1l0.35,-1.05l0.85,-1.25l-0.75,-0.35q-2.15,-1.25 -3.8,-0.55l0,0.15l-0.35,1.9" fill="#000000" fill-rule="evenodd" id="svg_1"/>
   <path d="m2.15,-0.45l0.45,-0.75q1.7,0.55 3.25,1.4l0.9,0.9l-0.2,0.1l-0.95,0.25q-0.35,0 -0.8,-0.4l-1.25,0l-0.5,0.3l-1.5,0.25l-0.2,-0.05l0.8,-2m-7.05,-0.45l0.35,-1.9l0,-0.15q1.65,-0.7 3.8,0.55l0.75,0.35l-0.85,1.25l-0.35,1.05l-0.6,1.1l-2.6,0l-0.5,-1.15l0,-1.1" fill="#171717" fill-rule="evenodd" id="svg_2"/>
   <path d="m0.5,-1.8l1.45,0.4l-0.6,1.05l-0.4,1.8l0.05,0.35l0.35,0.3l0.85,0l0.9,-0.35l1.5,-0.2l1,0.45l1.15,-0.3l0.25,-0.1l0.05,0.2l0.35,1.8l-0.9,-0.05l-0.6,-0.35l-0.3,-0.25l-2.1,-0.1q-0.5,0.1 -0.6,0.3l-0.6,0.45l-9.05,-0.3l-0.5,-0.75l-0.35,-0.8q0.4,-1.95 1.45,-3.35l0.9,-0.9l-0.25,1.6l0,1.45q0.2,0.95 0.85,1.45l2.8,0.05q0.75,-0.5 1.45,-2.2l0.9,-1.65" fill="#517048" fill-rule="evenodd" id="svg_3"/>
  </g>
 </defs>
 <g class="layer">
  <title>Layer 1</title>
  <g id="svg_4" transform="matrix(1.0, 0.0, 0.0, 1.0, 8.2, 4.75)">
   <use height="9.05" id="svg_5" transform="matrix(1.0, 0.0, 0.0, 1.0, -8.15, -4.5)" width="16.3" xlink:href="#shape0"/>
  </g>
 </g>
</svg>