<?xml version="1.0"?>
<svg width="6.95" height="6" xmlns="http://www.w3.org/2000/svg" xmlns:svg="http://www.w3.org/2000/svg" xmlns:xlink="http://www.w3.org/1999/xlink">
 <defs>
  <g id="shape0" transform="matrix(1.0, 0.0, 0.0, 1.0, 3.3, 3.0)">
   <path d="m-1.95,-1.95l-0.4,1.95q-0.35,1.8 -0.15,2.25l1.05,0.25l1.3,-0.15l1.5,-2.35l1.05,-0.2l0.75,-0.4l-0.1,-0.35l-0.45,-0.3l-0.7,0.15l-1.95,-0.2l-0.35,-0.4l-0.3,-0.5l-1.3,0.05l-0.05,0.05l0.1,0.15m5.6,1.35q0,0.45 -0.95,0.85l-1.15,0.25l-0.65,1.1l-0.8,1.25l-2.15,0.15l-1,-0.75q-0.5,-1.1 0.05,-2.4l0,-0.05l0.05,-0.15l0,-0.05l0.1,-0.55l0.35,-1.05l0.15,-0.5l1.95,-0.05q1.1,0.85 2.4,0.7l0.85,0l0.65,0.7l0.15,0.55" fill="#000000" fill-rule="evenodd" id="svg_1"/>
   <path d="m-2,-2.15l1.3,-0.05l0.3,0.5l0.35,0.4l1.95,0.2l0.7,-0.15l0.45,0.3l0.1,0.35l-0.75,0.4l-1.05,0.2l-1.5,2.35l-1.3,0.15l-1.05,-0.25q-0.2,-0.45 0.15,-2.25l0.4,-1.95l-0.05,-0.2" fill="#4a4a4a" fill-rule="evenodd" id="svg_2"/>
  </g>
 </defs>
 <g class="layer">
  <title>Layer 1</title>
  <g id="svg_3" transform="matrix(1.0, 0.0, 0.0, 1.0, 3.3, 3.0)">
   <use height="6" id="svg_4" transform="matrix(1.0, 0.0, 0.0, 1.0, -3.3, -3.0)" width="6.95" xlink:href="#shape0"/>
  </g>
 </g>
</svg>