<?xml version="1.0"?>
<svg width="37.55" height="26.25" xmlns="http://www.w3.org/2000/svg" xmlns:svg="http://www.w3.org/2000/svg" xmlns:xlink="http://www.w3.org/1999/xlink">
 <defs>
  <g id="shape0" transform="matrix(1.0, 0.0, 0.0, 1.0, 4.3, 11.0)">
   <path d="m11.65,-3.25l0,-0.55q0,-1.2 -0.35,-2.05l-1.25,-1.95l-1.55,-1.65q-1.15,-0.65 -4.6,-1.1l-0.1,0q-1.4,-0.25 -3,0l-0.05,0.05l-0.15,0l-0.8,0.4l-0.45,0.3l-0.05,0q-1.3,1 -1.9,2.75l-0.25,0.2l-0.35,0.45l0.05,-0.2l-0.1,0.15l-0.6,1.7l-0.15,1.05l0,0.05l0,0.15l0.15,1.25l0.1,0.4l0.05,0.05l0,0.1l0.05,0l0.05,-0.05l0.05,-0.05l1.85,0l0.35,0.2l-0.1,-0.35l0.05,-0.1l0.15,-0.35l0.3,-0.6l0.1,-0.15l-0.05,-0.1l0.15,-0.2l-0.6,-0.3l-0.9,-0.5l-0.45,-0.5l-0.3,-0.5q0,-0.9 1.2,-2.25l0.5,-0.55q1.75,-1.85 3.3,-1.8l1.6,0q4.4,0.4 6.1,1.95l0.9,1.3l0.25,1.65l-0.05,0.95l-0.8,0.75l-0.05,0l0.05,0.05l0.1,0.05l0.05,0l0,0.05l0.1,0.2l0.05,0.05l0.05,0.05l-0.15,0l0,0.05l0.3,0.55l0.4,0.05l0.1,0l0.2,0.05l0,-0.1l0,-0.05l0.05,0l0.25,-0.55l0.05,-0.2l0.1,-0.15l0,-0.1m-1.9,-0.2l0.55,-0.65q0.2,-0.15 0.2,-0.85q0,-2.55 -2.15,-3.55l-4.75,-1l-0.75,0l-0.95,0q-1.4,-0.05 -3.05,1.8q-1.5,1.65 -1.5,2.45q0,0.35 1.15,1l0.9,0.6l0.65,-0.75l0.55,-0.6q0.5,-0.3 1.6,0q1.65,0.75 2.25,0.95l2.45,0.7l0.45,0.05l0,-0.05l2.25,0.2l0,-0.15l0.15,-0.15m-9.4,-7.4l0.8,-0.15l1.75,0q4.15,0.45 5.65,1.2l1.8,1.75l1.4,2.1l0.25,2.15l0,0.05l0,0.35l0,0.1l0,0.1l0,0.05l-0.15,0.4l-0.3,0.65l-0.55,0.25q-0.05,0.9 -1.05,3.3l-1.1,2.55l-0.1,0.1l0.2,0.3l-0.9,0.85l-1.25,0.7l-0.6,-0.05l-0.05,0q-1.2,0 -1.85,-0.9l-1.55,-0.95l-0.3,-0.15l-0.3,0.7l-3.55,-2.4l-1.2,-1.15l-1,-1.4q-0.7,-1.75 -0.7,-3.15q0,-1.6 1.25,-3.95l0.8,-1.75q0.5,-0.7 1.55,-1.05l0.65,-0.45l0.35,-0.1l0.05,-0.05m0.05,0.3l0,0.05l-0.1,0.05l0.3,-0.05l-0.2,-0.05m3.45,7.45q0.6,0.2 0.6,0.4l-1.3,1.95l-0.3,0.85l-0.45,0.85l-0.15,0q-1.15,0 -1.8,-1.4q-0.45,-0.95 -0.45,-1.6q0,-0.65 1.7,-1.65l0.7,-0.05l0.6,0.4l0.85,0.25m-1.9,-0.25l-0.1,0q-1.55,1.05 -1.55,1.3q0,0.6 0.5,1.45l0.05,0.1q0.7,1.05 1.45,1.1q0.45,-1.7 1.6,-3.25l0,-0.05l-1.1,-0.4l-0.85,-0.25m0.45,6.2l0,-0.05l0.7,-0.4l0.55,-0.6q0.2,-1.2 0.6,-1.95l-0.05,-0.1l0.15,-0.15q0.05,-0.65 0.95,-1.7l0.1,-0.1q-0.25,-0.05 -0.4,-0.15l-0.95,1.8l-0.9,2q-0.55,0.65 -1.8,0.65l-0.2,-0.05l-0.3,-0.2l-0.3,-0.35l-0.9,-1.3l-0.8,-1.35l-0.05,0l-0.5,-0.25l-0.45,0l-1.4,0l0.35,1.1q1.4,2.2 5.2,4.35l0.1,-0.25l0.15,-0.6l0,-0.05l0.15,-0.3m7.1,-5.7l-2.15,-0.15l-0.15,-0.05l-0.9,0.35l-0.5,0.35l-0.15,0.15l-0.15,0.15l-0.6,1.1l0,0.15l0.1,0.6l0.5,0.35l0.45,0.25l1.55,1.1l0.3,0.5l0.05,0.15l0.1,0.6l0,0.15l0,0.05l0.35,0.65l0.15,0.15l0.1,0.1l0.95,-2.1l0.15,-0.3l0.3,-0.7l0.35,-1.1l0.1,-0.4l0.15,-0.85l0.15,-0.25l-0.5,-0.05l-0.2,-0.35l-0.05,-0.1l-0.2,-0.5l-0.25,0m-4.85,2.7l-0.05,0.1l-0.15,0.3l-0.05,-0.05l0,0.05l-0.15,0.45l-0.15,0.55l-0.05,0.4l-0.1,0.5l-0.4,0.4l-0.1,0.05q-0.2,0 -0.7,0.5l-0.1,0.05l-0.05,0.1l-0.05,0.3l0.4,0.2l0.35,0.2l0.45,0.3l0.85,0.5l0.05,0.05l0.2,0.15l0.3,-0.55l0.45,-0.45l0.15,-0.15l0.55,-0.05l0.35,-0.05l0.2,-0.3q0.1,-0.2 0.75,-0.4q0.1,-0.85 -0.3,-1.25q-0.4,-0.5 -1.75,-1.1l-0.85,-0.8l-0.05,-0.15l0,0.15m-3.8,-4.4l-1.05,1.2l-0.5,0.55l-0.1,0.2l-0.1,0.45l-0.15,0.3l1,1.95l1.4,1.65q1.3,0 1.65,-0.6l0.7,-1.9l1.45,-2.55l-2.05,-0.9l-2.25,-0.35m5.7,1.35l-0.9,-0.1l-0.45,0.65l0.3,0.1l0.15,0.05l0.95,-0.65l-0.05,-0.05m0.35,7.15l-0.25,0.25l-0.55,-0.05q-0.15,0 -0.55,0.55l-0.45,0.4l0.65,0.4l0.15,0l0.75,0.15l0.4,-0.05l0.05,-0.05l0.65,-0.45l0.7,-0.6l0.05,-0.1l-0.05,-0.05l-0.55,-0.55l-0.05,0l-0.05,-0.05l-0.15,-0.4l-0.55,0.25l-0.2,0.35" fill="#000000" fill-rule="evenodd" id="svg_1"/>
   <path d="m5.5,0.15l-0.5,-0.35l-0.1,-0.6l0,-0.15l0.6,-1.1l0.15,-0.15l0.15,-0.15l0.5,-0.35l0.9,-0.35l0.15,0.05l2.15,0.15l-0.55,0.35l-1.3,1.1q-1.7,1 -2.15,1.55m4.5,-2.4l0.2,0.35l0.5,0.05l-0.15,0.25l-0.15,0.85l-0.1,0.4l-0.2,0l-1.65,1.55l-0.65,0.8l-0.3,-0.5l-1.55,-1.1l2.75,-2l-1.4,1.45q0,0.15 0.15,0.15l2.55,-2.25m-0.05,3l-0.3,0.7l-0.1,-0.1l-0.5,0.3l0.9,-0.9m-0.45,1l-0.95,2.1l-0.1,-0.1l-0.15,-0.15l-0.35,-0.65l0.25,-0.25l0,0.05q-0.15,0.05 -0.15,0.35l0.15,0.2l0.75,-0.9l0.55,-0.65m0.35,-1.55l-0.15,0.2l0,-0.05l0.15,-0.15" fill="#71bd51" fill-rule="evenodd" id="svg_2"/>
   <path d="m5.5,0.15q0.45,-0.55 2.15,-1.55l1.3,-1.1l0.55,-0.35l0.25,0l0.2,0.5l0.05,0.1l-2.55,2.25q-0.15,0 -0.15,-0.15l1.4,-1.45l-2.75,2l-0.45,-0.25m4.8,-0.5l-0.35,1.1l-0.9,0.9l0.5,-0.3l0.1,0.1l-0.15,0.3l-0.55,0.65l-0.75,0.9l-0.15,-0.2q0,-0.3 0.15,-0.35l0,-0.05l-0.25,0.25l0,-0.05l0,-0.15l-0.1,-0.6l-0.05,-0.15l0.65,-0.8l1.65,-1.55l0.2,0m-0.45,0.55l-0.15,0.15l0,0.05l0.15,-0.2" fill="#dbdbdb" fill-rule="evenodd" id="svg_3"/>
   <path d="m1.15,2.05l0.2,0.05q1.25,0 1.8,-0.65l0.9,-2l0.95,-1.8q0.15,0.1 0.4,0.15l-0.1,0.1q-0.9,1.05 -0.95,1.7l-0.15,0.15l0.05,0.1q-0.4,0.75 -0.6,1.95l-0.55,0.6l-0.7,0.4l0,0.05l-0.3,-0.15l-0.95,-0.65m-3.3,-3.45l0.45,0l0.5,0.25l0.05,0l0.8,1.35l0.9,1.3l-1.15,-1.1q-0.85,-0.65 -1.55,-1.8" fill="#4a4a4a" fill-rule="evenodd" id="svg_4"/>
   <path d="m0.8,-0.6l1.55,1l0.45,-1.2l-0.25,-0.25q-1,-0.75 -1,-1.3l0.4,-0.6l0.4,-0.35l-0.4,-0.05l0.85,0.25l1.1,0.4l0,0.05q-1.15,1.55 -1.6,3.25q-0.75,-0.05 -1.45,-1.1l-0.05,-0.1" fill="#989898" fill-rule="evenodd" id="svg_5"/>
   <path d="m-3.65,-1.7l-0.05,0l0,-0.1l0.05,0.1" fill="#584f42" fill-rule="evenodd" id="svg_6"/>
   <path d="m2.85,-9.5l0.75,0l4.75,1q2.15,1 2.15,3.55q0,0.7 -0.2,0.85l-0.55,0.65l-1.3,-0.45q-3.3,-1.05 -4.2,-2.3q-1.05,-1.45 -1.35,-2.4l-0.05,-0.9m1,6.4l-0.85,-0.25l-0.6,-0.4l-0.7,0.05q-1.7,1 -1.7,1.65q0,0.65 0.45,1.6q0.65,1.4 1.8,1.4l0.15,0l0.45,-0.85l0.3,-0.85l1.3,-1.95q0,-0.2 -0.6,-0.4m-3,-1.45l2.25,0.35l2.05,0.9l-1.45,2.55l-0.7,1.9q-0.35,0.6 -1.65,0.6l-1.4,-1.65l-1,-1.95l0.15,-0.3l0.1,-0.45l0.1,-0.2l0.5,-0.55l1.05,-1.2m5.7,1.35l0.05,0.05l-0.95,0.65l-0.15,-0.05l-0.3,-0.1l0.45,-0.65l0.9,0.1m0.35,7.15l0.2,-0.35l0.55,-0.25l0.15,0.4l0.05,0.05l0.05,0l0.55,0.55l0.05,0.05l-0.05,0.1l-0.7,0.6l-0.65,0.45l-0.05,0.05l-0.4,0.05l-0.75,-0.15l-0.15,0l-0.65,-0.4l0.45,-0.4q0.4,-0.55 0.55,-0.55l0.55,0.05l0.25,-0.25" fill="#171717" fill-rule="evenodd" id="svg_7"/>
   <path d="m11.65,-3.25l-0.35,-0.4l-0.1,-1.3l-0.6,-1.65l-0.3,-0.6l-0.45,-0.75q-0.7,-0.9 -2.25,-1.45l-4,-1.05l-2,0q-1.25,-0.05 -2.8,2.05l-0.6,0.9q-1.2,1.35 -1.2,2.25l0.3,0.5l0.45,0.5l0.9,0.5l0.6,0.3l-0.15,0.2l0.05,0.1l-0.1,0.15l-0.3,0.6l-0.15,0.35l-1.65,-1.15l-0.35,-0.6l-0.2,-0.9l-0.1,-0.65l-0.15,0.6l0.6,-1.7l0.05,0.05l0.35,-0.45l0.25,-0.2q0.6,-1.75 1.9,-2.75l0.05,0l0.45,-0.3l0.8,-0.4l0.15,0l0.05,-0.05q1.6,-0.25 3,0l0.1,0q3.45,0.45 4.6,1.1l1.55,1.65l1.25,1.95q0.35,0.85 0.35,2.05l0,0.55m-1.65,0l0,0.05l-0.05,-0.05l0.05,0m-5.35,3.1l0.05,0l0.85,0.8q1.35,0.6 1.75,1.1q0.4,0.4 0.3,1.25q-0.65,0.2 -0.75,0.4l-0.2,0.3l-0.35,0.05l-0.55,0.05l-0.15,0.15l-1,-0.9l-0.75,-0.75l-0.3,0.25l0.4,-0.4l0.1,-0.5l0.05,-0.4l0.15,-0.55l0.15,-0.45l0.05,0l0.15,-0.3l0.05,-0.1m-8.5,-2.1l0.05,0.05l0.2,0.45l-0.05,0.05l-0.05,-0.1l-0.05,-0.05l-0.1,-0.4" fill="#517048" fill-rule="evenodd" id="svg_8"/>
   <path d="m-3.6,-1.75l0.05,-0.05l-0.05,0.05" fill="#445d3d" fill-rule="evenodd" id="svg_9"/>
   <path d="m1.95,-3.35l0.4,0.05l-0.4,0.35l-0.4,0.6q0,0.55 1,1.3l0.25,0.25l-0.45,1.2l-1.55,-1q-0.5,-0.85 -0.5,-1.45q0,-0.25 1.55,-1.3l0.1,0" fill="#707070" fill-rule="evenodd" id="svg_10"/>
   <path d="m2.85,-9.5l0.05,0.9q0.3,0.95 1.35,2.4q0.9,1.25 4.2,2.3l1.3,0.45l-0.15,0.15l0,0.15l-2.25,-0.2l0,0.05l-0.45,-0.05l-2.45,-0.7q-0.6,-0.2 -2.25,-0.95q-1.1,-0.3 -1.6,0l-0.55,0.6l-0.65,0.75l-0.9,-0.6q-1.15,-0.65 -1.15,-1q0,-0.8 1.5,-2.45q1.65,-1.85 3.05,-1.8l0.95,0" fill="#0e0e0e" fill-rule="evenodd" id="svg_11"/>
   <path d="m-1.8,-7.5l0.6,-0.9q1.55,-2.1 2.8,-2.05l2,0l4,1.05q1.55,0.55 2.25,1.45l0.45,0.75l0.3,0.6l0.6,1.65l0.1,1.3l0.35,0.4l0,0.1l-0.1,0.15l-0.05,0.2l-0.25,0.55l-0.05,0l0,0.05l0,0.1l-0.2,-0.05l-0.1,0l-0.4,-0.05l-0.3,-0.55l0,-0.05l0.15,0l-0.05,-0.05l-0.05,-0.05l-0.1,-0.2l0,-0.05l-0.05,0l-0.1,-0.05l0,-0.05l0.8,-0.75l0.05,-0.95l-0.25,-1.65l-0.9,-1.3q-1.7,-1.55 -6.1,-1.95l-1.6,0q-1.55,-0.05 -3.3,1.8l-0.5,0.55m-2.05,2.75l0.15,-0.6l0.1,0.65l0.2,0.9l0.35,0.6l1.65,1.15l-0.05,0.1l0.1,0.35l-0.35,-0.2l-1.85,0l-0.05,0.05l-0.2,-0.45l-0.05,-0.05l-0.15,-1.25l0,-0.15l0,-0.05l0.15,-1.05m7.4,7.3l0.3,-0.25l0.75,0.75l1,0.9l-0.45,0.45l-0.3,0.55l-0.2,-0.15l-0.05,-0.05l-0.85,-0.5l-0.45,-0.3l-0.35,-0.2l-0.4,-0.2l0.05,-0.3l0.05,-0.1l0.1,-0.05q0.5,-0.5 0.7,-0.5l0.1,-0.05" fill="#34462f" fill-rule="evenodd" id="svg_12"/>
   <path d="m1.15,2.05l0.95,0.65l0.3,0.15l-0.15,0.3l0,0.05l-0.15,0.6l-0.1,0.25q-3.8,-2.15 -5.2,-4.35l-0.35,-1.1l1.4,0q0.7,1.15 1.55,1.8l1.15,1.1l0.3,0.35l0.3,0.2" fill="#1c1c1c" fill-rule="evenodd" id="svg_13"/>
  </g>
 </defs>
 <g class="layer">
  <title>Layer 1</title>
  <g id="svg_14" transform="matrix(1.0, 0.0, 0.0, 1.0, 18.75, 18.5)">
   <use height="16.95" id="svg_15" transform="matrix(1.0, 0.0, 0.0, 1.0, -4.3, -11.0)" width="16.3" xlink:href="#shape0"/>
  </g>
 </g>
</svg>