<?xml version="1.0"?>
<svg width="15.9" height="24.95" xmlns="http://www.w3.org/2000/svg" xmlns:svg="http://www.w3.org/2000/svg" xmlns:xlink="http://www.w3.org/1999/xlink">
 <defs>
  <g id="shape0" transform="matrix(1.0, 0.0, 0.0, 1.0, 4.7, 7.85)">
   <path d="m5.75,-7q0.65,-0.3 0.65,0.8l-0.6,5.3q1.4,1.85 1.4,3.55q0,0.9 -0.75,3.15q-0.85,2.55 -1.55,2.7q-2,0.45 -4,2.7q-1.9,2.05 -2.85,2.05q-0.45,0 -2.75,-6.2q1.15,-4.25 1.15,-4.7l0.2,-1.8q0.35,-0.9 1.25,-1.2l0.9,-2.95l0.15,-0.65q0,-0.9 0.95,-2.1q1.15,-1.5 2.8,-1.5q2.05,0 3,1.15l0.05,-0.3m-3.05,-0.2q-1.8,0 -2.95,2.7q-0.8,1.9 -0.8,2.95q0,0.35 -0.3,0.75l0.25,0l0.8,-0.15q0.6,0 1.25,-1q0.7,-1.05 1.55,-1.05l0.9,1.15q0.75,1.1 1.5,1.1l0.25,-0.05l-0.05,-0.3l0.3,-3.35l0.15,-1.35l-0.6,-0.6q-0.7,-0.8 -2.25,-0.8m-2.65,6.8l-0.05,0l-0.2,0.05l-1.5,0.4q-0.95,0.35 -0.95,0.8q0,1 -0.55,3l-0.05,0.2l-0.1,0.3l-0.7,2.95q0,0.75 1.05,2.8l0.85,1.55l-0.1,-1.3l0.15,-2.1q0.35,-1.2 0.35,-1.9l0.5,-1.45l0.6,-1.65l0.6,-1.7q0.3,-0.65 0.75,-0.95q0.25,-0.2 0.6,-0.3l0.1,0.35l-0.1,0.75l-0.3,2.05l0.05,0.2l-0.15,1.45l-0.45,2.7q-0.5,1.6 -0.5,2.4l-0.15,0.55l-0.15,0.35l0.25,-0.25l0.85,-0.75q2.1,-1.95 2.95,-1.95l0.05,0l0.15,0l0.05,0q1.4,-0.2 2.1,-2.85l0.45,-2.9q0,-2.25 -1.7,-2.65q-1.25,-0.25 -1.9,-1q-0.4,-0.45 -0.55,-1.05l-1,1.05l-0.2,0.2q-0.7,0.7 -1.1,0.65m4.85,1.85q0.6,0.1 0.6,0.95q0,0.95 -1.7,0.95q-0.25,0 -0.4,-0.65l-0.1,-0.75q0,-0.5 0.55,-0.5l1.05,0m0.05,0.9l-0.2,-0.4l-0.2,-0.3q-0.45,0.1 -0.55,0.25q-0.15,0.1 -0.15,0.4l0.05,0.5l0.05,0.05l0.95,-0.15l0.05,-0.35m-4.3,-0.5l-0.05,-0.05l0,0.05l-0.9,2.15l-0.8,2.6l-0.15,0.85l-0.2,1.25l-0.15,0.65l0,2.9l0.5,-0.45l0,-0.1l0.3,-1.2l0.25,-1.25l0.75,-3.5q0,-1.25 0.25,-1.85l0.2,-1.55l0,-0.5m3.15,3.45l-0.15,-0.35l0.05,-0.2l0,-0.05q0.05,-0.7 0.65,-0.6q0.65,0.05 0.65,0.6l-0.35,0.45l-0.65,0.2l-0.2,-0.05m0.65,-0.55l-0.35,-0.15l0.05,0.2l0.3,-0.05" fill="#000000" fill-rule="evenodd" id="svg_1"/>
   <path d="m2.7,-7.2q1.55,0 2.25,0.8l0.6,0.6l-0.15,1.35l-0.3,3.35l0.05,0.3l-0.25,0.05q-0.75,0 -1.5,-1.1l-0.9,-1.15q-0.85,0 -1.55,1.05q-0.65,1 -1.25,1l-0.8,0.15l-0.25,0q0.3,-0.4 0.3,-0.75q0,-1.05 0.8,-2.95q1.15,-2.7 2.95,-2.7" fill="#171717" fill-rule="evenodd" id="svg_2"/>
   <path d="m-0.05,1.55l0.25,-1.35l0,-0.6l-0.15,0q0.4,0.05 1.1,-0.65l-0.25,0.85l-0.2,0.8q-0.45,0.3 -0.75,0.95m-1.65,-1.5l-1.4,5l-0.1,-1.2q0.55,-2 0.55,-3q0,-0.45 0.95,-0.8m4.6,-1.3q0.65,0.75 1.9,1q1.7,0.4 1.7,2.65l-0.45,2.9q-0.7,2.65 -2.1,2.85l0.3,-0.45l-0.25,-0.6l-0.25,-1l0.05,-0.8l0.2,0.05l0.65,-0.2l0.35,-0.45q0,-0.55 -0.65,-0.6q-0.6,-0.1 -0.65,0.6l-0.6,-0.25q-0.75,0 -1.1,1.75l-0.05,0l0,-1.85l0.95,-5.6m2,2.7l-1.05,0q-0.55,0 -0.55,0.5l0.1,0.75q0.15,0.65 0.4,0.65q1.7,0 1.7,-0.95q0,-0.85 -0.6,-0.95" fill="#517048" fill-rule="evenodd" id="svg_3"/>
   <path d="m4.95,2.35l-0.05,0.35l-0.95,0.15l-0.05,-0.05l-0.05,-0.5q0,-0.3 0.15,-0.4q0.1,-0.15 0.55,-0.25l0.2,0.3l0.2,0.4m-4.35,-0.5l0.05,0l0,0.5l-0.2,1.55q-0.25,0.6 -0.25,1.85l-0.75,3.5l-0.25,1.25l-0.3,1.2l0,0.1l-0.5,0.45l0,-2.9l0.15,-0.65l0.2,-1.25l0.15,-0.85l0.8,-2.6l0.9,-2.15m3.85,2.9l-0.3,0.05l-0.05,-0.2l0.35,0.15" fill="#4a4a4a" fill-rule="evenodd" id="svg_4"/>
   <path d="m0.05,-0.4l0.15,0l0,0.6l-0.25,1.35l-0.6,1.7l-0.6,1.65l-0.5,1.45q0,0.7 -0.35,1.9l-0.15,2.1l0.1,1.3l-0.85,-1.55q-1.05,-2.05 -1.05,-2.8l0.7,-2.95l0.1,-0.3l0.05,-0.2l0.1,1.2l1.4,-5l1.5,-0.4l0.2,-0.05l0.05,0m0.65,1l0.2,-0.8l0.25,-0.85l0.2,-0.2l1,-1.05q0.15,0.6 0.55,1.05l-0.95,5.6l0,1.85l0.05,0q0.35,-1.75 1.1,-1.75l0.6,0.25l0,0.05l-0.05,0.2l0.15,0.35l-0.05,0.8l0.25,1l0.25,0.6l-0.3,0.45l-0.05,0l-0.15,0l-0.05,0q-0.85,0 -2.95,1.95l-0.85,0.75l-0.1,-0.1l0.15,-0.55q0,-0.8 0.5,-2.4l0.45,-2.7l0.15,-1.45l-0.05,-0.2l0.3,-2.05l0.1,-0.75l-0.1,-0.35q-0.35,0.1 -0.6,0.3" fill="#34462f" fill-rule="evenodd" id="svg_5"/>
  </g>
 </defs>
 <g class="layer">
  <title>Layer 1</title>
  <g id="svg_6" transform="matrix(1.0, 0.0, 0.0, 1.0, 7.8, 11.45)">
   <use height="21.1" id="svg_7" transform="matrix(1.0, 0.0, 0.0, 1.0, -4.7, -7.85)" width="11.9" xlink:href="#shape0"/>
  </g>
 </g>
</svg>