<?xml version="1.0"?>
<svg width="14.8" height="8" xmlns="http://www.w3.org/2000/svg" xmlns:svg="http://www.w3.org/2000/svg" xmlns:xlink="http://www.w3.org/1999/xlink">
 <defs>
  <g id="shape0" transform="matrix(1.0, 0.0, 0.0, 1.0, 6.75, 2.4)">
   <path d="m-1.2,1.2l0.1,-0.05q0.7,-0.35 0.7,-0.95q0,-1.4 -0.35,-2.1l0.35,0l2.25,0.15l0.25,0.05l-0.3,1.6l0.35,0.4l0.65,0.45l-0.1,-0.05l-0.85,0.05l-1.75,0.3l-1.3,0.15" fill="#517048" fill-rule="evenodd" id="svg_1"/>
   <path d="m2.8,0.75l-0.65,-0.45l-0.35,-0.4l0.3,-1.6l-0.25,-0.05l-2.25,-0.15l-0.35,0q0.35,0.7 0.35,2.1q0,0.6 -0.7,0.95l-0.1,0.05l-0.85,0.35l-0.45,0.7l-0.15,0.3l2.2,-0.3l0.9,-0.1l0.7,-0.1l1.55,-0.25l0.7,-0.15l-0.25,-0.35l-0.35,-0.55m-0.35,-2.35l-0.25,1.45l0.8,0.5q0.75,0.55 0.75,1.1l0,0.05l0.1,-0.1q0.7,-0.55 1.2,-0.75l0.15,-0.15l0.65,-0.1l0.05,0.15l-0.2,0.3q-0.1,0.4 -2.8,1.45l-6.6,0.8l-0.3,0l-0.15,0.1l-0.35,0l-0.1,0l-0.55,-0.15l-0.35,-0.3l0.75,-0.1l1.6,-0.1q0.05,-0.9 1.2,-1.45q1.15,-0.6 1.15,-0.85l-0.25,-2.1l0.05,-0.05l-0.05,0l-0.1,0l-2.75,0.3l-1.75,0.55l-0.05,0l0,-0.05l-0.05,0.05l-0.4,0.2l-0.25,0l-0.05,-0.1l0,-0.05l0.3,-0.4l0.7,-0.25l0.05,0l0.75,-0.25l3.5,-0.5l0.4,0l0.45,0l2.75,0.2l2.05,0.45l0,0.1l0.25,0.25q-0.05,0.15 -0.3,0.15l-1.3,-0.3l-0.6,-0.05l-0.05,-0.05l-0.05,0.05" fill="#000000" fill-rule="evenodd" id="svg_2"/>
   <path d="m3.75,1.45q0,-0.55 -0.75,-1.1l-0.8,-0.5l0.25,-1.45l0.1,0l0.6,0.05l1.3,0.3q0.25,0 0.3,-0.15l-0.25,-0.25l0,-0.1q0.05,-0.5 0.75,0.2q0.7,0.7 0.7,1.4l-0.1,0.55l-0.65,0.1l-0.15,0.15q-0.5,0.2 -1.2,0.75l-0.1,0.05m-10.2,-2.4l0.05,0.1l0.25,0l0.4,-0.2l0.05,0l0.05,0l1.75,-0.55l2.75,-0.3l0.1,0.05l0.25,2.1q0,0.25 -1.15,0.85q-1.15,0.55 -1.2,1.45l-1.6,0.1l-0.75,0.1l-0.05,0.05l-0.65,-0.85q-0.55,-1.05 -0.55,-1.9l0.3,-1" fill="#4a4a4a" fill-rule="evenodd" id="svg_3"/>
   <path d="m2.45,-1.6l0.05,-0.05l0.05,0.05l-0.1,0m-3.6,-0.3l0.1,0l0.05,0l-0.05,0.05l-0.1,-0.05m-4.35,4.65l0.35,0.3l0,0.05l-0.35,-0.25l-0.05,0l0.05,-0.1m9.35,-1.35l-0.1,0.1l0,-0.05l0.1,-0.05" fill="#2a2a2a" fill-rule="evenodd" id="svg_4"/>
   <path d="m-5.75,-1.05l0.05,-0.05l0,0.05l-0.05,0m0.6,4.1l0.55,0.15l0.1,0l-0.1,0l-0.55,-0.1l0,-0.05" fill="#666666" fill-rule="evenodd" id="svg_5"/>
   <path d="m-5.55,2.85l0,-0.05l0.05,-0.05l-0.05,0.1" fill="#353430" fill-rule="evenodd" id="svg_6"/>
   <path d="m-5.15,3.1l0,-0.05l0,0.05" fill="#858058" fill-rule="evenodd" id="svg_7"/>
   <path d="m-1.2,1.2l1.3,-0.15l1.75,-0.3l0.85,-0.05l0.1,0.05l0.35,0.55l0.25,0.35l-0.7,0.15l-1.55,0.25l-0.7,0.1l-0.9,0.1l-2.2,0.3l0.15,-0.3l0.45,-0.7l0.85,-0.35" fill="#34462f" fill-rule="evenodd" id="svg_8"/>
  </g>
 </defs>
 <g class="layer">
  <title>Layer 1</title>
  <g id="svg_9" transform="matrix(1.0, 0.0, 0.0, 1.0, 7.5, 3.8)">
   <use height="5.6" id="svg_10" transform="matrix(1.0, 0.0, 0.0, 1.0, -6.75, -2.4)" width="12.7" xlink:href="#shape0"/>
  </g>
 </g>
</svg>