<?xml version="1.0"?>
<svg width="23.95" height="15.1" xmlns="http://www.w3.org/2000/svg" xmlns:svg="http://www.w3.org/2000/svg" xmlns:xlink="http://www.w3.org/1999/xlink">
 <defs>
  <g id="shape0" transform="matrix(1.0, 0.0, 0.0, 1.0, 8.7, 5.4)">
   <path d="m0.55,-3.3q1.5,0.9 1.4,2.9l0,1.25q-1.9,-0.25 -3.7,-1q-1.95,-0.85 -1.95,-1.6l0.1,-0.7q-0.2,-0.45 -1.6,-0.55l-1.6,0.2l-0.55,0.65l-0.45,0q0.4,-1 1.4,-1.8q2.45,-2 6.95,0.65m3.4,3.2l0,-0.5q2,0.9 2.5,1.15l-0.35,0.3l-0.95,0.8l-0.9,0q-0.35,-0.5 -0.3,-1.75" fill="#171717" fill-rule="evenodd" id="svg_1"/>
   <path d="m0.55,-3.3q-4.5,-2.65 -6.95,-0.65q-1,0.8 -1.4,1.8l0.45,0l0.55,-0.65l1.6,-0.2q1.4,0.1 1.6,0.55l-0.1,0.7q0,0.75 1.95,1.6q1.8,0.75 3.7,1l0,-1.25q0.1,-2 -1.4,-2.9m2.9,1.65l0.45,0.55q0.8,0.1 3.05,1.3l0.65,0q1.7,1.4 1.7,2.6q0,0.75 -0.4,1.55q-0.6,1.1 -1.5,0.95l-2.9,0l-10.75,-2.65q-2.45,-0.95 -2.45,-3.35q0,-2.05 1.45,-3.55q2.3,-2.3 7,-0.05q1.4,0.45 2.2,1.25l1.5,1.4m0.5,1.55q-0.05,1.25 0.3,1.75l0.9,0l0.95,-0.8l0.35,-0.3q-0.5,-0.25 -2.5,-1.15l0,0.5m3.35,4.75l0.05,0q0.5,0.05 0.95,-0.75l0.4,-1.1l-0.55,-1.05l-0.9,-0.9q-0.2,0 -0.85,0.75q-0.45,0.5 -1.1,0.65l-0.5,0.05l-0.15,0l-0.05,0l-0.2,0l-0.05,0l-0.1,-0.05l-0.1,0l-0.55,-0.35q-0.35,-0.45 -0.3,-1.2q0.15,-1.75 -0.8,-1.95q0,1.95 0.35,2.85l0.35,1.2l0,0.15l-0.15,0.35l-0.9,0.5l0.7,0.4l1.8,0.45l2.65,0m-11.6,-6.55l-0.2,-0.25l-0.6,-0.2l-0.95,-0.1l-0.6,0.4l-0.35,0.45l-0.2,0.1l-0.8,0l-0.1,0.8q0,1.75 1.45,2.55q1.45,0.8 6.7,1.9l1.1,0l0.55,-0.5l0.55,-0.25l0.3,-0.2q-0.35,-0.45 -0.5,-1.3l-0.5,0q-1.7,0 -4.75,-1.7l-0.7,-0.5l-0.4,-0.7l0,-0.5" fill="#000000" fill-rule="evenodd" id="svg_2"/>
   <path d="m5.3,2.25q0.65,-0.15 1.1,-0.65q0.65,-0.75 0.85,-0.75l0.9,0.9l0.55,1.05l-0.4,1.1q-0.45,0.8 -0.95,0.75l-0.05,0l0.05,-0.25q0,-0.7 -1.15,-1.45l-0.9,-0.7m-2.1,0.7l0,-0.15l-0.35,-1.2q-0.35,-0.9 -0.35,-2.85q0.95,0.2 0.8,1.95q-0.05,0.75 0.3,1.2l-0.3,-0.65l0,0.25l0.2,1.45l-0.3,0" fill="#4a4a4a" fill-rule="evenodd" id="svg_3"/>
   <path d="m2.25,3l-0.25,-0.6q-0.3,-0.45 -0.75,-0.4l-2.5,-0.05q-0.65,-0.05 -1.95,-0.85l-1,-0.6l-0.25,-1l0.2,-1l-0.05,-0.4l0,0.5l0.4,0.7l0.7,0.5q3.05,1.7 4.75,1.7l0.5,0q0.15,0.85 0.5,1.3l-0.3,0.2m-7.35,-5.35l-0.2,0.55l-0.3,0.4l-0.2,0.35l0.15,0.85l-0.65,-0.35q-0.5,-0.4 -0.7,-1.05l0.35,-0.45l0.6,-0.4l0.95,0.1" fill="#517048" fill-rule="evenodd" id="svg_4"/>
   <path d="m-4.3,-1.9l0.05,0.4l-0.2,1l0.25,1l1,0.6q1.3,0.8 1.95,0.85l2.5,0.05q0.45,-0.05 0.75,0.4l0.25,0.6l-0.55,0.25l-0.55,0.5l-1.1,0q-5.25,-1.1 -6.7,-1.9q-1.45,-0.8 -1.45,-2.55l0.1,-0.8l0.8,0l0.2,-0.1q0.2,0.65 0.7,1.05l0.65,0.35l-0.15,-0.85l0.2,-0.35l0.3,-0.4l0.2,-0.55l0.6,0.2l0.2,0.25" fill="#34462f" fill-rule="evenodd" id="svg_5"/>
   <path d="m5.3,2.25l0.9,0.7q1.15,0.75 1.15,1.45l-0.05,0.25l-2.65,0l-1.8,-0.45l-0.7,-0.4l0.9,-0.5l0.15,-0.35l0.3,0l-0.2,-1.45l0,-0.25l0.3,0.65l0.55,0.35l0.1,0l0.1,0.05l0.05,0l0.2,0l0.05,0l0.15,0l0.5,-0.05" fill="#2c2c2c" fill-rule="evenodd" id="svg_6"/>
  </g>
 </defs>
 <g class="layer">
  <title>Layer 1</title>
  <g id="svg_7" transform="matrix(1.0, 0.0, 0.0, 1.0, 11.85, 7.8)">
   <use height="10.7" id="svg_8" transform="matrix(1.0, 0.0, 0.0, 1.0, -8.7, -5.4)" width="18" xlink:href="#shape0"/>
  </g>
 </g>
</svg>