<?xml version="1.0"?>
<svg width="14.95" height="29.25" xmlns="http://www.w3.org/2000/svg" xmlns:svg="http://www.w3.org/2000/svg" xmlns:xlink="http://www.w3.org/1999/xlink">
 <defs>
  <g id="shape0" transform="matrix(1.0, 0.0, 0.0, 1.0, 6.25, 13.15)">
   <path d="m5.3,-10.1l0.15,1.35q0,2.55 -2.4,4.6l-1.75,2.25l-1.3,2.3l-1.9,-3.4q-1.05,-1.85 -1.05,-3.2l-0.15,-1.4q0,-4.45 4.2,-4.75q1.6,-0.15 2.9,0.5q1.3,0.7 1.3,1.75m-10,23.05l-1.25,-1.75l0,-0.1l0.3,-0.15l0.05,-0.2l0.15,-0.8l0.15,-0.55l0.5,-4.35l0.45,0.45l1.75,1.8l0.85,1.8l0.35,0.3l-1.2,0.45q-1.05,0.25 -1.5,0.55q-0.25,0.15 -0.5,1.7l0,0.05l-0.05,0.35l-0.05,0.45m6.05,-2.8l-0.35,0.5l-0.7,-0.65l1.05,0.15" fill="#171717" fill-rule="evenodd" id="svg_1"/>
   <path d="m5.3,-10.1q0,-1.05 -1.3,-1.75q-1.3,-0.65 -2.9,-0.5q-4.2,0.3 -4.2,4.75l0.15,1.4q0,1.35 1.05,3.2l1.9,3.4l1.3,-2.3l1.75,-2.25q2.4,-2.05 2.4,-4.6l-0.15,-1.35m-11.25,21.2l-0.3,-0.6l0.35,-1.85l0.35,-1.6l0.25,-2.5l-0.5,-0.7l0.4,-1.65q0.35,-1.15 0.35,-1.85l0.35,-3.55l0.2,-1.25l1,-0.95l-0.05,-0.25l-0.15,-1.85q0,-5.5 4.85,-5.65q1.85,-0.1 3.3,0.85q1.5,1 1.5,2.4l0.25,2q0,0.9 -0.5,1.75q1,0.05 1,0.9q0,2.55 -1.6,8.7q-1.75,6.7 -3,6.7l-0.05,0l-0.2,0.25l-0.35,0.6l0.2,0.95q0,0.85 -0.9,1.95q-1.1,1.3 -2.6,1.3q-1.45,0 -2.3,-0.4l-0.7,-0.75l0.1,-1.1l0.05,-0.45l0.05,-0.35l0,-0.05q0.25,-1.55 0.5,-1.7q0.45,-0.3 1.5,-0.55l1.2,-0.45l-0.35,-0.3l-0.85,-1.8l-1.75,-1.8l-0.45,-0.45l-0.5,4.35l-0.15,0.55l-0.15,0.8l-0.05,0.2l-0.3,0.15m10.7,-16.15l-1.55,1.8l-1.55,2.55q-1.2,1.9 -1.6,1.9l-0.1,0l-0.5,-0.3l-0.45,-0.5l-0.15,-0.2l-0.5,-0.8l-1.25,-2.6l-0.4,-1.5l-0.05,-0.15l-0.15,0.15q-0.55,0.55 -0.6,1.3l-0.05,1.95l-0.2,1.55l-0.2,1.35l-0.15,0.6l-0.45,1.5q2.25,2.05 3,3.25q0.45,0.65 0.85,1.8l0.8,0.55l2.3,0.3q0.4,0 1,-1.25l-2.1,-2.4q0,-1.1 4.9,-7.05l0,-0.15l0.5,-3.05l0,-0.35l0,-0.1l-0.1,-0.55l-0.25,-0.05l-0.05,0l-0.45,0.15l-0.05,0.05l-0.2,0.1l-0.05,-0.05l-0.2,0.2m-6.15,5.9l0,0.1l-0.1,1.2l-0.05,0.1l-0.2,0.05l-0.4,-0.25l-0.4,-0.3l-0.35,-0.15l-0.45,-0.25q0,-1 -0.15,-1.05l0,-0.1l0.6,-0.15l0.45,0.05q0.95,0.2 1.05,0.75m-1.2,1.95l0.95,0.75q1.2,0.85 1.2,1.8l-0.05,1.55l-0.25,0.1l-3.5,-3.1l0.25,-1l-0.1,-0.2l-0.1,-0.25l0.2,-0.4l0.3,-0.4l0.8,0.9l0.3,0.25m3.9,2.9l0.85,1.05l0.85,0.9l0.4,-1.1l1.4,-4.2l0.7,-3.15l-1.95,2.65q-2.25,3.25 -2.25,3.85m-0.95,7.9l0,-0.05q0.8,-0.85 0.8,-1.65l-0.3,-0.65l-1.1,-0.85l-0.2,-0.15q-0.45,-0.4 -0.8,-0.25l-1.2,0.6q-0.75,0.25 -1.05,0.65l-0.25,0.65l-0.4,1.45l0,0.05l0,0.1l0,0.05l0.05,0.05l0,0.05l0.05,0.15l0.05,0.05q0.3,0.65 1.6,0.7l0.2,0l0.1,0q1.5,0 2.45,-0.95m1,-3.45l-1.05,-0.15l0.7,0.65l0.35,-0.5m-3.25,-9.25l-0.9,-0.2l-0.1,0.45l0.9,0.25l0.1,-0.5m0.9,5.2l0.05,-0.1q0,-1.2 -0.3,-1.45l-2.3,-1.55l-0.15,0.7q1.8,1.25 2.7,2.4" fill="#000000" fill-rule="evenodd" id="svg_2"/>
   <path d="m4.75,-5.05l0.2,-0.2l0.05,0.05l-0.25,0.15m0.45,-0.25l0.05,-0.05l0.45,-0.15l-0.2,0.05l-0.3,0.15m0.9,0.85l-0.5,3.05l0,0.15q-4.9,5.95 -4.9,7.05l2.1,2.4q-0.6,1.25 -1,1.25l-2.3,-0.3q0.7,-0.7 0.85,-2.8q0.35,-4.05 0.45,-4.2q2.05,-4.25 4.95,-5.95l0.25,-0.15l0.1,-0.5m-9,1.25l1.25,2.6l0.5,0.8l-0.25,0.6l0,0.05q-0.1,-0.55 -1.05,-0.75l-0.45,-0.05l0,-3.25m0.75,5.25l-0.45,0.75l-0.3,-0.25l0,-0.95l0.35,0.15l0.4,0.3" fill="#517048" fill-rule="evenodd" id="svg_3"/>
   <path d="m-0.45,10.25l0.2,0.15l1.1,0.85l0.3,0.65q0,0.8 -0.8,1.65l0,0.05l-0.45,-0.1q-1.9,-0.4 -1.9,-1q0,-0.85 0.8,-1.2q0.75,-0.4 0.75,-0.9l0,-0.15m1.75,-4.55q0,-0.6 2.25,-3.85l1.95,-2.65l-0.7,3.15l-1.4,4.2l-0.4,1.1l-0.85,-0.9l-0.85,-1.05m-3.5,8.85l-0.2,0l-0.25,-0.25l0.45,0.25m0.3,-13.65l-0.1,0.5l-0.9,-0.25l0.1,-0.45l0.9,0.2m0.9,5.2q-0.9,-1.15 -2.7,-2.4l0.15,-0.7l2.3,1.55q0.3,0.25 0.3,1.45l-0.05,0.1" fill="#4a4a4a" fill-rule="evenodd" id="svg_4"/>
   <path d="m-1.15,0.2l0.15,0.2l0.45,0.5l0.5,0.3l0.1,0q0.4,0 1.6,-1.9l1.55,-2.55l1.55,-1.8l0.25,-0.15l0.2,-0.1l0.3,-0.15l0.2,-0.05l0.05,0l0.25,0.05l0.1,0.55l0,0.1l0,0.35l-0.1,0.5l-0.25,0.15q-2.9,1.7 -4.95,5.95q-0.1,0.15 -0.45,4.2q-0.15,2.1 -0.85,2.8l-0.8,-0.55q-0.4,-1.15 -0.85,-1.8q-0.75,-1.2 -3,-3.25l0.45,-1.5l0.15,-0.6l0.2,-1.35l0.2,-1.55l0.05,-1.95q0.05,-0.75 0.6,-1.3l0.2,0l0.4,1.5l0,3.25l-0.6,0.15l0,0.1q0.15,0.05 0.15,1.05l0.45,0.25l0,0.95l-0.8,-0.9l-0.3,0.4l-0.2,0.4l0.1,0.25l0.1,0.2l-0.25,1l3.5,3.1l0.25,-0.1l0.05,-1.55q0,-0.95 -1.2,-1.8l-0.95,-0.75l0.45,-0.75l0.4,0.25l0.2,-0.05l0.05,-0.1l0.1,-1.2l0,-0.1l0,-0.05l0.25,-0.6" fill="#34462f" fill-rule="evenodd" id="svg_5"/>
   <path d="m-0.45,10.25l0,0.15q0,0.5 -0.75,0.9q-0.8,0.35 -0.8,1.2q0,0.6 1.9,1l0.45,0.1q-0.95,0.95 -2.45,0.95l-0.1,0l-0.45,-0.25l0.25,0.25q-1.3,-0.05 -1.6,-0.7l-0.05,-0.05l-0.05,-0.15l0,-0.05l-0.05,-0.05l0,-0.05l0,-0.1l0,-0.05l0.4,-1.45l0.25,-0.65q0.3,-0.4 1.05,-0.65l1.2,-0.6q0.35,-0.15 0.8,0.25" fill="#2a2a2a" fill-rule="evenodd" id="svg_6"/>
  </g>
 </defs>
 <g class="layer">
  <title>Layer 1</title>
  <g id="svg_7" transform="matrix(1.0, 0.0, 0.0, 1.0, 7.7, 13.7)">
   <use height="28.35" id="svg_8" transform="matrix(1.0, 0.0, 0.0, 1.0, -6.25, -13.15)" width="12.95" xlink:href="#shape0"/>
  </g>
 </g>
</svg>