<?xml version="1.0"?>
<svg width="1187" height="288.5" xmlns="http://www.w3.org/2000/svg" xmlns:svg="http://www.w3.org/2000/svg" xmlns:xlink="http://www.w3.org/1999/xlink">
 <defs>
  <g id="shape0" transform="matrix(1.0, 0.0, 0.0, 1.0, 19.05, 9.15)">
   <path d="m1.6,-5.6l0.05,0.2l2.2,0.25q0.7,0.65 1.15,0.65q0.5,0 1,-0.35l0.65,-0.65l0.3,-1.3q0,-0.6 -0.5,-0.9l-1.15,-0.25l-1.95,-0.2l-2.6,0.25l-0.7,0.6l-0.2,-0.05l0,-0.05q0.35,-0.15 0.3,-0.65l0.05,-0.05l0.25,-0.1l2.25,-0.25l4.35,0.45q0.4,0.25 0.4,0.95l-0.1,1.55l0.05,0.25l-0.05,0.15q0,0.25 0.2,0.3l0.45,0.4l1.5,-0.15l0.5,-0.45l-0.15,0.3l-0.55,1.25l-0.05,0.05l-1.1,4.1q-0.3,1.15 -0.65,1.15l-0.55,-0.05l-0.1,-0.3l0.2,0.1l0.65,-0.6l0.45,-1.7q0.4,-1.35 0.4,-2.15q-0.1,-0.9 -0.55,-0.9q-0.35,0 -0.75,-0.85q-0.3,-0.65 -0.95,-0.1l-0.45,0.3l-0.25,0.3q-0.3,0.6 -0.3,0.95l0.15,0.2l0.1,-0.05l-0.05,1.2q0,0.65 0.35,1.1l0.4,0.95q-0.65,-1.05 -1.3,-1.5q-1.2,-0.85 -3.85,-0.85l-3.15,0.5l-0.3,0.85q-1.15,0.65 -2.95,0.7l-1.4,0.2l0,0.05l-0.2,-0.1l-1.45,-0.35q-3,0 -4.65,1.85q-0.85,0.95 -1.1,1.85q-0.85,0 -1,-0.55l-0.6,-1.5l-1.5,-2.1l0.35,-1.05l0.05,0l0.4,-0.95l0.25,-0.6l0.25,-0.05l0,0.05l0.1,0l0.05,0.05q0.65,0.7 2.1,0.7l0.95,-0.15l0.05,0.05q-0.5,0.65 -0.5,1.2q0.2,1.35 0.6,1.35l0.15,0l0.95,0.1l0.8,-0.1q0.45,0 0.9,-0.9l0.6,-1.25l0.35,-0.25l0.05,0.2q0.4,0.35 1.85,0.35q0.65,0 1.35,-0.95l0.55,-0.85l-0.15,0.75q0,0.6 1.25,0.6q0.85,0 1.3,-0.65q0.3,-0.45 0.3,-0.9l-0.05,-0.5q-0.15,-0.4 -0.9,-0.4q-1.1,0 -1.6,0.8l-0.1,0.2l-0.2,-0.4q-0.25,-0.3 -0.85,-0.3l-1.25,0.15l-0.1,-0.2l-1.25,-0.15q-1.3,0 -2.35,0.55l0.65,-0.6l2.2,-0.75l4.85,-0.25l0.35,-0.05l4.5,0.2l0,0.05m0.6,0.7l-0.6,-0.1l-0.5,0.1l-0.25,0.35l-0.25,0.55q-0.2,0.8 1.3,0.8l0.45,-0.45l0.15,-0.55q0,-0.7 -0.3,-0.7m32.1,4.95l-0.7,0.15l-8.45,0.4l-8.4,-0.55l-0.15,-0.1l-0.05,0.1l-1.6,0.1l0,-0.15l-0.1,-0.05l0.15,-0.45l0.1,0.05l0.1,-0.15l0.45,-0.05l0.3,0l0.3,0.05l8.8,0.5l7.95,-0.35q1.7,0 1.4,0.3l-0.05,0.15l-0.05,0.05m-18.1,-3.6l0.1,-0.3l18.9,-0.4l-0.1,0.45l-18.9,0.25m-0.35,1.05l0.45,0.1l1.3,-0.1l1.45,0.2l1.55,-0.15l2.25,0.25l12.05,-0.2l0,0.1l0.05,0.1q0,0.3 -1.15,0.3l-11.5,0.15l-5.1,-0.35l-1,0.15l-0.25,0.15l-0.2,-0.2l0.05,-0.15l-0.15,0.05l0.2,-0.4m-12.75,4.5l0.15,0.05q-0.3,0.65 -0.85,2.75q-0.75,2.9 -1,4.65l-2.8,0l-0.65,-0.1l0,-0.1q0.45,-1.25 1.2,-4.8l0.7,-3.65l0.65,0.15q-0.25,0.3 0,1.1l-1.2,5.8q0,0.7 1.2,0.7l0.35,-0.2q0,-0.15 -0.55,-0.3l-0.6,-0.25l1.25,-6.35l-0.05,-0.45l0.1,0q0.7,0.1 1.4,0.5l0.7,0.5m-4.85,-6.45l-0.25,0.65q-0.2,0.9 1.05,0.9q0.45,0 0.75,-0.55l0.25,-0.65q0,-0.8 -0.65,-0.8q-0.75,0 -1.15,0.45m-0.75,9.8l0.85,0.7l-0.1,0.35l-0.75,-0.6l-1.7,-1.05q-1.15,-0.7 -3.75,-0.95l-4,0.2l0,-0.05l0.15,-0.55q0,-0.55 0.9,-1.15l0.25,-0.15l1.1,0.6q1.4,0.55 2.5,0.55q0.45,0 0.45,-0.8l-0.05,-0.3l2.45,-0.35l0.65,2.35l1.05,1.2" fill="#292b2c" fill-rule="evenodd" id="svg_1"/>
   <path d="m6.05,-7.1q0,-0.5 -2.3,-0.5l-2.6,0.35l-0.75,0.45l-1.2,0l0,-0.4q0.35,-0.2 0.5,-0.95l0.65,-0.35l0.1,-0.1l5.4,-0.15q1.4,0 1.8,0.75l0.2,1.25l0,0.65l2.6,-0.3l0.15,0.05l0.05,-0.15l0.15,0.05l2.05,0l0,0.05l0.2,0.2l1.1,0.05l0.45,-0.15l1.7,-0.2l0.9,0.25l-0.25,0.8l15.55,0.15l1.6,0.15l2,-0.1l0.1,0.05l3.6,-0.15l0.4,0.05l0.05,0.1q0.7,0.1 0.9,0.4l-0.6,1.3q-0.55,0.75 -1.4,1l-1.05,1.75l-0.3,1.15q-0.25,0.5 -1.4,0.5l-0.05,0q-0.45,0.45 -1.6,0.85q-1.1,0.4 -1.8,0.4l-0.8,-0.2l-0.3,-0.8l0.3,0q0.35,-0.15 0.85,-0.35l-8.3,0.2l-7.05,-0.35l0.15,0.1l-0.85,-0.05l-0.2,-0.1l-2,-0.1l-0.15,0.2l-0.3,0.3l-0.1,0l-1,0.25l-0.15,0l-1.05,0.25l-0.4,0.75l-1.2,0l0,-0.1l-0.1,0.35q0,1.1 -0.75,1.3l-2.5,0.05l-2.8,1.75l-2.05,2l-0.25,1.7q-0.1,0.55 -2,0.55l-2.4,-0.15l-0.05,-0.25l0.65,-2.6l-1.9,-1.25q-2.25,-1.45 -6.35,-1.45l-1.3,0.15l-0.65,0.15l-0.1,0l-0.05,0.1q-0.4,0.95 -0.65,0.95l-0.35,-0.05l-0.1,0l-1.65,-0.3l-0.55,0.1l-1.05,-0.25l-0.15,0l-0.05,-0.15l-0.05,-0.35q0,-1.25 -0.7,-1.95l-0.9,-1.4l-0.65,-1.35l0.95,-3.35q0.25,-0.7 1.85,-0.7l0.4,0.35l0.15,0.25l0.8,-0.65q0.45,-0.35 0.55,-0.45q0.15,-0.15 0.15,-0.35q0,-1.35 -0.65,-1.35l-2.3,-1.05l0.1,-0.8l0,-0.15l-0.15,-0.05l0,-0.3l2.3,-0.35l0.5,0.35l0.3,0.4l0.75,0.7l2.65,0.6l0.05,0.15l-0.25,0.45l-0.95,0.15l1,1.45l0.55,-0.45l1.95,-0.5l11.65,-0.35l0.15,0.05q0.85,0.15 1.05,0.5l0.15,0.2l1.3,-0.4l0,-0.15l0.1,-0.95l0,-0.15m0.8,8.6l0.1,0.3l0.55,0.05q0.35,0 0.65,-1.15l1.1,-4.1l0.05,-0.05l0.55,-1.25l0.15,-0.3l-0.5,0.45l-1.5,0.15l-0.45,-0.4q-0.2,-0.05 -0.2,-0.3l0.05,-0.15l-0.05,-0.25l0.1,-1.55q0,-0.7 -0.4,-0.95l-4.35,-0.45l-2.25,0.25l-0.25,0.1l-0.05,0.05q0.05,0.5 -0.3,0.65l0,0.05l0.2,0.05l0.7,-0.6l2.6,-0.25l1.95,0.2l1.15,0.25q0.5,0.3 0.5,0.9l-0.3,1.3l-0.65,0.65q-0.5,0.35 -1,0.35q-0.45,0 -1.15,-0.65l-2.2,-0.25l-0.05,-0.2l0.25,-0.05l-0.25,0l-4.5,-0.2l-0.35,0.05l-4.85,0.25l-2.2,0.75l-0.65,0.6l-1.15,0.85l-0.55,0.65l-0.05,0l-0.95,0.15q-1.45,0 -2.1,-0.7l-0.05,-0.05l-0.1,0l0,-0.05l-0.25,0.05l-0.25,0.6l-0.4,0.95l-0.05,0l-0.35,1.05l1.5,2.1l0.6,1.5q0.15,0.55 1,0.55q0.25,-0.9 1.1,-1.85q1.65,-1.85 4.65,-1.85l1.45,0.35l0.2,0.1l0,-0.05l1.4,-0.2q1.8,-0.05 2.95,-0.7l0.3,-0.85l3.15,-0.5q2.65,0 3.85,0.85q0.65,0.45 1.3,1.5l0.15,0.45l0.45,0.8m-5.85,-5.6l0.4,-0.55l0.8,0.2q0,0.8 -0.65,0.8l-0.5,-0.15l-0.05,-0.3m0.3,0.05l0.05,0.1l0.35,0l0.2,-0.15q-0.25,-0.25 -0.55,-0.15l-0.05,0.2m-10.7,5.1l0.95,-0.15l0.5,0.2l0.05,0.05l0.05,0.15l1.15,0.1l5.45,-0.5l0.7,-0.65q0.1,-0.15 0.3,-0.2l0.05,-0.1l0.1,0l0.2,-0.05l1.85,-0.1l0,0.15l0.7,-0.05l1.3,0.15l0.8,0.4l0.1,0.1l0.05,0.1l0.1,0.15q0.3,0.05 0.4,0.75l0.6,1.7l1.65,0.05q1.45,0 2.15,-0.4l0.05,0l1.75,-6.05l0.1,-0.25l0.4,-1.45l-0.05,-0.05l0.1,-0.15l0,-0.1l0.25,-0.6l-1.7,0l-0.05,0.05l-1,2.3l0,0.05l-1.1,4.3q-0.35,1.3 -1.05,1.3q-0.95,0 -1.3,-0.75l-0.55,-1.45q-1,-1.7 -4.55,-1.7q-2.45,0 -2.85,0.55q-0.15,0.55 -0.45,0.8q-0.15,0.2 -2,0.5l-2.2,0.25l-0.25,0.2l-0.55,-0.25l-0.4,-0.25q-3.85,0 -5.25,1.9l-1.05,1.9l-1.15,-0.35l-0.4,-0.3l-0.05,-0.35l-0.5,-1.25l-0.9,-1.15q-0.7,-0.75 -0.7,-1.2q0.1,-1.25 0.5,-1.55l0.45,-1.1l0.1,-0.1l-0.05,-0.1l0.3,-0.25l0.15,-0.15l-0.05,-0.1l-0.55,0.1q-0.8,-0.35 -1.45,1.4q-0.6,1.4 -0.6,2.35l1.15,1.85q1.1,1.55 1.1,2.45l0.05,0.55l1.45,0l0.5,0.05l1.5,0.4l0.75,-1.3l0.3,-1l0.05,-0.1l0.05,-0.05q0.3,-1 2.1,-1.5l0.35,-0.1l0.05,0l0,-0.05m19.35,-6.4l0.05,-0.05l0.1,-0.3q-1.95,0 -2.25,0.45l0,0.2l0.1,0.05l-0.05,0.05l1.1,0.15q0.6,-0.15 0.95,-0.55m-1.6,2.15l-0.6,2.55q-0.35,0.95 -0.35,1.3l0.1,0.25l-0.05,0.2l-0.15,0q-0.25,0 -0.4,-0.65l-0.15,-0.75q-0.8,-0.85 -0.8,-1.2l0.1,-1.25l-0.1,-1.15l0.3,-0.35q0.35,-0.3 0.65,-0.3q-0.05,0.35 0.4,0.9l0.2,0.2l0.5,0.1l0.35,0.15m-1.7,-0.9l-0.35,0.25l0,1.75l0.1,0.1l-0.15,0.5l0.9,1.55l0.65,-2.1l-0.1,-0.1l0.25,-0.85l-0.15,0q-0.4,0 -0.8,-0.5l-0.35,-0.6m7,-1.5l-0.65,-0.05l-0.9,2.2l0,0.05l-0.2,0.5l0.05,0.1l-0.85,2.7l0,0.15l0.05,0.05l-0.5,1.75l1.05,-0.85q0.3,-0.4 2.15,-0.4q0.4,0 0.4,-0.65l0.05,-0.3l0.2,-0.6l0.8,-1.85l0.1,-0.1l0.35,-1.35l0,-0.05l0.5,-1.35l0,-0.05l-0.25,0l-0.85,-0.1l-1.5,0.2m20.7,5.6l0.05,-0.15q0.3,-0.3 -1.4,-0.3l-7.95,0.35l-8.8,-0.5l-0.3,-0.05l-0.3,0l-0.45,0.05l-0.1,0.15l-0.1,-0.05l-0.15,0.45l0.1,0.05l0,0.15l1.6,-0.1l0.05,-0.1l0.15,0.1l8.4,0.55l8.45,-0.4l0.7,-0.15l0.05,0l0,-0.05m-17.9,-6.1l0.05,-0.05l-0.1,0l0.05,0.05m-0.4,2.95l-0.05,0.2l0.1,0l6.1,0.35l12.7,-0.25l0,-0.15l0.05,-0.35l-15.3,-0.2l-3.2,0.4l-0.4,0m0.15,-0.4l18.9,-0.25l0.1,-0.45l-18.9,0.4l-0.1,0.3m0.25,-0.7l3.1,-0.45l15.8,0l0,-0.2l-7.85,0.05l0.6,-0.1l-11.3,-0.15l-0.35,0.85m-0.6,1.75l-0.2,0.4l0.15,-0.05l-0.05,0.15l0.2,0.2l0.25,-0.15l1,-0.15l5.1,0.35l11.5,-0.15q1.15,0 1.15,-0.3l-0.05,-0.1l0,-0.1l-12.05,0.2l-2.25,-0.25l-1.55,0.15l-1.45,-0.2l-1.3,0.1l-0.45,-0.1m-0.6,1.35l19.3,0.35l0.25,-0.9l-12.95,0.35l-6.4,-0.3l-0.2,0.5m23.2,-1.95q0.6,0 1.1,-0.35l0.75,-1.25l-0.35,-0.1l-1.5,1.7m-2.3,-1.35l-0.4,1.1l-0.1,0.5l0.05,0.25l-0.7,2.3l-0.5,0.9l-1.4,0.8l-0.05,0.1l0.45,0.2l0.45,-0.05l0.15,0l0.7,-0.25q1.2,-0.4 1.35,-0.95l1.45,-3.6l1.2,-1.35l-1.7,-0.15l-0.95,0.2m1.85,1.95l-0.75,1.25l-0.65,1.7l0.55,-0.5l1.45,-2.4l-0.15,0l-0.45,-0.05m-32.9,5.75l0.4,-0.1l-0.15,-0.45l-0.2,0.4l-0.05,0.15m0.45,0.2l-2.65,1.75l-0.6,1.85q2.5,-2.45 3.75,-3.25l-0.45,-0.15l-0.05,-0.2m-5.2,-3.1q1.7,0.85 2.4,0.85l1.3,0.75q0.3,0.05 0.4,0.45l0.2,0.4l0,0.05l0.1,0.1l0.35,-0.85l-0.15,-0.65l-0.15,-0.35l-0.85,-0.7l-2.6,-0.35l-0.85,0.15l-0.15,0l0,0.05l-0.05,0.1l0.05,0m2.75,1.65l-0.7,-0.5q-0.7,-0.4 -1.4,-0.5l-0.1,0l0.05,0.45l-1.25,6.35l0.6,0.25q0.55,0.15 0.55,0.3l-0.35,0.2q-1.2,0 -1.2,-0.7l1.2,-5.8q-0.25,-0.8 0,-1.1l-0.65,-0.15l-0.7,3.65q-0.75,3.55 -1.2,4.8l0,0.1l0.65,0.1l2.8,0q0.25,-1.75 1,-4.65q0.55,-2.1 0.85,-2.75l-0.15,-0.05m1,0.5l-0.4,-0.3l-0.15,0.95l0.6,-0.55l-0.05,-0.1m0.7,0.9q-0.35,0 -0.5,-0.3l-0.8,0.5l-0.1,0l-0.3,1.05q1.05,-0.9 1.7,-1.25m-15.9,-10.2l-1,-0.15q-0.85,0 -1.8,-0.9l-0.95,-0.95l-1.8,0.3l-0.1,0.25l0.1,0.15l-0.2,0.55l2.45,1.05q0.5,0.35 0.5,1.45q0,0.55 -0.6,0.95q-0.3,0.25 -1,0.75l0.75,0.45l1.2,0.05l0.75,-0.1q0.05,-0.75 1.55,-1.65l0.1,-0.05q-0.55,-0.35 -1.05,-1.75l1.1,-0.35l0.05,-0.05l-0.05,0m-0.35,3.65l0.3,-0.25q1.55,-1.15 2.95,-1.15q0.6,0 0.6,0.2l-2.05,1.9l-0.7,1.05q-0.65,0.75 -1.25,0.75l-1,-0.1l-0.05,0l-0.05,-0.3l0.15,-0.7l1.05,-1.35l0.05,-0.05m-0.3,2.15q0.6,0 1.15,-0.65l0.55,-0.85l1.75,-1.65l0.05,-0.1q-3.4,0.55 -4.15,3.15l0.65,0.1m6.5,-2.9l-0.5,0.85q-0.55,0.7 -1.05,0.7q-1.55,0 -1.65,-0.5l0,-0.15l0.4,-0.75l0.25,-0.2l1.8,-0.35q0.75,0 0.75,0.4m-1.4,-0.05q-0.95,-0.2 -1.5,1.05l0.9,0.2q0.8,0 1.15,-0.3l0.5,-0.95l-1.05,0m6.05,0.5q-0.2,0.2 -0.35,0.2q-0.8,0 -0.8,-0.5q0,-0.8 0.85,-0.8q0.5,0 0.55,0.2l0,0.4l-0.15,0.3l0,0.05l-0.05,0l-0.05,0.15m-0.05,-0.75l-0.55,0.1l-0.25,0.3l0.3,0.2q0.2,0 0.35,-0.1l0.15,-0.25l0,-0.25m-3.25,1.05q0.9,0 0.9,-0.8q0,-0.4 -0.7,-0.15q-0.7,0.25 -0.7,0.65q0,0.3 0.5,0.3m0.65,0.2l-0.5,0.15l-0.15,0q-0.4,0 -0.65,-0.3l-0.15,-0.35l0.3,-0.65q0.45,-0.45 1.2,-0.45q0.45,0 0.5,0.55l0,0.25l-0.3,0.55l-0.25,0.25m2.4,4.85l0.2,-0.85l-0.8,0.4l0.6,0.45m-1.2,-0.35l-1.8,0.2l0.05,0.2q0.55,-0.05 2.75,1.15l0.1,-0.65l0.05,-0.1l-1.15,-0.8m-1.65,0.85l0.3,0.95q0.45,-0.05 2.1,1.05l0.15,-0.9l-2.55,-1.2l0,0.1m2.35,2.4l-1.9,-1.05l1.75,1.8l0.15,-0.75m-1.15,0.55l-1.05,-1.2l-0.65,-2.35l-2.45,0.35l0.05,0.3q0,0.8 -0.45,0.8q-1.1,0 -2.5,-0.55l-1.1,-0.6l-0.25,0.15q-0.9,0.6 -0.9,1.15l-0.15,0.55l0,0.05l4,-0.2q2.6,0.25 3.75,0.95l1.7,1.05l0.75,0.6l0.1,-0.35l-0.85,-0.7m-4.6,-3.2l-0.8,-0.1l-0.4,-0.4l-0.3,-0.1l-1.5,0.3l0.75,0.45l2.3,0.55l0.05,-0.35l-0.1,-0.35" fill="#000000" fill-rule="evenodd" id="svg_2"/>
   <path d="m1.6,-5.6l0,-0.05l0.25,0l-0.25,0.05m-11.05,6.7l0.05,-0.05l0,0.05l-0.05,0" fill="#787186" fill-rule="evenodd" id="svg_3"/>
   <path d="m-10.95,-4.2q1.05,-0.55 2.35,-0.55l1.25,0.15l0.1,0.2l1.25,-0.15q0.6,0 0.85,0.3l0.2,0.4l0.1,-0.2q0.5,-0.8 1.6,-0.8q0.75,0 0.9,0.4l0.05,0.5q0,0.45 -0.3,0.9q-0.45,0.65 -1.3,0.65q-1.25,0 -1.25,-0.6l0.15,-0.75l-0.55,0.85q-0.7,0.95 -1.35,0.95q-1.45,0 -1.85,-0.35l-0.05,-0.2l-0.35,0.25l-0.6,1.25q-0.45,0.9 -0.9,0.9l-0.8,0.1l-0.95,-0.1l-0.15,0q-0.4,0 -0.6,-1.35q0,-0.55 0.5,-1.2l0,-0.05l0.55,-0.65l1.15,-0.85m17.2,4.45l-0.4,-0.95q-0.35,-0.45 -0.35,-1.1l0.05,-1.2l-0.1,0.05l-0.15,-0.2q0,-0.35 0.3,-0.95l0.25,-0.3l0.45,-0.3q0.65,-0.55 0.95,0.1q0.4,0.85 0.75,0.85q0.45,0 0.55,0.9q0,0.8 -0.4,2.15l-0.45,1.7l-0.65,0.6l-0.2,-0.1l-0.45,-0.8l-0.15,-0.45m-4.05,-5.15q0.3,0 0.3,0.7l-0.15,0.55l-0.45,0.45q-1.5,0 -1.3,-0.8l0.25,-0.55l0.25,-0.35l0.5,-0.1l0.6,0.1m-1.2,0.8l0.05,0.3l0.5,0.15q0.65,0 0.65,-0.8l-0.8,-0.2l-0.4,0.55m7.35,0.9l-0.35,-0.15l-0.5,-0.1l-0.2,-0.2q-0.45,-0.55 -0.4,-0.9q-0.3,0 -0.65,0.3l-0.3,0.35l0.1,1.15l-0.1,1.25q0,0.35 0.8,1.2l0.15,0.75q0.15,0.65 0.4,0.65l0.15,0l0.05,-0.2l-0.1,-0.25q0,-0.35 0.35,-1.3l0.6,-2.55m-19.8,0.05l-0.05,0.05l-1.05,1.35l-0.15,0.7l0.05,0.3l0.05,0l1,0.1q0.6,0 1.25,-0.75l0.7,-1.05l2.05,-1.9q0,-0.2 -0.6,-0.2q-1.4,0 -2.95,1.15l-0.3,0.25m6.2,-0.75q0,-0.4 -0.75,-0.4l-1.8,0.35l-0.25,0.2l-0.4,0.75l0,0.15q0.1,0.5 1.65,0.5q0.5,0 1.05,-0.7l0.5,-0.85m3.5,-0.55q0.4,-0.45 1.15,-0.45q0.65,0 0.65,0.8l-0.25,0.65q-0.3,0.55 -0.75,0.55q-1.25,0 -1.05,-0.9l0.25,-0.65m1.25,0.85l0,-0.05l0.15,-0.3l0,-0.4q-0.05,-0.2 -0.55,-0.2q-0.85,0 -0.85,0.8q0,0.5 0.8,0.5q0.15,0 0.35,-0.2l0.05,-0.1l0.05,-0.05m-2.2,-0.15l0,-0.25q-0.05,-0.55 -0.5,-0.55q-0.75,0 -1.2,0.45l-0.3,0.65l0.15,0.35q0.25,0.3 0.65,0.3l0.15,0l0.5,-0.15l0.15,-0.1q0.35,-0.25 0.4,-0.7" fill="#cc2222" fill-rule="evenodd" id="svg_4"/>
   <path d="m1.3,-4.05l0.05,-0.2q0.3,-0.1 0.55,0.15l-0.2,0.15l-0.35,0l-0.05,-0.1m5.35,-0.05l0.35,0.6q0.4,0.5 0.8,0.5l0.15,0l-0.25,0.85l0.1,0.1l-0.65,2.1l-0.9,-1.55l0.15,-0.5l-0.1,-0.1l0,-1.75l0.35,-0.25m-18.4,3.1l-0.65,-0.1q0.75,-2.6 4.15,-3.15l-0.05,0.1l-1.75,1.65l-0.55,0.85q-0.55,0.65 -1.15,0.65m5.1,-2.95l1.05,0l-0.5,0.95q-0.35,0.3 -1.15,0.3l-0.9,-0.2q0.55,-1.25 1.5,-1.05m2.75,0.8q-0.5,0 -0.5,-0.3q0,-0.4 0.7,-0.65q0.7,-0.25 0.7,0.15q0,0.8 -0.9,0.8m3.25,-1.05l0,0.25l-0.15,0.25q-0.15,0.1 -0.35,0.1l-0.3,-0.2l0.25,-0.3l0.55,-0.1" fill="#ffffff" fill-rule="evenodd" id="svg_5"/>
   <path d="m-9.45,1.1l-0.35,0.1q-1.8,0.5 -2.1,1.5l-0.05,0.05l-0.05,0.1l-0.3,1l-0.75,1.3l-1.5,-0.4l-0.5,-0.05l-1.45,0l-0.05,-0.55q0,-0.9 -1.1,-2.45l-1.15,-1.85q0,-0.95 0.6,-2.35q0.65,-1.75 1.45,-1.4l0.55,-0.1l0.05,0.1l-0.15,0.15l-0.3,0.25l0.05,0.1l-0.1,0.1l-0.45,1.1q-0.4,0.3 -0.5,1.55q0,0.45 0.7,1.2l0.9,1.15l0.5,1.25l0.05,0.35l0.4,0.3l1.15,0.35l1.05,-1.9q1.4,-1.9 5.25,-1.9l0.4,0.25l0.55,0.25l0.25,-0.2l2.2,-0.25q1.85,-0.3 2,-0.5q0.3,-0.25 0.45,-0.8q0.4,-0.55 2.85,-0.55q3.55,0 4.55,1.7l0.55,1.45q0.35,0.75 1.3,0.75q0.7,0 1.05,-1.3l1.1,-4.3l0,-0.05l1,-2.3l0.05,-0.05l1.7,0l-0.25,0.6l0,0.1l-0.1,0.15l0.05,0.05l-0.4,1.45l-0.1,0.25l-1.75,6.05l-0.05,0q-0.7,0.4 -2.15,0.4l-1.65,-0.05l-0.6,-1.7q-0.1,-0.7 -0.4,-0.75l-0.1,-0.15l-0.05,-0.1l-0.1,-0.1l-0.8,-0.4l-1.3,-0.15l-0.7,0.05l0,-0.15l-1.85,0.1l-0.2,0.05l-0.1,0l-0.05,0.1q-0.2,0.05 -0.3,0.2l-0.7,0.65l-5.45,0.5l-1.15,-0.1l-0.05,-0.15l-0.05,-0.05l-0.5,-0.2l-0.95,0.15l-0.05,0.05" fill="#361f1f" fill-rule="evenodd" id="svg_6"/>
   <path d="m9.95,-5.35q-0.35,0.4 -0.95,0.55l-1.1,-0.15l0.05,-0.05l-0.1,-0.05l0,-0.2q0.3,-0.45 2.25,-0.45l-0.1,0.3l-0.05,0.05m3.7,-0.25l1.5,-0.2l0.85,0.1l0.25,0l0,0.05l-0.5,1.35l0,0.05l-0.35,1.35l-0.1,0.1l-0.8,1.85l-0.2,0.6l-0.05,0.3q0,0.65 -0.4,0.65q-1.85,0 -2.15,0.4l-1.05,0.85l0.5,-1.75l-0.05,-0.05l0,-0.15l0.85,-2.7l-0.05,-0.1l0.2,-0.5l0,-0.05l0.9,-2.2l0.65,0.05m22.5,1.15l0.95,-0.2l1.7,0.15l-1.2,1.35l-1.45,3.6q-0.15,0.55 -1.35,0.95l-0.7,0.25l-0.15,0l-0.45,0.05l-0.45,-0.2l0.05,-0.1l1.4,-0.8l0.5,-0.9l0.7,-2.3l-0.05,-0.25l0.1,-0.5l0.4,-1.1m-35.8,4.7l0,-0.05l0.15,0l0.85,-0.15l2.6,0.35l0.85,0.7l0.15,0.35l0.15,0.65l-0.35,0.85l-0.1,-0.1l0,-0.05l-0.2,-0.4q-0.1,-0.4 -0.4,-0.45l-1.3,-0.75q-0.7,0 -2.4,-0.85l0,-0.1m-11.45,-7l-1.1,0.35q0.5,1.4 1.05,1.75l-0.1,0.05q-1.5,0.9 -1.55,1.65l-0.75,0.1l-1.2,-0.05l-0.75,-0.45q0.7,-0.5 1,-0.75q0.6,-0.4 0.6,-0.95q0,-1.1 -0.5,-1.45l-2.45,-1.05l0.2,-0.55l-0.1,-0.15l0.1,-0.25l1.8,-0.3l0.95,0.95q0.95,0.9 1.8,0.9l1,0.15l0,0.05" fill="#4e4f54" fill-rule="evenodd" id="svg_7"/>
   <path d="m16.05,-3.15l0.4,0l3.2,-0.4l15.3,0.2l-0.05,0.35l0,0.15l-12.7,0.25l-6.1,-0.35l-0.1,0l0.05,-0.2m0.4,-1.1l0.35,-0.85l11.3,0.15l-0.6,0.1l7.85,-0.05l0,0.2l-15.8,0l-3.1,0.45m22,1.15l1.5,-1.7l0.35,0.1l-0.75,1.25q-0.5,0.35 -1.1,0.35m-23.2,1.95l0.2,-0.5l6.4,0.3l12.95,-0.35l-0.25,0.9l-19.3,-0.35m22.75,-1.35l0.45,0.05l0.15,0l-1.45,2.4l-0.55,0.5l0.65,-1.7l0.75,-1.25" fill="#c1c2c6" fill-rule="evenodd" id="svg_8"/>
   <path d="m5.55,3.45l0.05,0.2l0.45,0.15q-1.25,0.8 -3.75,3.25l0.6,-1.85l2.65,-1.75m-1.45,-0.95l0.05,0.1l-0.6,0.55l0.15,-0.95l0.4,0.3m-6.15,-0.95l1.15,0.8l-0.05,0.1l-0.1,0.65q-2.2,-1.2 -2.75,-1.15l-0.05,-0.2l1.8,-0.2m0.7,3.25l-0.15,0.75l-1.75,-1.8l1.9,1.05" fill="#674343" fill-rule="evenodd" id="svg_9"/>
   <path d="m-0.5,-3.6l-0.05,0.05l-0.05,0.1l0.05,-0.15l0.05,0m-2.2,-0.15q-0.05,0.45 -0.4,0.7l-0.15,0.1l0.25,-0.25l0.3,-0.55" fill="#2b2b2b" fill-rule="evenodd" id="svg_10"/>
  </g>
 </defs>
 <g class="layer">
  <title>Layer 1</title>
  <g id="svg_11" transform="matrix(10.0, 0.0, 0.0, 10.0, 305.0, 144.0)">
   <use height="19" id="svg_12" transform="matrix(1.0, 0.0, 0.0, 1.0, -19.05, -9.15)" width="60.2" xlink:href="#shape0"/>
  </g>
 </g>
</svg>