<?xml version="1.0"?>
<svg width="1187" height="288.5" xmlns="http://www.w3.org/2000/svg" xmlns:svg="http://www.w3.org/2000/svg" xmlns:xlink="http://www.w3.org/1999/xlink">
 <defs>
  <g id="shape0" transform="matrix(1.0, 0.0, 0.0, 1.0, 19.95, 11.25)">
   <path d="m5.6,-6.9l-0.8,-0.95l-1.15,-0.7l-0.8,-0.7l-0.15,-0.1l-0.35,-0.2l-0.45,-0.2l-0.75,-0.4l-0.65,-0.05l-0.2,0.85l-0.1,0.3l0,2.55l0,0.15l0,0.25l0.15,0.15l1.85,-0.1l0.15,0l0.1,0l1.5,-0.15l0.6,0.05l0.45,-0.1l1.05,-0.1l-0.45,-0.55m-0.2,-1.1l1.05,1.6l0,0.05l1.35,-0.05l3.45,0l0.2,0l0,-0.05l1.25,-1.75l0.35,-0.4l-2.6,0.3l-0.75,0.1l-0.05,0.05l0,-0.05l-3.8,0.25l-0.25,0l-0.05,-0.05l-0.15,0m9.75,-2.55l0.1,-0.15l0.1,-0.2l0.1,-0.05l2.45,-0.3l2.25,0.15l-0.15,0.3l-0.15,0.4l-0.7,1.15l-0.05,0.1l-0.3,0.4l-1.7,2.2l-0.3,0.25l-0.05,0.35q0,0.5 1.65,0.5l0.1,0l0.8,0.05l1.2,0.05l0.4,0l0.15,0.05l0.5,0l0.85,-0.05l0.4,0.1l0,0.2l0,0.15l0.75,0.1l1.6,0l0.45,0.15l0.5,0.35l0.45,0.3l0.6,-0.05l1.1,0l2.2,-0.05l1.65,-0.1l1.3,-0.15l0.65,-0.1l0.05,0.05l0,0.05l0.15,-0.15l-0.1,0l0.3,-0.4l2.7,-0.15l4.75,0.3l0.4,0.2l0.15,0.05l8.35,-0.05q0.2,-0.2 0.35,-0.2l0,0.2l0.35,0l0.8,-0.05l0.5,0.15l0,0.1l0.2,-0.05l0.45,0.1l0.05,0.1l-1.35,2.15l-0.05,0l-0.75,2.05l-0.1,0.1l-0.05,0.1l-0.05,0l-0.05,-0.1l-2.25,0l-0.45,-0.05l-0.05,-0.15l0,-0.1l0.1,0l-0.2,-0.4l0,0.05l-0.2,0.05l-0.8,-0.1l-1.25,0.95l-1.15,-0.15l-0.2,-0.2l0.8,-0.9l-0.5,0l-1.2,0q-0.85,0.7 -1.25,0.7l-1.05,-0.05l-0.05,-0.15l0.05,-0.05l-2.5,0.8l-0.9,0.45l-0.75,0.6l-0.15,-0.05l0,-0.05l-1.55,0.3l-2.35,0.45l-1.65,0.4l-3.55,1.45l-0.15,0l-0.1,0l-0.35,-0.2l-1.2,0.15l-2.05,-0.45l-0.95,-0.45l-1.7,-0.5l-1.35,-0.3l-0.05,0l-0.95,0.55l-0.05,0l0,-0.15l-0.4,-0.15l-1.75,-0.2l-2.1,0.2l-4.8,0.15l-0.4,0l-0.1,0l-1.45,-1l-1.15,-0.95l-0.5,-0.2q-0.45,-0.35 -2.15,-0.35l-2.3,0.05l-0.25,0.4l-0.4,0.65q-0.1,0.5 -0.4,0.65l-2.85,0.25l-0.1,0l-0.65,1.15l-1.25,1.95l-0.35,0.6l-0.4,1.1l-0.3,0.05l-1.7,-0.95l-1.35,-0.8l-0.05,0l-0.05,-0.1l-0.05,-0.05l0.1,-0.1l0.6,-0.65l0.35,-0.55l1.05,-1.2l0.75,-1.3l0.8,-0.9l-1.15,-0.25l-1.3,-0.1l-0.3,-0.1l-0.05,-0.05l-0.55,0l-3.8,0.25l-3.35,0.45l-0.6,4.3l-0.65,3.6l-0.15,0l-0.6,-0.2l-0.1,-0.25l0.25,-2.5l0.2,-4l-0.1,-1.65l-0.2,-1.95q-0.15,-1.1 -0.45,-1.8l-0.75,-0.9q-0.75,-0.7 -1.4,-0.65l-0.35,0.1l-0.1,-0.1l0.15,-0.85q0.25,-0.75 0.7,-0.65q1.2,0.5 2.05,1.55q0.7,0.75 1.15,1.7l0.5,1.7l1.05,0.1l1.9,0.15l1.95,0.1l0.8,0.1l2.65,-0.25q0.3,-0.15 0.95,-1.25l0.65,-0.9l0.4,-0.1l0.6,-0.15l0.7,-0.05l0.7,-0.1l0.5,-0.05l0.05,0l0.1,0l0.05,-0.05l0.25,0l0.35,0l0.15,-0.05l0,-0.1l0.15,-0.15l0.05,-0.05l0,-0.05l0.05,-0.05l0.2,-0.1l0.25,-0.1l0.7,-0.05l0.8,0l1.85,-0.05l0.95,-0.1l0.1,-0.15l-0.2,-0.1l-0.85,0l-0.1,0l-1.6,0l-0.05,0l-0.6,0.1q-0.5,0 -0.6,-0.45l0,-0.5l0.2,-2.2l0.1,-0.55l0,-0.1l0.05,-0.5l0.05,-0.2l0.1,-0.45l0.05,-0.1l0.4,-0.05l0.15,0.1l0.3,0l0.1,0l0.5,0.05l0.05,0l0.35,0.1l0.4,0.2l0.05,0.05l0.9,0.4l0.65,0.5l0.55,0.45l0.1,0l0.4,0.2l0.25,0.1l1.05,0.05l0.2,0.05l3.05,-0.35l0.45,-0.05l0.6,-0.3l1.15,-0.5l1.55,-0.65l1.85,-0.4l0,0.05l0.05,0m-10.95,4.7l-0.25,0.05l0,0.1l0,0.05l-0.2,0.2l-0.05,0l-0.15,0.2l-0.8,0.2l-0.3,0.05l-0.8,0.05l-0.65,0l-0.95,-0.05l-0.9,0.1l-0.2,0.25l0,0.1l0.35,0.05l0.4,0l0.1,-0.05l0.15,0l0.1,0l1.1,0.05l1.3,0l1.05,0l0.1,0.05l0.25,-0.05l0.45,0.05l1.55,-0.15l0.25,-0.1l5.8,0l1.05,0l0.55,0l1.15,0.05l1.8,0l1.6,-0.05l1.4,0.05l0.95,0l1.35,0.05l0.65,-0.2l0,-0.1l0.05,0l-0.05,-0.15l-1.25,0l-1.5,0l-1.35,-0.1l-1.85,-0.2l-0.25,-0.05q-0.8,-0.15 -0.95,-0.7l-0.05,0l-3.85,0.15l-5.75,0.05l-1.35,0l-0.05,0.05m-7.05,4.55q0.05,-0.6 0.7,-1.6l0,-0.05l0.05,-0.2l0.15,-0.2l-0.1,-0.1l0.1,-0.1l0.15,-0.05l0.3,-0.1l0.05,0l0.45,-0.05l1.6,0.05l0.45,0l0.5,0.1l0.9,0l1.4,0l2.55,0l1.25,-0.1l0.85,-0.05l0.1,0.2l-0.2,0.2l-0.05,0.05l-0.65,0.85l-0.05,0.1l-0.4,0.55l-0.2,0.15l-0.3,0.25l-0.05,0l0,-0.05l-0.25,0l-1.1,0.05l-0.7,0l-0.6,0.05l-0.75,0l-0.55,0l-2.15,-0.05l-0.6,-0.05l-0.4,0l-0.05,0l-0.05,0.35l0,0.2l-0.2,0.05l-0.15,0.15l-0.6,-0.15l-0.05,-0.1l-0.1,-0.1l0.1,-0.4l-0.05,-0.1l-0.05,0l-0.15,0.2l-0.1,0.2l0,0.1l-0.05,0.05l-0.35,0.1l-0.4,-0.05l-0.2,-0.05l0,-0.05l-0.05,-0.05l0.05,-0.15l0,-0.05m37.7,-1.3l-1.5,1.1l-0.5,0.45l-0.5,0.35l-1.65,0.6l-3.2,1.05l-0.1,0l-0.05,0l-0.05,0.05l-1.1,-1.15l-1.25,-1.7l-0.5,-0.7l-0.85,-0.6l-0.4,-0.25l-0.3,-0.2l-0.1,-0.1l-0.5,-0.2l-0.4,-0.3l-0.15,0l-2.7,-0.05l-0.9,0l-2.95,0l0,-0.05l0,-0.15l-0.35,0.05l-0.1,0l-2.5,0.15l-4.4,0.15l-5.4,0.1l-1.3,0l-2.8,-0.1l0,-0.05l-1.1,0.05l-0.25,0.05l-0.2,0l-0.3,0l-0.9,0.05l-0.4,0.2l-0.4,0.4l-0.7,0.7l-0.6,0.85l-0.15,0.2l-0.2,0.15q0.05,0.2 -0.15,0.2l-0.2,0l-0.65,0.4l-3.85,0.5l-0.85,-0.15l-0.55,-0.2q-0.55,0 -0.85,0.35l-0.15,0.35l0.7,-0.1l0.25,0l0.25,0l0.3,-0.05l0.05,0l0.1,0l0.05,-0.05l1.9,-0.05l2.15,-0.15l0.6,-0.15l1.1,0.15l0.95,0.1q1.4,0.2 1.55,0.55l0,0.05l0,0.1l0,0.05l0.05,-0.05l0,0.05l-0.05,0.05l0,0.1l-0.25,0.3l-2.05,2.9l0,0.05l-0.65,0.85l-0.05,0.05l0.1,0.05l1.4,0.95l0.8,0.5l0.2,-0.45l0,-0.05l0.05,-0.05l0.7,-1.15l0.85,-1.35l0.45,-0.8l0.65,-1.25q0.4,-0.8 1.4,-1.1l0.5,-0.25l0.35,-0.05l1.75,-0.05l0.1,0l1.3,0.05l2.55,0l0.1,0.05l0.55,0l0.05,0.05l0.3,0.15l0,0.05q0.4,0.2 1.1,0.75l1.3,1.1l0.3,0.3l0.15,0.1l0,0.05l0.15,0l0.05,-0.15l0.05,0l0,-0.1l0.1,-0.15l0,-0.05l0.05,0l0,-0.05l0.05,0l0.05,-0.15l0,-0.05l0.05,-0.05l0,-0.15l0.05,0l0.1,-0.15l0.05,-0.1l0.15,0l0.25,0l0.1,0l0.3,0l0.3,0.05l0.3,0l0.1,0.05l-0.1,0.2l-0.2,0.35l-0.1,0.4l0,0.05l0.1,0l0.35,0l0.3,0l0.1,-0.2l0.1,-0.15l0.2,-0.4l0.3,-0.55l0.1,-0.25l0.25,-0.25l2,-0.05l0.05,0.05l0,-0.05l0.05,0.1l-0.45,0.8l0,0.05l-0.25,0.5l0,0.2l0.1,-0.05l0.55,-0.05l0.15,-0.05l0.7,-1.15l0.35,-0.3l0.3,0l0.45,-0.05l0.4,0l0.05,0l0.5,0l0.1,0l0,0.1l-0.45,0.6l-0.5,0.7l0.3,0l0.25,0q0.1,-0.3 0.75,-0.7l0.5,-0.25l2.1,-0.6l0.15,0l0.8,-0.05q1.8,0 2.75,0.5l0.9,0.7q0.45,0.2 1.2,0.7l0.05,0.05l0.3,0.2l0,0.05l0.6,0.25q0.8,0 0.9,-0.35l1,-0.45l1.6,-0.85l2.35,-0.75l1.65,-0.75l0.9,-1.1l0.85,-1.2l1.1,-1.1q0.6,-0.65 1.1,-0.75l-1.5,-0.05l-0.5,0.25l-1,0.65l-1.25,0.75l-0.05,0.05l-0.35,0.25l-0.2,0.15m-33,0.15q-0.2,0.5 0.6,0.5l0.35,-0.1l0.05,-0.35q0,-0.5 -0.5,-0.55q-0.5,0 -0.5,0.5m-1.2,-0.5q-0.5,0 -0.5,0.5q-0.15,0.5 0.55,0.5q0.4,0 0.4,-0.45l-0.45,-0.55m3.6,1q0.4,0 0.4,-0.5q0,-0.5 -0.5,-0.5q-0.5,0 -0.5,0.5l0.05,0.2q0.15,0.3 0.55,0.3m1.15,-0.3q0.1,0.3 0.55,0.3q0.4,0 0.4,-0.45q0,-0.5 -0.45,-0.55q-0.5,0 -0.5,0.5l0,0.2m13.95,-8.2l0.05,-0.1l-0.1,0.05l-0.15,-0.15l-0.9,-0.1l-2.3,0.05l-0.15,0.1l-0.2,0.15l0,0.05l-0.45,0.4l-0.3,0.3l-0.6,0.6l-0.35,0.3l-1,1.3l-0.95,1.1l1.5,0l0.85,0.05l1.55,-0.05l0.1,0.05l0.5,0.2l0.3,-0.55l0.15,-0.2l0.75,-1.2l1,-1.45l0.7,-0.9m-4.65,0.25l0.2,-0.15l-1.45,0.6l-0.9,0.35l-1.5,0.6l0.95,-0.05l1.25,0l0.35,-0.3l0.15,-0.1l0.7,-0.65l0.25,-0.3m0.3,8.35l0,0.05l0.3,0.05l0.2,-0.25l-0.35,-0.05l-0.15,0.2m-0.25,0q0,-0.45 0.5,-0.45q0.5,-0.05 0.5,0.2l-0.1,0.3l-0.05,0.1q-0.1,0.15 -0.25,0.15q-0.6,0 -0.6,-0.25l0,-0.05m2.95,-0.2l-0.05,0.05l0.05,0l0.05,0l0.45,-0.1l0.05,-0.15l-0.1,-0.15l-0.05,-0.05q-0.25,0 -0.4,0.4m-0.25,-0.2q0,-0.4 0.55,-0.45q0.5,-0.05 0.5,0.45l-0.1,0.3q-0.1,0.2 -0.4,0.2q-0.45,0 -0.55,-0.25l0,-0.25m2.75,0.6q0.3,0.25 0.9,0.25q0.6,0 0.85,-0.5l0.15,-0.5q0,-0.5 -1,-0.4q-1,0.15 -1,0.8l0.1,0.35m-0.4,-0.4q0,-0.95 1.3,-1.1l0.9,0.15l0.2,0.1l0.15,0.5l-0.2,0.75q-0.3,0.55 -0.95,0.55q-1,0 -1.3,-0.4l-0.1,-0.55m4.05,-1.3l1.3,1.4l1.35,1.7l-0.75,-1.8l-1.05,-1.5l-0.1,-0.1q-0.7,-0.5 -1.9,-0.8q-0.15,0.2 -0.6,0.25l1.3,0.6l0.45,0.25m1.25,-0.3l0.7,0.95l1.1,2.1l0.55,1.1l-0.2,-1.1l-0.25,-1.4l-0.65,-1.65l-0.35,-0.4l-0.5,-0.4l-1,0l-0.3,0l0.9,0.8m2.9,-0.05l-1.3,-0.05l0.05,0.1l0.45,0.95l4.65,-0.2l1.05,-0.05l0.35,-0.35l0.4,-0.45l0.3,-0.35l-0.6,0.2l-3.1,0.25l-2.25,-0.05m-0.35,3.5l0,0.6q0.35,-0.2 1,-0.45l3.05,-1.45l0.6,-0.7l-2.9,0.05l-2.05,-0.05l0.15,0.85l0.15,1.15m-0.4,-2.3l0.05,0.1l1.3,0l0.05,0.05l3.85,-0.1l0.2,-0.25l-0.15,0.05l-2.15,0.1l-2.85,0.05l-0.3,0m5.3,1.45l0.45,-0.4l0.5,-0.35l0.95,-0.75l1.05,-0.75l0.95,-0.6l-0.05,-0.05q0,-0.15 0.7,-0.5l0.65,-0.25l-1.15,0.15l-1.6,0.05l-3.2,3.35l-0.1,0l-1.9,1l-1.6,0.7l1.15,-0.4l1.65,-0.55l0.85,-0.3q0.5,-0.2 0.7,-0.35m7.8,-2.15l1.85,-0.95l-0.45,0q0,-0.85 -1.3,-0.4l-0.2,-0.05l-0.45,0.25l-0.9,0.85l-1.25,1.1l-0.8,1.2q-0.4,0.8 -0.95,1.05l-1.95,0.85l-2.1,0.7l-1.5,0.8q-1.45,0.7 -2.3,0.7l-2,-1.15q-2.1,-1.25 -3.6,-1.25q-2.2,0 -3.2,0.7l-0.6,0.5l-0.15,0.2l0.3,0.15l0.25,0.15l0.2,0.15l0.6,-0.5q0.75,-0.55 1.2,-0.5l0.05,0l0.65,-0.05q3.35,0.25 4.55,1.05l0.75,0.65l0.35,0.3l0.05,-0.05l0.2,0.2l0.35,0.15q0.45,-0.3 2.45,-1.05q0.35,-0.25 1.45,-0.55l4.5,-1.65l0.05,0.05l2.45,-2.5l0,-0.1l0.1,-0.05l0.1,0l0.75,-0.65l-0.15,0l0.35,-0.3l0.3,0m-2.55,2.5l-1.35,1.3l-0.05,-0.05l-2.05,0.85l2.85,-0.4q0.35,-0.5 2.4,-1.2l2.1,-0.55l0.15,-0.1l0.35,-0.35l-0.05,0l-1.85,-0.1l-1.3,1.15l-1,-0.15l-0.3,-0.25l0.1,-0.1l0,-0.05l0.7,-0.65l0.15,-0.1l-0.15,0l-0.7,0.75m1.8,-1.6l0.05,-0.05l-0.1,0.05l0.05,0m12.55,-1.95l-1,-0.05l-0.05,0l-0.2,0.5l-0.55,0.85l-0.1,0l-0.05,-0.15l-1.05,0.1l-8.65,0.1l-0.75,0.45l0.1,0.05l0.05,0.05l3.4,-0.1l0.15,-0.1l0.05,0.05l0.05,0.05l1.55,-0.1l0.05,0.05q0.8,0 1.95,0.6q1.55,0.85 1.55,1.5l0,0.2l1.15,0l1.35,0.05l0.5,-1.75l0.75,-1.8l0.05,-0.1l0.15,-0.3l-0.05,-0.1l0.05,-0.05l-0.05,0l-0.25,-0.05l-0.15,0.05m-13.35,2.65l0.5,-0.45l-0.1,0l-0.45,0.4l0.05,0.05m-0.6,1l0.7,0.2l0.95,-0.8l0.75,-0.9l-0.8,0l-0.55,0.6l-1.05,0.85l0,0.05m3.85,-3.9l-0.15,-0.05l-0.05,0.05l0.2,0m-0.9,1.25l0,0.05l9.05,-0.1l0.3,-0.7l0.15,-0.3l-0.2,0.05l-7.75,0.1l-1.55,0.9m-0.55,1.7l1.9,0.1l0.05,-0.1l0.5,-0.55l0.05,-0.1l-0.75,0l-1.4,0.1l-0.35,0.55m1.4,0.95l-0.05,0.05l0.05,0l0.6,0.1l1.25,-0.85l1.05,-0.9l-0.45,-0.1l-1,0.05l-0.55,0.7l-0.9,0.95m2.1,-0.55l1.65,0l0.75,-0.6l-1.4,-0.4l-0.95,0.9l-0.05,0.1m0.95,1l-0.05,0.1l0.05,0l0.95,0.15q0.35,0 0.9,-0.55l0.3,-0.3l0.1,-0.1l0.3,-0.35l-0.2,-0.15l-0.65,-0.3l-0.75,0.7l-0.95,0.8m2.5,-0.7l0.6,0.15l-0.35,-0.4l-0.25,0.25m5.2,-3.2l-0.5,1.55l0.3,-0.45l0.45,-1l0.05,-0.05l-0.3,-0.05m-25.75,7.4l-0.75,-0.6q-1.7,-1.1 -4,-1.1l-1.45,0.2l-0.05,-0.05l-0.2,0.1l3,0.75l2.7,0.8l0.75,-0.1m-10.95,-1.45l0.85,-0.1l0.4,0l-0.05,-0.1l0.35,-0.45l0.45,-0.55l-0.45,-0.05q-0.8,0 -1.25,0.6l-0.35,0.65l0.05,0m-2.1,-1.2l-0.1,0.05l-0.15,0l-0.4,0.7l-0.25,0.55l-0.1,0.1l0,0.1l1.45,-0.15l0,-0.05l0.3,-0.7l0.4,-0.6l-1.15,0m-2.25,0.7l-0.95,0l-0.4,0.9l1,0l0.2,-0.5l0.2,-0.4l-0.05,0m-10.2,-1.3l-1.3,0.15l-1.05,0.35l-0.05,0l-0.7,0.9l-0.2,0.25q2.75,-0.1 3.15,-1l0.15,-0.65m-21.05,-5.75q2.05,-0.2 2.85,2.9q0.4,1.7 0.4,4.2l-0.15,3.3l-0.3,3.2l0.3,0.05q-0.1,-1.4 0.45,-3.75l0.7,-3.75l-0.2,-0.05l-0.15,-0.1q0.1,-0.25 0.85,-0.3l0.5,-0.05l-0.05,-0.2l0.05,-0.55q0.2,-0.35 1.25,-0.35l0.6,0.2l0.95,0.2l3.45,-0.45l0.65,-0.1l-2.3,0l-2,-0.1l-2.4,-0.15l-1.45,-0.15l-0.2,-0.2l0.05,-0.15l0.1,-0.05l-0.4,-0.8l-0.65,-1.6l-1.1,-1.25q-0.85,-0.7 -1.55,-0.95l-0.05,0.5l-0.2,0.5m18.65,2.3l-0.1,-0.05l-0.55,0.05l-0.05,0l-0.3,0.7l-0.65,1.45l0.3,0l0.2,-0.35q0.15,-0.3 0.45,-0.3l0.1,-0.35l0.05,-0.55l0,-0.25l0,-0.1l0.1,-0.1l0.3,-0.1l0.15,0l0.1,-0.05l0.3,0.05l0.2,-0.05l-0.5,-0.05l-0.1,0.05m0.05,1.25q0.4,0 0.4,-0.45q0,-0.5 -0.45,-0.5q-0.5,0 -0.5,0.5q-0.05,0.45 0.55,0.45" fill="#000000" fill-rule="evenodd" id="svg_1"/>
   <path d="m5.4,-8l0.15,0l0.05,0.05l0.25,0l3.8,-0.25l0,0.05l0.05,-0.05l0.75,-0.1l2.6,-0.3l-0.35,0.4l-1.25,1.75l0,0.05l-0.2,0l-3.45,0l-1.35,0.05l0,-0.05l-1.05,-1.6m1.35,6.6l0.3,-0.25l0.2,-0.15l0.4,-0.55l0.05,-0.1l0.65,-0.85l0.05,-0.05l0.2,-0.2l-0.1,-0.2l-0.85,0.05l-1.25,0.1l-2.55,0l-1.4,0l-0.9,0l-0.5,-0.1l-0.45,0l-1.6,-0.05l-0.45,0.05l-0.05,0l-0.3,0.1l-0.15,0.05l-0.1,0.1l0.1,0.1l-0.15,0.2l-0.05,0.2l0,0.05q-0.65,1 -0.7,1.6l-0.15,0l-0.85,-0.25l0.7,-2.2l-0.05,-0.3l0.2,0l0.25,-0.05l1.1,-0.05l0,0.05l2.8,0.1l1.3,0l5.4,-0.1l4.4,-0.15l2.5,-0.15l0.1,0l0.35,-0.05l0,0.15l0,0.05l2.95,0l0.9,0l2.7,0.05l0.15,0l0.4,0.3l0.5,0.2l0.1,0.1l0.3,0.2l0.4,0.25l0.85,0.6l0.5,0.7l1.25,1.7l1.1,1.15l0.05,-0.05l0.05,0l0.1,0l3.2,-1.05l1.65,-0.6l0.5,-0.35l0.5,-0.45l1.5,-1.1l0.5,0.05l1.1,-0.2l0,0.05q-0.9,1.65 -3.6,2.8q-2.7,1.1 -5.4,1.1l-0.6,-0.45l-0.75,-0.55l-1.15,-0.5l-1.05,-0.4l-2.45,-0.25q1.2,-0.15 1.2,-1.5q0,-0.55 -0.5,-0.85l-1.05,-0.15q-0.65,0.1 -1.05,0.5q-0.5,0.4 -0.5,1.05l0.2,0.55l0.55,0.3l-3.1,-0.35l-1.35,-0.25l0.1,-0.35q0,-0.65 -0.75,-0.7q-0.65,0 -0.65,0.6l0,0.25l-0.35,-0.1l-1.85,-0.15q-1.15,0 -2.4,0.9l-1.25,1.2l-0.35,-0.75l-0.4,-0.3l-0.15,-0.25l-0.1,-0.05l-0.95,0l0,-0.05m10.55,-0.85l0.1,0.4q0.15,0.3 0.6,0.3q0.7,0 0.75,-0.7q0,-0.5 -0.75,-0.6q-0.7,-0.1 -0.7,0.6" fill="#3c3c3c" fill-rule="evenodd" id="svg_2"/>
   <path d="m4.2,-5.85l0.05,-0.05l1.35,0l5.75,-0.05l3.85,-0.15l0.05,0q0.15,0.55 0.95,0.7l0.25,0.05l1.85,0.2l1.35,0.1l1.5,0l1.25,0l0.05,0.15l-0.05,0l0,0.1l-0.65,0.2l-1.35,-0.05l-0.95,0l-1.4,-0.05l-1.6,0.05l-1.8,0l-1.15,-0.05l-0.55,0l-1.05,0l-5.8,0l-0.25,0.1l-1.55,0.15l-0.45,-0.05l-0.25,0.05l-0.1,-0.05l-1.05,0l-1.3,0l-1.1,-0.05l-0.1,0l-0.15,0l-0.1,0.05l-0.4,0l-0.35,-0.05l0,-0.1l0.2,-0.25l0.9,-0.1l0.95,0.05l0.65,0l0.8,-0.05l0.3,-0.05l0.8,-0.2l0.15,-0.2l0.05,0l0.2,-0.2l0,-0.05l0,-0.1l0.25,-0.05" fill="#1e1e1e" fill-rule="evenodd" id="svg_3"/>
   <path d="m6.75,-1.4l0,0.05l-1.4,0l-0.7,0l-0.6,0l0.6,-0.05l0.7,0l1.1,-0.05l0.25,0l0,0.05l0.05,0m-8.65,0.4l0.05,-0.05l0,-0.1l0.1,-0.2l0.15,-0.2l0.05,0l0.05,0.1l-0.1,0.4l-0.3,0.05m1.4,-0.1l0.05,-0.35l0.05,0l0.4,0l0.6,0.05l2.15,0.05l0.55,0l-0.55,0.05l-0.05,0l-0.55,0.05l-2,0.1l0,0.05l-0.65,0m-6.55,5.85l-0.1,-0.05l0.05,-0.05l0.05,0.1m3.5,-8.7l-0.25,0.4l-0.05,-0.05l0.3,-0.35m-2.8,7.85l-0.05,-0.1l0.15,-0.15l-0.1,0.25" fill="#373a40" fill-rule="evenodd" id="svg_4"/>
   <path d="m6.75,-1.35l0.95,0l0.1,0.05l0.15,0.25l0.4,0.3l0.35,0.75l1.25,-1.2q1.25,-0.9 2.4,-0.9l1.85,0.15l0.35,0.1l0,0.1q0.15,0.35 0.6,0.35q0.5,0 0.7,-0.25l1.35,0.25l3.1,0.35l0.75,0.15l0.4,-0.05l2.45,0.25l1.05,0.4l1.15,0.5l0.75,0.55l0.6,0.45q2.7,0 5.4,-1.1q2.7,-1.15 3.6,-2.8l0,-0.05l-1.1,0.2l-0.5,-0.05l0.2,-0.15l0.35,-0.25l0.05,0l1.45,0l-0.65,1.1l-0.95,1q-0.45,0.35 -2.05,1q-1.65,0.8 -2.15,0.8l-2.05,0.55l-1.2,0.4l-0.3,-0.4l-0.6,-0.3l-0.75,-0.4l-0.65,-0.65q-1.2,-0.65 -4.25,-0.65l-1.85,0.1l-0.25,0.1l-4.1,-0.6l-1.9,-0.45l-0.65,-0.15l-0.85,0.05l-0.5,0.4l-0.15,0.1l-0.35,0.25l-0.35,0.25l-0.05,0.05l-0.2,0.15l-1.3,0.8l-0.05,0q-0.45,0 -0.5,-0.25l-0.2,-0.45q-0.8,-0.75 -5.5,-0.75l-1.8,0.1l-0.05,-0.1l-0.55,-0.15l0,-0.05l2,-0.1l0.55,-0.05l0.05,0l0.55,-0.05l0.75,0l0.6,0l0.7,0l1.4,0m-9.95,-2.7l0.05,0.3l-0.7,2.2l0.85,0.25l0.15,0l0,0.05l-0.05,0.15l0.05,0.05l0,0.05l0.2,0.05l-1,0.05l-0.3,0l-0.05,-0.05l-0.45,-0.35l-0.1,-0.5q0,-0.75 0.6,-1.6l0.1,-0.2l0.05,0.05l0.25,-0.4l0.05,-0.1l0.3,0m24.85,4.3l-0.15,0l-2.1,0.6l-0.5,0.25q-0.65,0.4 -0.75,0.7l-0.25,0l0,-0.05l0.25,-0.5l0.6,-0.9l0.25,0.1q0.85,-0.4 1.2,-0.35l1.45,0.15m-6.1,1.7l-0.55,0.05l0.85,-1.7l-0.05,-0.15l-1.3,-0.05l-0.75,0q-0.45,0 -0.55,0.15l-0.15,0.25l-0.3,0.6l-0.4,0.55l-0.2,0.6l-0.35,0l0.4,-1.05q0,-0.4 -0.85,-0.45q-0.9,0 -1.25,0.6l-0.35,0.55l-0.05,0.25l-0.3,-0.3l0.5,-0.55l1,-0.95q0.9,-0.8 4.65,-0.5l2.25,0.25q-1.2,0 -1.35,0.3l-0.4,0.5l-0.35,0.5l-0.2,0.4l0,0.1l0.05,0.05m-5.2,-0.35l0,0.05l-0.05,0.15l-0.05,0l0.1,-0.2m27.45,-2.3l0,0.05l-0.1,0.1l0.3,0.25l1,0.15l1.3,-1.15l1.85,0.1l0.05,0l-0.35,0.35l-0.15,0.1l-2.1,0.55q-2.05,0.7 -2.4,1.2l-2.85,0.4l2.05,-0.85l0.05,0.05l1.35,-1.3l0.7,-0.75l0.15,0l-0.15,0.1l-0.7,0.65m1,-0.9l-0.05,-0.05l0.45,-0.4l0.1,0l-0.5,0.45m-11.8,4.95l-0.75,0.1l-2.7,-0.8l-3,-0.75l0.2,-0.1l0.05,0.05l1.45,-0.2q2.3,0 4,1.1l0.75,0.6m-30,-3.35q0.5,-0.05 0.5,0.45q0,0.25 -0.95,1.9q-1,1.75 -1.35,1.75l-0.65,-0.2l0,-0.25l0.55,-1.1l0.75,-1l0.5,-1.05q0.2,-0.5 0.65,-0.5" fill="#222222" fill-rule="evenodd" id="svg_5"/>
   <path d="m-2.65,-0.95l0.4,0.05l0.35,-0.1l0.3,-0.05l0.1,0.1l0.05,0.1l0.6,0.15l0.15,-0.15l0.2,-0.05l0,-0.2l0.65,0l0.55,0.15l0.05,0.1l1.8,-0.1q4.7,0 5.5,0.75l0.2,0.45q0.05,0.25 0.5,0.25l0.05,0l1.3,-0.8l0.2,-0.15l0.05,-0.05l0.35,-0.25l0.35,-0.25l0.15,-0.1l0.5,-0.4l0.85,-0.05l0.65,0.15l1.9,0.45l4.1,0.6l0.25,-0.1l1.85,-0.1q3.05,0 4.25,0.65l0.65,0.65l0.75,0.4l0.6,0.3l0.3,0.4l1.2,-0.4l2.05,-0.55q0.5,0 2.15,-0.8q1.6,-0.65 2.05,-1l0.95,-1l0.65,-1.1l-1.45,0l0,-0.05l1.25,-0.75l1,-0.65l0.5,-0.25l1.5,0.05q-0.5,0.1 -1.1,0.75l-1.1,1.1l-0.85,1.2l-0.9,1.1l-1.65,0.75l-2.35,0.75l-1.6,0.85l-1,0.45q-0.1,0.35 -0.9,0.35l-0.6,-0.25l0,-0.05l-0.3,-0.2l-0.05,-0.05q-0.75,-0.5 -1.2,-0.7l-0.9,-0.7q-0.95,-0.5 -2.75,-0.5l-0.8,0.05l-1.45,-0.15q-0.35,-0.05 -1.2,0.35l-0.25,-0.1l-0.05,-0.1l-0.65,-0.15l-0.25,0l-2.25,-0.25q-3.75,-0.3 -4.65,0.5l-1,0.95l-0.5,0.55l-1.3,-1.1q-0.7,-0.55 -1.1,-0.75l0,-0.05l-0.3,-0.15l-0.05,-0.05l-0.55,0l-0.1,-0.05l-2.55,0l-1.3,-0.05l-0.1,0l-1.75,0.05l-0.35,0.05l-0.5,0.25q-1,0.3 -1.4,1.1l-0.65,1.25l-0.45,0.8l-0.85,1.35l-0.7,1.15l-0.05,0.05l0,0.05l-0.2,0.45l-0.8,-0.5l-1.4,-0.95l-0.05,-0.1l0.65,-0.85l0,-0.05l2.05,-2.9l0.25,-0.3l0,-0.1l0.05,-0.05l0,-0.05l-0.05,0.05l0,-0.05l0,-0.1l0,-0.05q-0.15,-0.35 -1.55,-0.55l-0.95,-0.1l-1.1,-0.15l-0.6,0.15l-2.15,0.15l-1.9,0.05l-0.05,0.05l-0.1,0l-0.05,0l-0.3,0.05l-0.25,0l-0.25,0l-0.7,0.1l0.15,-0.35q0.3,-0.35 0.85,-0.35l0.55,0.2l0.85,0.15l3.85,-0.5l0.65,-0.4l0.2,0q0.2,0 0.15,-0.2l0.2,-0.15l0.15,-0.2l0.6,-0.85l0.7,-0.7l0.4,-0.4l0.4,-0.2l0.9,-0.05l-0.05,0.1l-0.3,0.35l-0.1,0.2q-0.6,0.85 -0.6,1.6l0.1,0.5l0.45,0.35l0.05,0.05l0.3,0l1,-0.05m55.05,-2.75l-0.2,0.1l-0.2,-0.15l-0.05,-0.15l0.2,-0.35l0.15,-0.05l0.25,0.05l0,0.05l0.05,0.1l-0.15,0.3l-0.05,0.1m-55.4,3.7q-0.45,0 -0.65,0.5l-0.5,1.05l-0.75,1l-0.55,1.1l0,0.25l0.65,0.2q0.35,0 1.35,-1.75q0.95,-1.65 0.95,-1.9q0,-0.5 -0.5,-0.45m-3.35,3.9l0.1,-0.25l-0.15,0.15l0.05,0.1" fill="#626262" fill-rule="evenodd" id="svg_6"/>
   <path d="m15.15,-10.55l-0.05,0l0.05,0" fill="url(#gradient0)" fill-rule="evenodd" id="svg_7"/>
   <path d="m15,-1.85l0.15,-0.2l0.35,0.05l-0.2,0.25l-0.3,-0.05l0,-0.05m2.7,-0.2q0.15,-0.4 0.4,-0.4l0.05,0.05l0.1,0.15l-0.05,0.15l-0.45,0.1l-0.05,-0.05m2.5,0.4l-0.1,-0.35q0,-0.65 1,-0.8q1,-0.1 1,0.4l-0.15,0.5q-0.25,0.5 -0.85,0.5q-0.6,0 -0.9,-0.25" fill="#f0f3fd" fill-rule="evenodd" id="svg_8"/>
   <path d="m17.7,-2l0,-0.05l0.05,0.05l-0.05,0" fill="#e0e3fc" fill-rule="evenodd" id="svg_9"/>
   <path d="m25.1,-3.65l-0.9,-0.8l0.3,0l1,0l0.5,0.4l0.35,0.4l0.65,1.65l0.25,1.4l0.2,1.1l-0.55,-1.1l-1.1,-2.1l-0.7,-0.95" fill="#515151" fill-rule="evenodd" id="svg_10"/>
   <path d="m28,-3.7l2.25,0.05l3.1,-0.25l0.6,-0.2l-0.3,0.35l-0.4,0.45l-0.35,0.35l-1.05,0.05l-4.65,0.2l-0.45,-0.95l-0.05,-0.1l1.3,0.05m13.15,0.45l1.55,-0.9l7.75,-0.1l0.2,-0.05l-0.15,0.3l-0.3,0.7l-9.05,0.1l0,-0.05" fill="#111111" fill-rule="evenodd" id="svg_11"/>
   <path d="m27.25,-2.5l0.3,0l2.85,-0.05l2.15,-0.1l0.15,-0.05l-0.2,0.25l-3.85,0.1l-0.05,-0.05l-1.3,0l-0.05,-0.1m25.15,-1.2l-0.75,1.8l-0.5,1.75l-1.35,-0.05l-1.15,0l0,-0.2q0,-0.65 -1.55,-1.5q-1.15,-0.6 -1.95,-0.6l-0.05,-0.05l-1.55,0.1l-0.05,-0.05l-0.05,-0.05l-0.15,0.1l-3.4,0.1l-0.05,-0.05l-0.1,-0.05l0.75,-0.45l8.65,-0.1l1.05,-0.1l0.05,0.15l0.1,0l0.55,-0.85l0.2,-0.5l0.05,0l1,0.05l-0.2,0.35l0.05,0.15l0.2,0.15l0.2,-0.1m0.15,-0.55l0.05,0l-0.05,0.05l0,-0.05" fill="#595959" fill-rule="evenodd" id="svg_12"/>
   <path d="m35.45,-3l-0.05,0l0.05,-0.05l0,0.05" fill="#9b9ea8" fill-rule="evenodd" id="svg_13"/>
   <path d="m11.7,1.4l0.05,0l-0.2,0.4l-0.2,0.5l-1,0l0.4,-0.9l0.95,0m2.25,-0.7l1.15,0l-0.4,0.6l-0.3,0.7l0,0.05l-1.45,0.15l0,-0.1l0.1,-0.1l0.25,-0.55l0.4,-0.7l0.15,0l0.1,-0.05m2.1,1.2l-0.05,0l0.35,-0.65q0.45,-0.6 1.25,-0.6l0.45,0.05l-0.45,0.55l-0.35,0.45l0.05,0.1l-0.4,0l-0.85,0.1" fill="#ffffff" fill-rule="evenodd" id="svg_14"/>
   <path d="m-0.9,-3.3l-0.15,0l-0.3,0.1l-0.1,0.1l0,0.1l0,0.25l-0.05,0.55l-0.1,0.35q-0.3,0 -0.45,0.3l-0.2,0.35l-0.3,0l0.65,-1.45l0.3,-0.7l0.05,0l0.55,-0.05l0.1,0.05l0,0.05" fill="#0d0d0d" fill-rule="evenodd" id="svg_15"/>
   <path d="m14.55,-1.85l0,-0.25q0,-0.6 0.65,-0.6q0.75,0.05 0.75,0.7l-0.1,0.35q-0.2,0.25 -0.7,0.25q-0.45,0 -0.6,-0.35l0,-0.1m5.75,0.8l-0.55,-0.3l-0.2,-0.55q0,-0.65 0.5,-1.05q0.4,-0.4 1.05,-0.5l1.05,0.15q0.5,0.3 0.5,0.85q0,1.35 -1.2,1.5l-0.4,0.05l-0.75,-0.15m-19.65,-1.9l0.45,0.55q0,0.45 -0.4,0.45q-0.7,0 -0.55,-0.5q0,-0.5 0.5,-0.5m14.1,1.1l0,0.05q0,0.25 0.6,0.25q0.15,0 0.25,-0.15l0.05,-0.1l0.1,-0.3q0,-0.25 -0.5,-0.2q-0.5,0 -0.5,0.45m2.55,-0.4q0,-0.7 0.7,-0.6q0.75,0.1 0.75,0.6q-0.05,0.7 -0.75,0.7q-0.45,0 -0.6,-0.3l-0.1,-0.4m0.15,0l0,0.25q0.1,0.25 0.55,0.25q0.3,0 0.4,-0.2l0.1,-0.3q0,-0.5 -0.5,-0.45q-0.55,0.05 -0.55,0.45m2.35,0.2l0.1,0.55q0.3,0.4 1.3,0.4q0.65,0 0.95,-0.55l0.2,-0.75l-0.15,-0.5l-0.2,-0.1l-0.9,-0.15q-1.3,0.15 -1.3,1.1m-1.9,3.85l-0.3,0l0.5,-0.7l0.45,-0.6l0,-0.1l-0.1,0l-0.5,0l-0.05,0l-0.4,0l-0.45,0.05l-0.3,0l-0.35,0.3l-0.7,1.15l-0.15,0.05l-0.05,-0.05l0,-0.1l0.2,-0.4l0.35,-0.5l0.4,-0.5q0.15,-0.3 1.35,-0.3l0.25,0l0.65,0.15l0.05,0.1l-0.6,0.9l-0.25,0.5l0,0.05m-2.9,0.2l-0.1,0.05l0,-0.2l0.25,-0.5l0,-0.05l0.45,-0.8l-0.05,-0.1l0,0.05l-0.05,-0.05l-2,0.05l-0.25,0.25l-0.1,0.25l-0.3,0.55l-0.2,0.4l-0.1,0.15l-0.1,0.2l-0.3,0l0.2,-0.6l0.4,-0.55l0.3,-0.6l0.15,-0.25q0.1,-0.15 0.55,-0.15l0.75,0l1.3,0.05l0.05,0.15l-0.85,1.7m-3.2,0.25l-0.1,0l0,-0.05l0.1,-0.4l0.2,-0.35l0.1,-0.2l-0.1,-0.05l-0.3,0l-0.05,-0.05l-0.25,0l-0.3,0l-0.1,0l-0.25,0l-0.15,0l-0.05,0.1l-0.1,0.15l-0.05,0l0,0.15l-0.05,0.05l-0.1,0.2l0,0.05l-0.05,0l0,0.05l-0.1,0.15l0,0.1l-0.05,0l-0.05,0.15l-0.15,0l0,-0.05l-0.15,-0.1l0.05,-0.25l0.35,-0.55q0.35,-0.6 1.25,-0.6q0.85,0.05 0.85,0.45l-0.4,1.05m-12.65,-4.35q-0.6,0 -0.55,-0.45q0,-0.5 0.5,-0.5q0.45,0 0.45,0.5q0,0.45 -0.4,0.45" fill="#cc2222" fill-rule="evenodd" id="svg_16"/>
   <path d="m5.4,-2.25l0,-0.2q0,-0.5 0.5,-0.5q0.45,0.05 0.45,0.55q0,0.45 -0.4,0.45q-0.45,0 -0.55,-0.3m9.3,-7.95l-0.25,0.3l-0.7,0.65l-0.15,0.1l-0.35,0.3l-1.25,0l-0.95,0.05l1.5,-0.6l0.9,-0.35l1.45,-0.6l-0.2,0.15m38.05,6.15l0.3,0.05l-0.05,0.05l-0.45,1l-0.3,0.45l0.5,-1.55" fill="#361f1f" fill-rule="evenodd" id="svg_17"/>
   <path d="m1.85,-2.45q0,-0.5 0.5,-0.5q0.5,0.05 0.5,0.55l-0.05,0.35l-0.35,0.1q-0.8,0 -0.6,-0.5m2.4,0.5q-0.4,0 -0.55,-0.3l-0.05,-0.2q0,-0.5 0.5,-0.5q0.5,0 0.5,0.5q0,0.5 -0.4,0.5" fill="#660000" fill-rule="evenodd" id="svg_18"/>
   <path d="m5.6,-6.9l0.45,0.55l-1.05,0.1l-0.45,0.1l-0.6,-0.05l-1.5,0.15l-0.1,0l-0.15,0l-1.85,0.1l-0.15,-0.15l0,-0.25l0,-0.15l0,-2.55l0.1,-0.3l0.2,-0.85l0.65,0.05l0.75,0.4l0.45,0.2l0.35,0.2l0.15,0.1l0.8,0.7l1.15,0.7l0.8,0.95m13.75,-3.55l-0.7,0.9l-1,1.45l-0.75,1.2l-0.15,0.2l-0.3,0.55l-0.5,-0.2l-0.1,-0.05l-1.55,0.05l-0.85,-0.05l-1.5,0l0.95,-1.1l1,-1.3l0.35,-0.3l0.6,-0.6l0.3,-0.3l0.45,-0.4l0,-0.05l0.2,-0.15l0.15,-0.1l2.3,-0.05l0.9,0.1l0.15,0.15l0.05,0.05m4.5,7.1l-0.45,-0.25l-1.3,-0.6q0.45,-0.05 0.6,-0.25q1.2,0.3 1.9,0.8l0.1,0.1l1.05,1.5l0.75,1.8l-1.35,-1.7l-1.3,-1.4m16.5,0.15l-0.3,0l-0.35,0.3l0.15,0l-0.75,0.65l-0.1,0l-0.1,0.05l0,0.1l-2.45,2.5l-0.05,-0.05l-4.5,1.65q-1.1,0.3 -1.45,0.55q-2,0.75 -2.45,1.05l-0.35,-0.15l-0.2,-0.2l-0.05,0.05l-0.35,-0.3l-0.75,-0.65q-1.2,-0.8 -4.55,-1.05l-0.65,0.05l-0.05,0q-0.45,-0.05 -1.2,0.5l-0.6,0.5l-0.2,-0.15l-0.25,-0.15l-0.3,-0.15l0.15,-0.2l0.6,-0.5q1,-0.7 3.2,-0.7q1.5,0 3.6,1.25l2,1.15q0.85,0 2.3,-0.7l1.5,-0.8l2.1,-0.7l1.95,-0.85q0.55,-0.25 0.95,-1.05l0.8,-1.2l1.25,-1.1l0.9,-0.85l0.45,-0.25l0.2,0.05q1.3,-0.45 1.3,0.4l0.45,0l-1.85,0.95m-7.8,2.15q-0.2,0.15 -0.7,0.35l-0.85,0.3l-1.65,0.55l-1.15,0.4l1.6,-0.7l1.9,-1l0.1,0l3.2,-3.35l1.6,-0.05l1.15,-0.15l-0.65,0.25q-0.7,0.35 -0.7,0.5l0.05,0.05l-0.95,0.6l-1.05,0.75l-0.95,0.75l-0.5,0.35l-0.45,0.4m8.05,-0.5l0.35,-0.55l1.4,-0.1l0.75,0l-0.05,0.1l-0.5,0.55l-0.05,0.1l-1.9,-0.1m3.5,0.4l0.05,-0.1l0.95,-0.9l1.4,0.4l-0.75,0.6l-1.65,0m3.45,0.3l0.25,-0.25l0.35,0.4l-0.6,-0.15m-67.1,-4.8l0.2,-0.5l0.05,-0.5q0.7,0.25 1.55,0.95l1.1,1.25l0.65,1.6l0.4,0.8l-0.1,0.05l-0.05,0.15l0.2,0.2l1.45,0.15l2.4,0.15l2,0.1l2.3,0l-0.65,0.1l-3.45,0.45l-0.95,-0.2l-0.6,-0.2q-1.05,0 -1.25,0.35l-0.05,0.55l0.05,0.2l-0.5,0.05q-0.75,0.05 -0.85,0.3l0.15,0.1l0.2,0.05l-0.7,3.75q-0.55,2.35 -0.45,3.75l-0.3,-0.05l0.3,-3.2l0.15,-3.3q0,-2.5 -0.4,-4.2q-0.8,-3.1 -2.85,-2.9" fill="#c65050" fill-rule="evenodd" id="svg_19"/>
   <path d="m27.65,-0.2l-0.15,-1.15l-0.15,-0.85l2.05,0.05l2.9,-0.05l-0.6,0.7l-3.05,1.45q-0.65,0.25 -1,0.45l0,-0.6m10.55,-0.4l0,-0.05l1.05,-0.85l0.55,-0.6l0.8,0l-0.75,0.9l-0.95,0.8l-0.7,-0.2m3.8,0l0.9,-0.95l0.55,-0.7l1,-0.05l0.45,0.1l-1.05,0.9l-1.25,0.85l-0.6,-0.1l0,-0.05m3.05,0.55l0,-0.1l0.95,-0.8l0.75,-0.7l0.65,0.3l0.2,0.15l-0.3,0.35l-0.1,0.1l-0.3,0.3q-0.55,0.55 -0.9,0.55l-0.95,-0.15" fill="#7b3636" fill-rule="evenodd" id="svg_20"/>
  </g>
  <radialGradient cx="0" cy="0" gradientTransform="matrix(0.0054, 0.0, 0.0, 0.0054, 15.65, -6.7)" gradientUnits="userSpaceOnUse" id="gradient0" r="819.2" spreadMethod="pad">
   <stop offset="0" stop-color="#0000ff"/>
   <stop offset="1" stop-color="#7878fe" stop-opacity="0"/>
  </radialGradient>
 </defs>
 <g class="layer">
  <title>Layer 1</title>
  <g id="svg_21" transform="matrix(10.0, 0.0, 0.0, 10.0, 305.0, 144.0)">
   <use height="19.65" id="svg_22" transform="matrix(1.0, 0.0, 0.0, 1.0, -19.95, -11.25)" width="73.45" xlink:href="#shape0"/>
  </g>
 </g>
</svg>