<svg width="1187" height="288.5" xmlns="http://www.w3.org/2000/svg" xmlns:undefined="https://www.free-decompiler.com/flash" xmlns:xlink="http://www.w3.org/1999/xlink">
 <defs>
  <g transform="matrix(1.0, 0.0, 0.0, 1.0, 23.55, 6.9)" id="shape0">
   <path id="svg_1" fill-rule="evenodd" fill="#3f3f3f" d="m9.55,-6.35l0.2,-0.05l3.95,-0.1l1.9,1.6l-5.4,-0.2l-0.8,-1.25l0.15,0"/>
   <path id="svg_2" fill-rule="evenodd" fill="#666666" d="m1.2,-5.15l-0.5,-0.15l-2.5,0l-0.65,0.1l-0.4,0.65l-0.05,0.25l0.15,0.5l10.5,-0.3l0.2,-0.15l0.3,-0.35l0,-0.5l-0.15,-0.35l-0.2,0.1l-6.7,0.2m6,-1.1l0.05,-0.1l0.05,0l0.15,-0.1l0.15,-0.2l1.2,0l1.75,2.55l0,0.05l0.05,0.05l-0.2,0.35l-0.55,0.25l-2.45,0l-0.85,0.2l-4.35,0l-0.15,0.05l-0.05,-0.05l-5.95,0l-0.4,-0.25l-0.45,-0.25l-0.25,-0.45l0.95,-0.75l1.6,-1.1l2.3,-0.1l1.2,0.1l5.2,-0.05l1,-0.2"/>
   <path id="svg_3" fill-rule="evenodd" fill="#414141" d="m1.3,-1.15l0.05,0l-0.3,0.7l-0.85,0.8l-0.9,0.4l-1.3,0.1l-1.3,0.35l-0.55,0.25l-0.25,0q-0.45,-0.05 -0.65,-0.35q-0.45,-0.5 -0.7,-0.25q-0.3,0.15 -0.45,0.65l-0.15,0.75l-0.7,1.8l-0.5,0.9l2.15,2.1l0.35,-0.2l0.1,0.4l-0.05,0.25l-0.25,0l-0.8,-0.5l-0.7,-0.65l-0.9,-0.4l-0.8,-0.55l0.4,-0.15l0.6,-1.05l0.3,-0.7l0.3,-0.6l0.6,-1.55q0.15,-0.4 0.15,-1.15l0,-0.4l-0.45,-0.45l-0.75,0l-0.55,0.4l-0.4,0.4l-0.3,-0.1l-0.15,0l0,0.15l-2.05,-0.15l-0.65,-0.2l0,-0.1l-0.05,-0.1l-0.1,-0.05l-0.15,0.1l-0.25,-0.25l-0.9,-0.4l-3,0.1l-1.3,0.25l-0.25,0.15l0.35,-0.5q0.65,-0.65 1.95,-0.5l0.3,-0.3l-0.05,-0.8l0.8,0l0.1,0.05l1.9,-0.05l0.35,0.2l0.35,0.45l0.8,0.55l1.6,-0.25q0.35,-0.15 0.45,-0.45l0.15,-0.5q0.2,-0.3 0.85,-0.45l0.6,-0.1l0.1,0l0.1,-0.1q0.45,-0.15 0.75,-0.45l0.15,-0.1l0.4,0.35l0.75,0.4l0,0.05l0.2,0.05l5.7,0.05l-0.2,0.55l-0.05,1.15m5.25,-1.9l0,0.05l0.25,0.55q0.2,0.45 0.45,0.45l2.2,-0.35l1.45,1.8l0,0.05l-0.35,0.25q-0.45,0.5 -1.1,0.7l-3.1,1.05l-0.85,-0.95l0.45,-0.65l0.35,-0.85l-0.05,-0.1l-0.1,-0.1l0.15,-0.6l0.05,-1.3l0.2,0m2.9,1.25l-0.35,0.05l-0.2,0.1l-1.05,0.15l-0.05,0l0,0.15l0.35,0.75l0.15,0.15l-0.1,0l-0.05,0.05l0,0.05l0.05,0.1l0.8,0l1.2,-0.3l0.3,-0.25l-0.5,-0.6l-0.55,-0.4m-9.65,0.65l-1.4,-0.1l-1.55,0.2l-0.45,1.6l0,0.15l0.15,0.1l0.45,0l0.35,-0.05l0.1,-0.15l2.1,-0.35l0.3,-0.5l0.1,-0.55l0,-0.15l-0.15,-0.2"/>
   <path id="svg_4" fill-rule="evenodd" fill="#5b5b5b" d="m2.15,-1.2l0.45,0l0.2,0.1l0,0.1l-0.25,0.4l-0.95,1.15l-1.25,0l0.15,-0.1l0.7,-0.75l0.45,-0.8l0.05,-0.05l0.25,0l0.2,-0.05m0.8,0.5l0,-0.05l0.15,-0.2l0.2,-0.15l0.55,-0.05l0.2,0.05l0.1,0l0.15,0.1l0,0.05l-0.3,0.75l-0.4,0.65l-1.7,0.15l0.7,-0.7l0.35,-0.6m1.6,-0.3l1.3,0l0.15,0.15l-0.1,0.05l-0.55,1.2l-1.4,0l0.65,-1.35l-0.05,-0.05"/>
   <path id="svg_5" fill-rule="evenodd" fill="#252525" d="m10.1,-2.9l0,-0.15l0.25,-0.4l0.55,-0.25l0.15,-0.05l0.05,-0.1l8.7,0l0.85,-0.2l1.35,-0.1l0.05,0.05l0.1,0l0.5,-0.2l0.6,-0.35l0.15,0.05l0.85,-0.05l0,-0.05l1.5,0.05l-0.2,0.5l-0.05,0l0,0.1l-0.15,0.35l-1.4,2.55q-1.4,2.2 -2.4,2.25l-2.3,0l0.45,-0.3l0.15,-0.45q0,-0.4 -0.45,-0.55l-1,0.05q-0.55,0.1 -0.9,0.4l-0.45,0.7l-0.4,-0.15l-0.5,-0.25l0.6,-0.45l0,-0.9l-0.15,-0.3q-0.25,-0.35 -1.45,-0.35q-0.75,0.15 -0.95,0.4l0,0.2l0.05,0.55l0.05,0.25l-0.05,0.05l-0.55,-0.15l0.3,-0.25l0.1,-0.45l-0.4,-0.65l-0.85,-0.25l-0.75,0.2q-0.4,0.25 -0.4,0.7l0.05,0.25q0.05,0.35 0.3,0.35l0,0.1l-0.6,0l-0.15,-0.4l-0.05,-0.05l-1,-1.2l-0.05,-1l-0.1,-0.1m14.4,-0.35l-0.05,-0.15l-0.1,-0.05l-1.35,0.05l-0.25,0.05l-0.05,0.05l-0.05,0.1l0.1,0.15l-0.75,2l0.1,0l0.1,0.05l0.8,0.2l0.45,0l0.6,-1.2l0.45,-1.25m-4.4,2.25l0.05,0l0.1,0.05l0.85,0.2l0.45,0l0.6,-1.2l0.45,-1.25l-0.05,-0.15l-0.1,-0.05l-1.35,0.05l-0.25,0.05l-0.05,0.05l-0.05,0.1l0.05,0.05l0.05,0.1l-0.75,2m-2.85,-1q0.1,0.25 0.45,0.25q0.4,0 0.5,-0.25l0.1,-0.45l-0.2,-0.5l-0.4,-0.1l-0.3,0.3l-0.2,0.4l0,0.1l0.05,0.25m-0.55,-0.7l-0.15,-0.15l-0.3,-0.1l-0.25,0.1l-0.1,0.3l-0.05,0.1l0.05,0.1q0.1,0.15 0.45,0.15l0.35,-0.2l0,-0.3m2.25,-0.55l-0.15,0.15l0.1,0.05l0.05,0.1l-0.75,2l0.05,0l0.1,0.05l0.8,0.2l0.45,0l0.6,-1.2q0.55,-0.9 0.5,-1.25l-0.05,-0.15l-0.1,-0.05l-1.4,0.05l-0.2,0.05"/>
   <path id="svg_6" fill-rule="evenodd" fill="#afafaf" d="m12.6,-1.1l0.5,-0.05l0.4,0.6l-0.1,0.65l-0.15,0.4l-0.05,0.65l-0.3,0.8l-0.9,-0.45l-0.05,-0.05l0,-0.1l0.3,-1.35l0,-0.6q-0.05,-0.4 0.35,-0.5m2,0.95l0.1,-0.15q0.4,-0.7 0.95,-0.6l0.35,0.2l0.15,0.25l-0.25,0.75l-0.1,0.1l0,0.1l-0.6,1.35l-0.15,0.15l-0.2,0.35l0,-0.05l-0.8,0.8l-0.05,0l-0.3,0.3l-0.95,0.45l0,-0.05l-0.45,0.15l-1.65,0.05l-0.8,-0.5l-0.1,-0.1l-0.7,-0.55l-0.6,-0.65l0.9,-0.4l0.35,0.6q0.65,0.65 1.65,0.6l0.7,-0.1l0.05,0.05l0.15,0l0.75,-0.5l0.25,-0.25l0.05,0l0.05,-0.1l0.25,-0.3l0.6,-1.05l0.3,-0.75l0.1,-0.05l0,-0.1m4.4,0.55l0.05,0.15l-0.1,0.35l-0.15,0.05l0,0.2l-0.05,0.1l-0.2,0.15l-0.55,0.55q-1.3,1.05 -3.5,1.15l0.6,-0.85l1.7,-0.55l0.45,-0.3l0.05,0q0.15,-0.05 0.25,-0.15l0.3,-0.4q0.25,-0.3 1.1,-0.5l0.05,0.05m-9.05,1.8l0.1,0l0.8,0.55l-0.9,-0.5l0,-0.05m-1.55,0.5l-0.35,-0.4l-0.05,0l0.1,-0.05l0.25,0.35l0.55,0.5l-0.5,-0.4m1.9,-0.9l-0.05,0l-0.2,-0.2l1.25,-0.45l0.15,0.2l0.6,0.45l0.7,0.35l-0.25,0.35l-0.95,0.25l-0.7,-0.35l-0.5,-0.45l0,-0.1l-0.05,-0.05"/>
   <path id="svg_7" fill-rule="evenodd" fill="#202020" d="m11.5,0.8l-0.1,0.05l-0.05,0l-0.05,0.05l-0.2,0.05l-1.95,0.7l-0.05,0l-1.75,0.5l-0.35,-0.4l2.85,-1.05l0.95,-0.45l0.3,-0.45l0.3,0.75l0.05,0.2l0.05,0.05m-33.9,-6.7l0,0.1l-0.05,0.1l-0.25,0.15l-0.25,0l-0.35,-0.1l0.4,-0.5l0.2,-0.15l2.45,0l0.6,0.25l0.4,0.2l0.65,0.5l0.3,0.6l0.35,1.25q0.15,0.7 0.9,1l2.2,-0.05l0.05,0.35q0.15,0.3 -0.1,0.5l-0.95,0q-0.55,0.15 -1,0.6l-0.7,0.95l-0.05,1.25l-0.05,1.25l-0.1,0.4l0.05,0.1l-0.15,1.2l0.05,2.45l-0.1,0.45l-0.25,0.4l-0.1,-0.05l0.05,0l-0.1,-0.2l0.1,-4.75q0,-0.4 -0.3,-0.95l-0.3,-0.6l0.25,-0.4q0.25,-0.3 0.2,-0.6l-0.4,-1.05l0.2,-0.65l0.25,-1.15l0,-0.7l-0.3,-0.9l-0.7,-0.75l-0.35,-0.2l-0.9,-0.35l-1.3,0.05l0.35,-0.05l-0.65,0.05l-0.05,-0.05l-0.05,0.05l-0.15,0m14.05,11.8l0.1,-0.1l0.9,0.35q0.35,0.15 0.55,0.35l0.9,0.75q0.35,0.4 0.9,0.55l0.4,0l-0.1,0.1l-0.45,0l-0.7,-0.45l-1.4,-1.2l-1.1,-0.35m4.25,-4.1l0.05,0.05l-0.05,0.1l-0.7,1.75l-0.4,1.8l0.25,0.9l0.05,0.15l-0.1,0.1l-0.2,0.05l-1.75,-1.7l1,-2.4l0.75,-1.65l0.1,0l0,0.05l0.25,0.4l0.75,0.3l0,0.1"/>
   <path id="svg_8" fill-rule="evenodd" fill="#101010" d="m-17.25,-0.05l0.1,0l0.2,-0.15l0.35,-0.15l0.65,-0.15l-1,1.35l-0.5,0.9l0.05,-1.05l0.15,-0.75"/>
   <path id="svg_9" fill-rule="evenodd" fill-opacity="0.49804" fill="#1e89ff" d="m10.45,-3.65l-0.25,-0.3l-0.3,-0.45q-0.15,-0.15 -0.15,-0.35l0.15,-0.35l0.3,-0.25l0.45,-0.05l0.1,0.05l6.3,0.05l0.25,0.05l0.35,0.15l5.05,-0.25l0.45,0.2l0.25,0.4l-0.1,0.45l-0.35,0.25l-0.3,0.15l-0.2,0.1l-0.75,0.05l-0.75,0.05l-0.95,0.25l-0.15,0l-0.6,0l-0.75,0l-0.05,0.05l-1.25,0l-0.3,0l-1.15,0l-5,-0.05l-0.1,-0.05l-0.15,-0.1l-0.05,-0.05m6,4.3l-0.05,0l-0.4,-0.1l-0.3,-0.3l-0.05,-0.4l0.05,-0.15l-0.05,-0.05l-0.35,0.05l-0.05,0l-0.2,0.3l-0.45,0.3l-0.45,-0.1l0,-0.05l-0.15,-0.1l-0.15,-0.25l0,-0.2l0.2,-0.25l0,0.2l-0.05,0.15l0,0.05l0.05,-0.1l0.05,0.1l0.15,0.25l0.35,0.05l0.25,-0.2l0.25,-0.3l0.05,0l0.6,-0.1l0.15,0.15l0,0.55l0.2,0.25l0.25,0.05l0.25,-0.15q0.4,-0.45 0.4,-0.8l0,-0.2l-0.15,-0.45q-0.25,-0.45 -1.25,-0.45l-1.35,0.4l-0.05,0.1l-0.05,0l-0.1,0.25l-0.05,-0.35l0,-0.05l0.35,-0.3l0.2,-0.05l1,-0.2l0.05,0l1.1,0.15l0.3,0.35l0.2,0.6l0,0.2l0,0.35l0.9,-0.4l0.5,-0.05l0.95,0l0.3,0.15l0.1,0.1l0.3,0.7q0.05,0.75 -0.3,0.85l-0.05,0.05l-0.35,0.15l-0.5,0l-0.35,-0.35l-0.1,-0.25l-0.55,0.2l-0.1,0.15l-0.3,0.3l-0.45,0.05l-0.35,-0.25l-0.2,-0.35l0.1,-0.45l-0.3,0.2m-3.4,-1.3l0,0.05l-0.05,0l0,-0.05l0.05,0m-0.3,0.25l-0.05,-0.05l0.05,-0.1l-0.05,0l-0.15,0.05l0.3,-0.25l-0.05,0.1l0.15,0.05l-0.05,0l-0.1,-0.05l-0.05,0.05l0.05,0l0,0.05l-0.05,0.1l0,0.05m2.95,-1.65l-0.2,-0.4l0,-0.1l0.15,-0.45l0.2,-0.2l0.15,-0.1l0.25,-0.05l0.55,0.15l0.3,0.5l-0.05,0.35l0,0.1l-0.05,0l-0.1,0.25l-0.2,0.1l-0.3,0.15l-0.3,-0.05q-0.25,-0.05 -0.4,-0.2l0,-0.05m-5.65,-2.95l-0.05,0.25l0.1,0.25l0.25,0.45l0.45,0.4l9.05,-0.05l2.55,-0.35l0.7,-0.35l0.1,-0.35l-0.2,-0.25l-0.3,-0.15l-5.05,0.3l-0.45,-0.2l-0.15,-0.05l-6.8,-0.05l-0.2,0.15m-3.7,1.45l0.45,-0.15l3.05,-0.05l0.45,0.25l0.15,0.45l0.1,0.55l0,0.55l-0.2,0.25l0.5,0.6l0.15,0.35l-0.15,0.4l-0.35,0.2l-0.75,0.2l-1.35,0.2l-0.35,-0.1l-0.25,-0.25l-0.1,-0.35l-0.05,-0.4l-0.1,-0.1l0,-0.45l0.1,-0.25l-0.4,0.05q-0.35,0.2 -0.85,-0.8l-0.15,-0.3l-0.1,-0.45l0.2,-0.4m1.7,1.85l-0.15,0.1l-0.15,0.25l0,0.3l0.05,0.05l0.15,0.4l0,0.15l0.05,0.25l0.2,0.15l0.2,0.05l1.35,-0.15l0,-0.05l0.7,-0.15l0.2,-0.15l0.1,-0.25l-0.1,-0.25l-0.45,-0.5l0,-0.05l-0.3,-0.2l0.25,-0.05l0.2,-0.25l0,-0.45l-0.1,-0.55l-0.1,-0.3l-0.3,-0.15l-3.05,0l-0.3,0.15l-0.15,0.25l0.05,0.3l0.2,0.3q0.4,0.8 0.65,0.7l0.85,-0.2l0.05,0l1.2,-0.2l0.2,0.25l-0.25,-0.05l-0.55,0.15l-0.3,0.15l-0.2,0l0.15,-0.15l-0.35,0.15m3.6,1.45l-0.15,-0.15l-0.05,-0.3l0.2,0.45m7.05,-2.35l-0.05,0.3l-0.1,0.1l-0.3,0.8l-0.35,0.05l0.2,-0.25l0.4,-0.55l0,-0.45l0.1,-0.45l0.1,0.35l0,0.1m1.15,1.8l0.2,-0.2l0.1,0.2l-0.15,0.2l-0.1,-0.15l-0.05,-0.05m-3.6,-2.35l-0.2,0.05l-0.15,0.1l-0.1,0.15l-0.1,0.3l0,0.1l0.15,0.3q0.1,0.1 0.3,0.1l0,0.05l0.25,0l0.25,-0.05l0.15,-0.25l-0.05,0l0.15,-0.3l-0.2,-0.3l0,-0.05l-0.45,-0.2m3.55,2.95l-0.75,-0.2q-1.6,0.05 -2,0.7l-0.15,0.55l0.15,0.3l0.25,0.15l0.25,-0.05l0.2,-0.2l0.1,-0.2l1,-0.25l0.05,0.35l0.2,0.25l0.35,0l0.35,-0.15q0.3,-0.1 0.25,-0.7l-0.25,-0.55m1.95,-0.6l0.2,-0.2q0.05,0.3 0.75,0.3l0.45,0q0.55,0.1 1,-0.95l0.5,-1.35l-0.05,-0.25l-0.15,-0.25l-0.25,-0.1l-1.1,0.05l-0.25,0.1l-0.15,0.2l-0.15,-0.2l0.15,-0.15l0.4,-0.15l1.1,-0.05l0.4,0.15l0.2,0.3l0.05,0.4l-0.5,1.3l0,0.05q-0.6,1.3 -1.2,1.15l-1.25,-0.2l-0.15,-0.15m-0.85,-2.6l-0.1,0.2l-0.05,0.05l-0.1,-0.25l0.1,-0.15l0.15,0.15m-32.25,1.35l0.1,0.15q0.7,0.8 1.1,0.75l1.2,-0.25l0.6,-0.55l0.1,-0.4l-0.1,-0.25l-0.2,-0.2l-0.25,0l-0.2,0.05l-2,0.05l-0.3,0.1l-0.15,0.25l0.1,0.3m-0.3,-0.3l0.25,-0.4l0.4,-0.15l1.95,-0.05l0.15,-0.05l0.4,0l0.35,0.25l0.1,0.4q0.05,0.4 -0.2,0.55l-0.55,0.55l-0.05,0.05l-1.3,0.25q-0.5,0.15 -1.25,-0.8l-0.15,-0.15l-0.1,-0.45"/>
   <path id="svg_10" fill-rule="evenodd" fill-opacity="0.70588" fill="#1e88ff" d="m21.5,-0.65l-1.15,0l-0.2,-0.15l-0.1,-0.2l-0.2,0.2l-0.3,0.2l-0.95,0l-0.4,-0.15l-0.15,-0.35l0.05,-0.05l0.05,-0.2l0.1,-0.05l0.3,-0.8l0.1,-0.1l0.05,-0.3l0.1,-0.45l0.05,-0.05l0.05,-0.15l0.1,-0.1l0.25,-0.1l0.6,0l0.15,0l0.35,-0.05l0.25,0.1l0.05,0l0.1,0.25l0.05,-0.05l0.1,-0.2l0.05,0l0.15,-0.05l0.1,-0.05l1.1,-0.05l0.25,0.1l0.15,0.2l0.15,-0.2l0.25,-0.1l1.1,-0.05l0.25,0.1l0.15,0.25l0.05,0.25l-0.5,1.35q-0.45,1.05 -1,0.95l-0.45,0q-0.7,0 -0.75,-0.3l-0.2,0.2l-0.25,0.15m-11.5,-2.6l-0.15,-0.05l-3.05,0.05l-0.15,0.05l-0.1,0.15l0.2,0.45l0,0.05l0.5,0.5l2.2,-0.35l0.3,0.35l0.15,0.05l0.15,0l0.05,-0.1l0.05,-0.15l-0.05,-0.1l0,-0.05l-0.05,-0.65l-0.05,-0.2m0.05,-1.75l0.2,-0.15l6.8,0.05l0.15,0.05l0.45,0.2l5.05,-0.3l0.3,0.15l0.2,0.25l-0.1,0.35l-0.7,0.35l-2.55,0.35l-9.05,0.05l-0.45,-0.4l-0.25,-0.45l-0.1,-0.25l0.05,-0.25m-1.8,3.3l0.2,0l0.3,-0.15l0.55,-0.15l0.25,0.05l-0.2,-0.25l-1.2,0.2l-0.05,0l-0.85,0.2q-0.25,0.1 -0.65,-0.7l-0.2,-0.3l-0.05,-0.3l0.15,-0.25l0.3,-0.15l3.05,0l0.3,0.15l0.1,0.3l0.1,0.55l0,0.45l-0.2,0.25l-0.25,0.05l0.3,0.2l0,0.05l0.45,0.5l0.1,0.25l-0.1,0.25l-0.2,0.15l-0.7,0.15l0,0.05l-1.35,0.15l-0.2,-0.05l-0.2,-0.15l-0.05,-0.25l0,-0.15l-0.15,-0.4l-0.05,-0.05l0,-0.3l0.15,-0.25l0.15,-0.1l0.2,0m2.1,-3.25l-0.1,0.1l-0.05,0.1l0.05,0.15l0.3,0.4l0.35,0.35l0.15,-0.05l8.75,0l2.35,-0.3l0.05,0l0.45,-0.2l0.05,0l0.1,-0.05l0.1,-0.1l0.05,-0.15l-0.05,-0.15l-0.2,-0.05l-5,0.25l-0.55,-0.2l-6.8,-0.1m-1.5,3.3l-0.05,0l-0.3,0.15l-0.35,0l-0.1,0.05l-0.1,0.15l0,0.15l0.1,0.1l0.1,0.45l0,0.15l0.05,0.15l0.2,0.1l2,-0.35l0.1,-0.1l0,-0.1l-0.05,-0.15l-0.4,-0.45l-0.75,-0.45l-0.45,0.15m2.85,0.95l0.1,0.3l-0.05,-0.1l-0.05,-0.2m0.75,-0.05l0.15,-0.1l0,0.1l-0.15,0m1.9,-0.25l0,0.05l-0.1,0.3l0,0.1l0.05,0.25l0.1,0.1l0.15,0.05l0.15,-0.1l0.25,-0.35l0.95,-0.15l0.15,0.2l0.1,0.25l-0.05,0.4l0.1,0.1l0.15,0l0.1,-0.05l0.3,-0.65l0,-0.2l-0.15,-0.3q-0.2,-0.35 -1,-0.35l-1.25,0.35m-0.3,0.15l0.1,-0.25l0.05,0l0.05,-0.1l1.35,-0.4q1,0 1.25,0.45l0.15,0.45l0,0.2q0,0.35 -0.4,0.8l-0.25,0.15l-0.25,-0.05l-0.2,-0.25l0,-0.55l-0.15,-0.15l-0.6,0.1l-0.05,0l-0.25,0.3l-0.25,0.2l-0.35,-0.05l-0.15,-0.25l-0.05,-0.1l-0.05,0.1l0,-0.05l0.05,-0.15l0,-0.2l0,-0.2m5.2,-2.35l-0.1,0.05l-0.1,0.1l-0.25,0.9l-0.5,1.05q0,0.3 0.6,0.3l0.45,0q0.35,0.05 0.8,-0.85l0.4,-1.3l0,-0.15l-0.05,-0.1l-0.15,-0.05l-1.1,0.05m-3,0.05l0.45,0.2l0,0.05l0.2,0.3l-0.15,0.3l0.05,0l-0.15,0.25l-0.25,0.05l-0.25,0l0,-0.05q-0.2,0 -0.3,-0.1l-0.15,-0.3l0,-0.1l0.1,-0.3l0.1,-0.15l0.15,-0.1l0.2,-0.05m0.85,0.45l0.4,-0.35l0.05,0l0.55,0l0.25,0.1l0,0.05l0.15,0.25l0,0.05l0,0.45l-0.4,0.55l-0.3,0.05l-0.1,0l-0.45,-0.3l-0.1,-0.15l-0.05,-0.05l-0.05,-0.2l0,-0.1l0.05,-0.35m-0.5,0.35l0,-0.05l0.1,-0.2l-0.1,-0.1l-0.05,-0.1l-0.3,-0.1l-0.1,0l-0.15,0.2l-0.05,0.15l0,0.1l0.05,0.15l0.15,0.05l0.05,0l0.2,0.05l0.1,-0.05l0.1,-0.1m1,-0.5q-0.35,0.15 -0.35,0.5l0.2,0.35l0.25,0.2q0.5,0 0.55,-0.4l0,-0.6l-0.2,-0.05l-0.45,0m2.2,2.65l0.25,0.55q0.05,0.6 -0.25,0.7l-0.35,0.15l-0.35,0l-0.2,-0.25l-0.05,-0.35l-1,0.25l-0.1,0.2l-0.2,0.2l-0.25,0.05l-0.25,-0.15l-0.15,-0.3l0.15,-0.55q0.4,-0.65 2,-0.7l0.75,0.2m3.15,-3.05l-0.05,0.1l-0.25,0.9l-0.05,0l-0.5,1.05q0,0.3 0.6,0.3l0.45,0q0.4,0.05 0.8,-0.85l0.45,-1.3l0,-0.15l-0.1,-0.1l-0.1,-0.05l-1.1,0.05l-0.15,0.05m-1.75,0l-0.1,0.05l-0.1,0.1l-0.3,0.9l-0.45,0.95l-0.05,0.1l0.05,0.15l0.55,0.15l0.45,0q0.35,0.05 0.8,-0.85l0.45,-1.3l0,-0.15l-0.1,-0.1l-0.15,-0.05l-1.05,0.05m-32.35,0.8l-0.05,0.15l0,0.15l0.1,0.05l0,0.05l0.95,0.7l1.1,-0.25l0.5,-0.5l0.05,-0.25l-0.05,-0.15l-0.05,-0.05l-2.4,0.05l-0.15,0.05m30.95,2.8l-0.15,-0.35l-0.6,-0.2q-1.45,0.05 -1.8,0.6l0,0.05q-0.15,0.15 -0.15,0.4l0.1,0.15l0.15,0.05l0.1,0l0.1,-0.1l0.1,-0.25l0.05,0q0.35,-0.25 1.35,-0.35l0.05,0.05l0,0.15l-0.05,0.15l0.05,0.2l0.1,0.1l0.2,0l0.3,-0.1l-0.05,-0.05l0.15,-0.5m-31.15,-2.4l-0.1,-0.3l0.15,-0.25l0.3,-0.1l2,-0.05l0.2,-0.05l0.25,0l0.2,0.2l0.1,0.25l-0.1,0.4l-0.6,0.55l-1.2,0.25q-0.4,0.05 -1.1,-0.75l-0.1,-0.15"/>
   <path id="svg_11" fill-rule="evenodd" fill="#a1cdff" d="m13.65,-0.35l-0.15,-0.05l-0.05,-0.15l0,-0.25l-0.4,-0.2l-0.05,-0.05l-0.6,0.1l-0.05,0.1l0,0.15l-0.1,0.15l-0.15,0.1l-0.15,-0.1l-0.05,-0.05l-0.15,-0.25l0.1,-0.45l1,-0.3l1,0.2l0.1,0.05l0,0.05l0.05,0.1l0.05,0.35l0,0.2l-0.2,0.25l-0.2,0.05m-3.65,-2.9l0.05,0.2l0.05,0.65l0,0.05l0.05,0.1l-0.05,0.15l-0.05,0.1l-0.15,0l-0.15,-0.05l-0.3,-0.35l-2.2,0.35l-0.5,-0.5l0,-0.05l-0.2,-0.45l0.1,-0.15l0.15,-0.05l3.05,-0.05l0.15,0.05m-1.15,1.6l0.45,-0.15l0.75,0.45l0.4,0.45l0.05,0.15l0,0.1l-0.1,0.1l-2,0.35l-0.2,-0.1l-0.05,-0.15l0,-0.15l-0.1,-0.45l-0.1,-0.1l0,-0.15l0.1,-0.15l0.1,-0.05l0.35,0l0.3,-0.15l0.05,0m1.5,-3.3l6.8,0.1l0.55,0.2l5,-0.25l0.2,0.05l0.05,0.15l-0.05,0.15l-0.1,0.1l-0.1,0.05l-0.05,0l-0.45,0.2l-0.05,0l-2.35,0.3l-8.75,0l-0.15,0.05l-0.35,-0.35l-0.3,-0.4l-0.05,-0.15l0.05,-0.1l0.1,-0.1m4,3.95l1.25,-0.35q0.8,0 1,0.35l0.15,0.3l0,0.2l-0.3,0.65l-0.1,0.05l-0.15,0l-0.1,-0.1l0.05,-0.4l-0.1,-0.25l-0.15,-0.2l-0.95,0.15l-0.25,0.35l-0.15,0.1l-0.15,-0.05l-0.1,-0.1l-0.05,-0.25l0,-0.1l0.1,-0.3l0,-0.05m4.9,-2.2l1.1,-0.05l0.15,0.05l0.05,0.1l0,0.15l-0.4,1.3q-0.45,0.9 -0.8,0.85l-0.45,0q-0.6,0 -0.6,-0.3l0.5,-1.05l0.25,-0.9l0.1,-0.1l0.1,-0.05m-1.65,0.35l0.45,0l0.2,0.05l0,0.6q-0.05,0.4 -0.55,0.4l-0.25,-0.2l-0.2,-0.35q0,-0.35 0.35,-0.5m-1,0.5l-0.1,0.1l-0.1,0.05l-0.2,-0.05l-0.05,0l-0.15,-0.05l-0.05,-0.15l0,-0.1l0.05,-0.15l0.15,-0.2l0.1,0l0.3,0.1l0.05,0.1l0.1,0.1l-0.1,0.2l0,0.05m6.35,-0.9l0.15,-0.05l1.1,-0.05l0.1,0.05l0.1,0.1l0,0.15l-0.45,1.3q-0.4,0.9 -0.8,0.85l-0.45,0q-0.6,0 -0.6,-0.3l0.5,-1.05l0.05,0l0.25,-0.9l0.05,-0.1m-1.75,0l1.05,-0.05l0.15,0.05l0.1,0.1l0,0.15l-0.45,1.3q-0.45,0.9 -0.8,0.85l-0.45,0l-0.55,-0.15l-0.05,-0.15l0.05,-0.1l0.45,-0.95l0.3,-0.9l0.1,-0.1l0.1,-0.05m-1.4,3.6l-0.15,0.5l0.05,0.05l-0.3,0.1l-0.2,0l-0.1,-0.1l-0.05,-0.2l0.05,-0.15l0,-0.15l-0.05,-0.05q-1,0.1 -1.35,0.35l-0.05,0l-0.1,0.25l-0.1,0.1l-0.1,0l-0.15,-0.05l-0.1,-0.15q0,-0.25 0.15,-0.4l0,-0.05q0.35,-0.55 1.8,-0.6l0.6,0.2l0.15,0.35m-30.95,-2.8l0.15,-0.05l2.4,-0.05l0.05,0.05l0.05,0.15l-0.05,0.25l-0.5,0.5l-1.1,0.25l-0.95,-0.7l0,-0.05l-0.1,-0.05l0,-0.15l0.05,-0.15"/>
   <path id="svg_12" fill-rule="evenodd" fill-opacity="0.24706" fill="#1c8aff" d="m22.65,-3.9l0,0.05l0.2,-0.1l-0.1,0.15l0.1,0.05l0.1,-0.05l0.15,-0.1l-0.05,0.05l0.2,-0.15l0.95,-0.05l0.5,0.2l0.3,0.4l0.1,0.55l-0.55,1.4l0,-0.05q-0.65,1.5 -1.4,1.3l-0.5,0l-0.75,-0.1q-0.3,-0.1 -0.4,-0.3l0.25,-0.15l0.15,0.15l1.25,0.2q0.6,0.15 1.2,-1.15l0,-0.05l0.5,-1.3l-0.05,-0.4l-0.2,-0.3l-0.4,-0.15l-1.1,0.05l-0.4,0.15l-0.15,0.15l-0.25,-0.1l0.05,-0.05l-0.1,0l-0.15,0.05l-0.1,0l-0.25,-0.1l-0.05,-0.1l0.75,-0.05l0.2,-0.1m-2.3,3.25l-0.15,0.2l0.15,0.25l0.1,0.5q0.05,0.85 -0.35,1.1l-0.05,0.05l-0.45,0.2l-0.65,-0.05l-0.45,-0.4l-0.05,-0.05l-0.25,0.05l-0.45,0.45l-0.55,0.05l-0.5,-0.25l-0.25,-0.55l0,-0.25l0.3,-0.2l-0.1,0.45l0.2,0.35l0.35,0.25l0.45,-0.05l0.3,-0.3l0.1,-0.15l0.55,-0.2l0.1,0.25l0.35,0.35l0.5,0l0.35,-0.15l0.05,-0.05q0.35,-0.1 0.3,-0.85l-0.3,-0.7l-0.1,-0.1l-0.3,-0.15l0.3,-0.2l0.05,0.05l0.1,0.15l0.15,-0.2l0.2,0.15m-6.2,0.85l-0.2,0.1l-0.3,-0.45l0,-0.2l0.2,-0.05l0,0.2l0.15,0.25l0.15,0.1l0,0.05m-1.1,-1.2l0.05,0.15l-0.05,0.2l-0.05,0l0,0.05l0,0.05l-0.05,0.1l0.15,0.05l-0.15,0.05l-0.1,0.15l-0.05,-0.2l-0.05,0l0,-0.05l0.05,0.05l0,-0.15l0.05,0.1l0,0.05l0.1,-0.1l0.05,-0.1l-0.1,0.05l0,-0.05l0.05,0l0.1,-0.25l0,-0.15m0.8,-0.4q0.15,-0.3 0.55,-0.4l0.1,0.1l0.05,0.1l-0.2,0.05l-0.35,0.3l0,0.05l-0.05,-0.1l0,-0.05l-0.1,-0.05m1.7,-0.4l0,-0.05l-0.15,-0.2l0.3,0l0,0.05q0.15,0.15 0.4,0.2l0.3,0.05l0.3,-0.15l0.2,0.15l0.3,0.35l0.1,0.25l-0.5,-0.55l-0.1,0.05l-1.1,-0.15l-0.05,0m0.3,-1.4l-0.3,0l0.2,-0.2l1.15,0l0.1,0.1l0.2,-0.1l1.25,0l0.05,-0.05l0.75,0l-0.25,0.1l-0.1,0.1l-0.2,0l0.1,0.2l-0.1,0.45l0,-0.1l-0.1,-0.35l-0.1,0.45l0,-0.05l-0.15,-0.25l0,-0.05l0.05,-0.25l-1.35,0l0.1,0.25l-0.3,-0.2l0,-0.05l-0.05,0l-0.55,-0.15l-0.25,0.05l-0.15,0.1m-5.1,-0.25l-0.15,0l0.1,0.4l0.05,0.5l0.05,0.15l-0.05,0.55l-0.1,0.15l0.4,0.4l0.15,0.55l-0.05,0.25l-0.15,0.3l-0.5,0.25l-0.7,0.2l-1.35,0.2l-0.45,-0.1l-0.4,-0.3l-0.1,-0.5l-0.05,-0.3l-0.1,-0.1q-0.1,-0.25 -0.05,-0.6l-0.05,0.05q-0.45,0.3 -1.05,-0.9l-0.15,-0.25q-0.2,-0.3 -0.1,-0.6q0,-0.35 0.25,-0.55q0.25,-0.25 0.6,-0.25l3.25,0l-0.05,-0.25l0.2,0.45l0.2,0.1l0.05,0l0.05,0.05l0.05,0.05l0.1,0.05l0.1,0.05m-4.4,-0.1l-0.2,0.4l0.1,0.45l0.15,0.3q0.5,1 0.85,0.8l0.4,-0.05l-0.1,0.25l0,0.45l0.1,0.1l0.05,0.4l0.1,0.35l0.25,0.25l0.35,0.1l1.35,-0.2l0.75,-0.2l0.35,-0.2l0.15,-0.4l-0.15,-0.35l-0.5,-0.6l0.2,-0.25l0,-0.55l-0.1,-0.55l-0.15,-0.45l-0.45,-0.25l-3.05,0.05l-0.45,0.15m1.7,1.85l0.35,-0.15l-0.15,0.15l-0.2,0m3.35,1.5q-0.15,-0.2 -0.15,-0.5l0.25,0.65l-0.1,-0.15m1.5,-0.2l0.05,0l0,-0.05l0,-0.05l-0.05,0.1m5.35,-1l-0.1,0.05l-0.05,0.2l-0.4,0.05l-0.05,0l0.15,-0.45l0.3,-0.05l-0.2,0.25l0.35,-0.05m-0.05,0.65l0.4,0.15l-0.5,0.05l-0.9,0.4l0,-0.35l1,-0.25m1.8,-2.7l0.95,-0.25l0.15,0.25l-0.15,0.05l-0.05,0l-0.15,-0.15l-0.1,0.15l-0.05,0l-0.25,-0.1l-0.35,0.05m-2.85,1.45l-0.05,0.05l0,-0.1l0.05,0.05m-1.75,1.9l0.05,-0.1l0,-0.05l0.1,0.1l-0.1,0l0,0.05l-0.05,0m-27,-1.45l-0.15,-0.3l-0.15,-0.55l0.35,-0.5l0.55,-0.25l2.6,-0.05l0.4,0.3l0.15,0.55q0.05,0.55 -0.25,0.75l-0.65,0.6l-1.4,0.3q-0.55,0.15 -1.4,-0.85l-0.05,0m-0.05,-0.8l0.1,0.45l0.15,0.15q0.75,0.95 1.25,0.8l1.3,-0.25l0.05,-0.05l0.55,-0.55q0.25,-0.15 0.2,-0.55l-0.1,-0.4l-0.35,-0.25l-0.4,0l-0.15,0.05l-1.95,0.05l-0.4,0.15l-0.25,0.4"/>
   <path id="svg_13" fill-rule="evenodd" fill="#000000" d="m7.55,-6.9l1.4,0l0.2,0.25l0.6,-0.05l0,-0.05l4.05,-0.1l1.15,0.85l0.45,0.45l0.45,0.55l-0.05,0.1l1.25,-0.05l0.7,0.3l5.55,-0.35l-0.05,0.05l0.6,0.05l2.05,-0.05l0.15,0l0.05,0.15l-0.25,0.6l0.7,-0.05l0.1,0.2l-0.35,1.55l-0.95,1.55l-1.15,0.05l-0.05,-0.05q-1.5,2.3 -2.6,2.35l-0.3,-0.05l-2.3,0l-0.95,0.95q-1.5,1.2 -3.15,1.15l-0.7,0q-0.7,0.5 -1.8,0.8l-1.7,0.05l-0.9,-0.55q-0.7,0.05 -1.35,-0.65l-0.65,-0.75l-0.25,0l-0.5,-0.25l-0.3,-0.3l-0.5,0l-0.9,-1.1l-1.5,0l-0.1,0.05l-2.1,0.2l-0.1,-0.1l-1.4,0l-0.1,-0.1l-0.4,0.2l-2.7,0.45l-0.7,0.45l-0.65,1.7q-0.55,1.45 -0.5,1.95l0.25,0.8l0.3,1l0,0.15l-0.1,0.6l-0.05,0.1l-0.65,0q-0.5,-0.05 -0.9,-0.45l-0.7,-0.7q-0.2,-0.3 -1.1,-0.65l-0.8,-0.35l0.15,-0.4l0.2,-0.15l0,-0.05l1.15,-1.95q1.15,-2.1 1.15,-3.2l0,-0.35l-0.3,-0.3q-0.55,-0.05 -0.95,0.3l-0.3,0.3l-0.35,0.2l-0.2,-0.05l-0.15,0.1l-0.95,0.1l-1.35,-0.2l-0.45,-0.2l-0.3,-0.35l-0.9,-0.25l-0.15,-0.05l-1.65,-0.15l-1.5,0.15l-0.35,0.65l-0.85,1l-0.4,1l-0.15,0.15l-0.2,0.75l0,3.65l-0.2,0.5l-0.35,0.45l-0.45,-0.25l-0.05,-0.35l0.15,-3.8l-0.05,-0.95l-0.55,-1.45l0.35,-1l-0.2,-0.6l-0.15,-0.45l0.2,-0.8l0.25,-1.05q-0.05,-1.05 -0.5,-1.7q-0.85,-1.15 -3.05,-0.95l-0.15,0.3l-0.3,0.1l-0.9,-0.05l-0.1,-0.15l0,-0.1l0.2,-0.65q0.25,-0.4 0.85,-0.4l0.4,0l2.95,0.55q0.8,0.35 1.2,1.05l0.35,1.2q0.15,0.75 0.6,1.05l5.3,-0.05l0.45,0.3l2.25,-0.05l0.05,-0.05l0.35,0l0.1,-0.1l0.05,0l0,-0.05l0.75,-0.4l1.4,-0.5l0.95,-1.05l1.4,-0.95l1.35,-0.6l2.4,-0.1l1.45,0.15l4.85,-0.05l1,-0.35l0.1,-0.05l0,-0.05l0.35,-0.15m-0.35,0.65l-1,0.2l-5.2,0.05l-1.2,-0.1l-2.3,0.1l-1.6,1.1l-0.95,0.75l0.25,0.45l0.45,0.25l0.4,0.25l5.95,0l0.05,0.05l0.15,-0.05l4.35,0l0.85,-0.2l2.45,0l0.55,-0.25l0.2,-0.35l-0.05,-0.05l0,-0.05l-1.75,-2.55l-1.2,0l-0.15,0.2l-0.15,0.1l-0.05,0l-0.05,0.1m2.2,-0.1l0.8,1.25l5.4,0.2l-1.9,-1.6l-3.95,0.1l-0.2,0.05l-0.15,0m-8.2,1.2l6.7,-0.2l0.2,-0.1l0.15,0.35l0,0.5l-0.3,0.35l-0.2,0.15l-10.5,0.3l-0.15,-0.5l0.05,-0.25l0.4,-0.65l0.65,-0.1l2.5,0l0.5,0.15m1.2,0.9l5.6,-0.15l-0.05,-0.1l-0.1,-0.5l-0.8,0l-0.15,0.05l-5.7,0.1l-1.25,-0.2l-2.25,0.15l-0.3,0.8l2.1,-0.1l-0.05,-0.05l2.1,-0.1l0.85,0.1m-0.85,2.1l0,0.85l0.6,-0.15l1.5,0.1l0.35,0.15l0.05,-0.1l1.7,0.1l0.4,-1.15l-0.05,-0.55l-4.05,0q-0.55,-0.05 -0.5,0.75m0,-0.7l-5.7,-0.05l-0.2,-0.05l0,-0.05l-0.75,-0.4l-0.4,-0.35l-0.15,0.1q-0.3,0.3 -0.75,0.45l-0.1,0.1l-0.1,0l-0.6,0.1q-0.65,0.15 -0.85,0.45l-0.15,0.5q-0.1,0.3 -0.45,0.45l-1.6,0.25l-0.8,-0.55l-0.35,-0.45l-0.35,-0.2l-1.9,0.05l-0.1,-0.05l-0.8,0l0.05,0.8l-0.3,0.3q-1.3,-0.15 -1.95,0.5l-0.35,0.5l0.25,-0.15l1.3,-0.25l3,-0.1l0.9,0.4l0.25,0.25l0.15,-0.1l0.1,0.05l0.05,0.1l0,0.1l0.65,0.2l2.05,0.15l0,-0.15l0.15,0l0.3,0.1l0.4,-0.4l0.55,-0.4l0.75,0l0.45,0.45l0,0.4q0,0.75 -0.15,1.15l-0.6,1.55l-0.3,0.6l-0.3,0.7l-0.6,1.05l-0.4,0.15l0.8,0.55l0.9,0.4l0.7,0.65l0.8,0.5l0.25,0l0.05,-0.25l-0.1,-0.4l-0.35,0.2l-2.15,-2.1l0.5,-0.9l0.7,-1.8l0.15,-0.75q0.15,-0.5 0.45,-0.65q0.25,-0.25 0.7,0.25q0.2,0.3 0.65,0.35l0.25,0l0.55,-0.25l1.3,-0.35l1.3,-0.1l0.9,-0.4l0.85,-0.8l0.3,-0.7l-0.05,0l0.05,-1.15l0.2,-0.55m3,1.85l0.05,0.05l-0.65,1.35l1.4,0l0.55,-1.2l0.1,-0.05l-0.15,-0.15l-1.3,0m-1.6,0.3l-0.35,0.6l-0.7,0.7l1.7,-0.15l0.4,-0.65l0.3,-0.75l0,-0.05l-0.15,-0.1l-0.1,0l-0.2,-0.05l-0.55,0.05l-0.2,0.15l-0.15,0.2l0,0.05m-1.25,-0.45l-0.05,0.05l-0.45,0.8l-0.7,0.75l-0.15,0.1l1.25,0l0.95,-1.15l0.25,-0.4l0,-0.1l-0.2,-0.1l-0.45,0l-0.2,0.05l-0.25,0m5.55,-1.1l1.65,-0.35l0.6,-0.05l0.4,0.4l-0.05,-0.1l-0.05,-0.7l-3.05,0l0.5,0.8m-0.9,-0.8l-0.05,1.3l-0.15,0.6l0.1,0.1l0.05,0.1l-0.35,0.85l-0.45,0.65l0.85,0.95l3.1,-1.05q0.65,-0.2 1.1,-0.7l0.35,-0.25l0,-0.05l-1.45,-1.8l-2.2,0.35q-0.25,0 -0.45,-0.45l-0.25,-0.55l0,-0.05l-0.2,0m3.75,0.15l0.1,0.1l0.05,1l1,1.2l0.05,0.05l0.15,0.4l0.6,0l0,-0.1q-0.25,0 -0.3,-0.35l-0.05,-0.25q0,-0.45 0.4,-0.7l0.75,-0.2l0.85,0.25l0.4,0.65l-0.1,0.45l-0.3,0.25l0.55,0.15l0.05,-0.05l-0.05,-0.25l-0.05,-0.55l0,-0.2q0.2,-0.25 0.95,-0.4q1.2,0 1.45,0.35l0.15,0.3l0,0.9l-0.6,0.45l0.5,0.25l0.4,0.15l0.45,-0.7q0.35,-0.3 0.9,-0.4l1,-0.05q0.45,0.15 0.45,0.55l-0.15,0.45l-0.45,0.3l2.3,0q1,-0.05 2.4,-2.25l1.4,-2.55l0.15,-0.35l0,-0.1l0.05,0l0.2,-0.5l-1.5,-0.05l0,0.05l-0.85,0.05l-0.15,-0.05l-0.6,0.35l-0.5,0.2l-0.1,0l-0.05,-0.05l-1.35,0.1l-0.85,0.2l-8.7,0l-0.05,0.1l-0.15,0.05l-0.55,0.25l-0.25,0.4l0,0.15m-0.65,1.1l0.55,0.4l0.5,0.6l-0.3,0.25l-1.2,0.3l-0.8,0l-0.05,-0.1l0,-0.05l0.05,-0.05l0.1,0l-0.15,-0.15l-0.35,-0.75l0,-0.15l0.05,0l1.05,-0.15l0.2,-0.1l0.35,-0.05m-1.05,1.35l1.25,-0.15l0.6,-0.2l-0.4,-0.4l-0.6,-0.35l-0.35,0.1l-0.35,0.15l-0.4,0l0.1,0.15l0.15,0.5l0,0.2m2.45,-3.75l0.2,0.1l8.7,0l0.6,-0.2l1.8,-0.15l0.1,-0.05l0,0.05l0.5,-0.25l-5.05,0.25l-0.6,-0.2l-6.7,-0.1l0.35,0.45l0.05,-0.05l0.05,0.15m1.4,3.05l0.75,-0.15l0.6,0.4l0.05,0.35l0.05,-0.1l0.15,-0.2l-0.05,-0.15l-0.1,-0.2l-0.85,-0.2l-0.85,0.25l-0.05,0.3l0.15,0.15l0.05,-0.05l0.05,-0.3l0.05,-0.1m0.35,0.05q-0.4,0.1 -0.35,0.5l0,0.6l-0.3,1.35l0,0.1l0.05,0.05l0.9,0.45l0.3,-0.8l0.05,-0.65l0.15,-0.4l0.1,-0.65l-0.4,-0.6l-0.5,0.05m1.9,0.7l0.3,-0.3q0.4,-0.55 1.1,-0.25l0.35,0.25l0.1,0.4l-0.1,0.3l0.25,-0.45l0,-0.2l-0.05,-0.25q-0.2,-0.3 -0.85,-0.3l-1.15,0.35l0,0.3l0.05,0.15m0.1,0.25l0,0.1l-0.1,0.05l-0.3,0.75l-0.6,1.05l-0.25,0.3l-0.05,0.1l-0.05,0l-0.25,0.25l-0.75,0.5l-0.15,0l-0.05,-0.05l-0.7,0.1q-1,0.05 -1.65,-0.6l-0.35,-0.6l-0.9,0.4l0.6,0.65l0.7,0.55l0.1,0.1l0.8,0.5l1.65,-0.05l0.45,-0.15l0,0.05l0.95,-0.45l0.3,-0.3l0.05,0l0.8,-0.8l0,0.05l0.2,-0.35l0.15,-0.15l0.6,-1.35l0,-0.1l0.1,-0.1l0.25,-0.75l-0.15,-0.25l-0.35,-0.2q-0.55,-0.1 -0.95,0.6l-0.1,0.15m4.35,-3.1l0.2,-0.05l1.4,-0.05l0.1,0.05l0.05,0.15q0.05,0.35 -0.5,1.25l-0.6,1.2l-0.45,0l-0.8,-0.2l-0.1,-0.05l-0.05,0l0.75,-2l-0.05,-0.1l-0.1,-0.05l0.15,-0.15m-1.55,0.5l0.3,-0.3l0.4,0.1l0.2,0.5l-0.1,0.45q-0.1,0.25 -0.5,0.25q-0.35,0 -0.45,-0.25l-0.05,-0.25l0,-0.1l0.2,-0.4m0.05,0.4l0.1,0.2l0.15,0.15l0.35,-0.25l0,-0.4l-0.4,0l-0.2,0.3m-0.75,-0.35l0,0.3l-0.35,0.2q-0.35,0 -0.45,-0.15l-0.05,-0.1l0.05,-0.1l0.1,-0.3l0.25,-0.1l0.3,0.1l0.15,0.15m-0.55,0.15l0,0.1l0.2,0l0.1,-0.1l-0.15,-0.15l-0.15,0.15m2.85,0.5l-0.55,0.95l0.85,0.1l0.65,-0.75l0.4,-1.3l-1.1,0.05l-0.25,0.95m1.1,1.05l0.75,-2l-0.05,-0.1l-0.05,-0.05l0.05,-0.1l0.05,-0.05l0.25,-0.05l1.35,-0.05l0.1,0.05l0.05,0.15l-0.45,1.25l-0.6,1.2l-0.45,0l-0.85,-0.2l-0.1,-0.05l-0.05,0m4.4,-2.25l-0.45,1.25l-0.6,1.2l-0.45,0l-0.8,-0.2l-0.1,-0.05l-0.1,0l0.75,-2l-0.1,-0.15l0.05,-0.1l0.05,-0.05l0.25,-0.05l1.35,-0.05l0.1,0.05l0.05,0.15m-1.45,0.15l-0.25,0.95l-0.5,0.9l0.8,0.15q0.25,0 0.6,-0.75l0.45,-1.3l-1.1,0.05m-2.15,1l-0.5,0.9l0.8,0.15q0.25,0 0.6,-0.75l0.45,-1.3l-1.05,0.05l-0.3,0.95m3.35,0.9q0.95,0.3 1.5,-0.75l0.6,-1.7l0,-0.35l-0.65,0.15l-0.1,0.15l-1.05,2.05l-0.3,0.45m-5.25,1.6l-0.05,-0.05q-0.85,0.2 -1.1,0.5l-0.3,0.4q-0.1,0.1 -0.25,0.15l-0.05,0l-0.45,0.3l-1.7,0.55l-0.6,0.85q2.2,-0.1 3.5,-1.15l0.55,-0.55l0.2,-0.15l0.05,-0.1l0,-0.2l0.15,-0.05l0.1,-0.35l-0.05,-0.15m0.5,-0.25l-0.5,-0.15q-1.25,0.05 -1.6,0.55l-0.1,0.3l0.2,-0.3q0.4,-0.3 1.55,-0.45l0.2,0.2l0,0.5l0.25,-0.1l0.05,-0.4l-0.05,-0.15m-4.25,1.8l1.45,-0.4l0.3,-0.3l-1.05,-0.55l-0.7,1.25m-1.1,-1.7l-0.5,-0.1l-0.3,1.45l0.8,-1.35m-2.75,0.3l-0.3,-0.75l-0.3,0.45l-0.95,0.45l-2.85,1.05l0.35,0.4l3.75,-1.2l0.2,-0.05l0.05,-0.05l0.05,0l0.1,-0.05l-0.05,-0.05l-0.05,-0.2m0.2,-0.4l0.2,0.6l0.2,-0.6l-0.4,0m0.15,0.75l-0.25,0.1l0.25,0.2l0,-0.3m-1.45,0.9l0.05,0.05l0,0.1l0.5,0.45l0.7,0.35l0.95,-0.25l0.25,-0.35l-0.7,-0.35l-0.6,-0.45l-0.15,-0.2l-1.25,0.45l0.2,0.2l0.05,0m-2.25,0.5l0.35,0.4l0.5,0.4l-0.55,-0.5l-0.25,-0.35l-0.1,0.05l0.05,0m1.75,-0.3l0.05,-0.1l0,-0.2l-0.25,0.05l0.05,0.05l0.15,0.2m0.15,0.2l0,0.05l0.9,0.5l-0.8,-0.55l-0.1,0m-32.35,-8l0,-0.1l0.15,0l0.05,-0.05l0.05,0.05l0.65,-0.05l-0.35,0.05l1.3,-0.05l0.9,0.35l0.35,0.2l0.7,0.75l0.3,0.9l0,0.7l-0.25,1.15l-0.2,0.65l0.4,1.05q0.05,0.3 -0.2,0.6l-0.25,0.4l0.3,0.6q0.3,0.55 0.3,0.95l-0.1,4.75l0.1,0.2l-0.05,0l0.1,0.05l0.25,-0.4l0.1,-0.45l-0.05,-2.45l0.15,-1.2l-0.05,-0.1l0.1,-0.4l0.05,-1.25l0.05,-1.25l0.7,-0.95q0.45,-0.45 1,-0.6l0.95,0q0.25,-0.2 0.1,-0.5l-0.05,-0.35l-2.2,0.05q-0.75,-0.3 -0.9,-1l-0.35,-1.25l-0.3,-0.6l-0.65,-0.5l-0.4,-0.2l-0.6,-0.25l-2.45,0l-0.2,0.15l-0.4,0.5l0.35,0.1l0.25,0l0.25,-0.15l0.05,-0.1m5.15,5.75l-0.15,0.75l-0.05,1.05l0.5,-0.9l1,-1.35l-0.65,0.15l-0.35,0.15l-0.2,0.15l-0.1,0m6.3,-2.15l0.75,0.6q0.7,-0.05 1.05,-0.25l0.4,-0.45l0.05,-0.05l-2.35,0.05l0.1,0.1m7.85,2.1l-0.2,0.65l0.55,-0.15l0.1,-0.15l2.1,-0.25l0.25,-0.8l-0.25,-0.1l-0.95,-0.1l-0.95,0.3l-0.55,-0.05l-0.1,0.65m2.95,-0.15l-0.3,0.5l-2.1,0.35l-0.1,0.15l-0.35,0.05l-0.45,0l-0.15,-0.1l0,-0.15l0.45,-1.6l1.55,-0.2l1.4,0.1l0.15,0.2l0,0.15l-0.1,0.55m-3.9,2.1l-0.05,-0.05l0,-0.1l-0.75,-0.3l-0.25,-0.4l0,-0.05l-0.1,0l-0.75,1.65l-1,2.4l1.75,1.7l0.2,-0.05l0.1,-0.1l-0.05,-0.15l-0.25,-0.9l0.4,-1.8l0.7,-1.75l0.05,-0.1m-4.3,4.05l1.1,0.35l1.4,1.2l0.7,0.45l0.45,0l0.1,-0.1l-0.4,0q-0.55,-0.15 -0.9,-0.55l-0.9,-0.75q-0.2,-0.2 -0.55,-0.35l-0.9,-0.35l-0.1,0.1"/>
   <path id="svg_14" fill-rule="evenodd" fill="#1c1c1c" d="m1.55,-2.15q-0.05,-0.8 0.5,-0.75l4.05,0l0.05,0.55l-0.4,1.15l-1.7,-0.1l-0.05,0.1l-0.35,-0.15l-1.5,-0.1l-0.6,0.15l0,-0.85m22.7,0.95l0.3,-0.45l1.05,-2.05l0.1,-0.15l0.65,-0.15l0,0.35l-0.6,1.7q-0.55,1.05 -1.5,0.75"/>
  </g>
 </defs>
 <g>
  <title>Layer 1</title>
  <g id="svg_15" transform="matrix(10.0, 0.0, 0.0, 10.0, 305.0, 144.0)">
   <use id="svg_16" xlink:href="#shape0" width="50.2" transform="matrix(1.0, 0.0, 0.0, 1.0, -23.55, -6.9)" height="15.05" />
  </g>
 </g>
</svg>